<?xml version="1.0" encoding="utf-8"?>
<!-- Generator: Adobe Illustrator 16.0.0, SVG Export Plug-In . SVG Version: 6.00 Build 0)  -->
<!DOCTYPE svg PUBLIC "-//W3C//DTD SVG 1.1//EN" "http://www.w3.org/Graphics/SVG/1.1/DTD/svg11.dtd">
<svg version="1.1" xmlns="http://www.w3.org/2000/svg" xmlns:xlink="http://www.w3.org/1999/xlink" x="0px" y="0px" width="120px"
	 height="120px" viewBox="0 0 120 120" enable-background="new 0 0 120 120" xml:space="preserve">
<g id="Layer_2_1_" display="none">
	<radialGradient id="SVGID_1_" cx="60" cy="60" r="60" gradientUnits="userSpaceOnUse">
		<stop  offset="0.0042" style="stop-color:#3D3D3E"/>
		<stop  offset="0.0623" style="stop-color:#252525"/>
		<stop  offset="0.1074" style="stop-color:#0F0F0F"/>
		<stop  offset="0.8084" style="stop-color:#2E2E2F"/>
		<stop  offset="1" style="stop-color:#4A4B4C"/>
	</radialGradient>
	<circle display="inline" fill="url(#SVGID_1_)" cx="60" cy="60" r="60"/>
	
		<radialGradient id="SVGID_2_" cx="60" cy="60" r="60" gradientTransform="matrix(0.6235 -0.7818 0.7818 0.6235 -24.3193 69.4992)" gradientUnits="userSpaceOnUse">
		<stop  offset="0.0042" style="stop-color:#3D3D3E"/>
		<stop  offset="0.0623" style="stop-color:#252525"/>
		<stop  offset="0.1074" style="stop-color:#0F0F0F"/>
		<stop  offset="0.8084" style="stop-color:#2E2E2F"/>
		<stop  offset="1" style="stop-color:#4A4B4C"/>
	</radialGradient>
	<circle display="inline" fill="url(#SVGID_2_)" cx="59.999" cy="59.999" r="60"/>
	
		<radialGradient id="SVGID_3_" cx="60.0005" cy="60.0015" r="59.9995" gradientTransform="matrix(-0.2225 -0.9749 0.9749 -0.2225 14.8532 131.8461)" gradientUnits="userSpaceOnUse">
		<stop  offset="0.0042" style="stop-color:#3D3D3E"/>
		<stop  offset="0.0623" style="stop-color:#252525"/>
		<stop  offset="0.1074" style="stop-color:#0F0F0F"/>
		<stop  offset="0.8084" style="stop-color:#2E2E2F"/>
		<stop  offset="1" style="stop-color:#4A4B4C"/>
	</radialGradient>
	<circle display="inline" fill="url(#SVGID_3_)" cx="59.998" cy="59.999" r="60"/>
	
		<radialGradient id="SVGID_4_" cx="60.0015" cy="60.0024" r="59.9995" gradientTransform="matrix(-0.901 -0.4339 0.4339 -0.901 88.023 140.0923)" gradientUnits="userSpaceOnUse">
		<stop  offset="0.0042" style="stop-color:#3D3D3E"/>
		<stop  offset="0.0623" style="stop-color:#252525"/>
		<stop  offset="0.1074" style="stop-color:#0F0F0F"/>
		<stop  offset="0.8084" style="stop-color:#2E2E2F"/>
		<stop  offset="1" style="stop-color:#4A4B4C"/>
	</radialGradient>
	<circle display="inline" fill="url(#SVGID_4_)" cx="59.998" cy="60" r="60"/>
	
		<radialGradient id="SVGID_5_" cx="60.002" cy="60.0039" r="60" gradientTransform="matrix(-0.901 0.4339 -0.4339 -0.901 140.0909 88.027)" gradientUnits="userSpaceOnUse">
		<stop  offset="0.0042" style="stop-color:#3D3D3E"/>
		<stop  offset="0.0623" style="stop-color:#252525"/>
		<stop  offset="0.1074" style="stop-color:#0F0F0F"/>
		<stop  offset="0.8084" style="stop-color:#2E2E2F"/>
		<stop  offset="1" style="stop-color:#4A4B4C"/>
	</radialGradient>
	<path display="inline" fill="url(#SVGID_5_)" d="M5.939,86.034C-8.438,56.179,4.108,20.321,33.963,5.943
		c29.859-14.378,65.715-1.831,80.093,28.024c14.378,29.857,1.83,65.713-28.026,80.091C56.175,128.436,20.316,115.889,5.939,86.034z"
		/>
</g>
<g id="Layer_3">
	<radialGradient id="SVGID_6_" cx="60" cy="59.9995" r="59.5885" gradientUnits="userSpaceOnUse">
		<stop  offset="0.0042" style="stop-color:#3D3D3E"/>
		<stop  offset="0.0623" style="stop-color:#252525"/>
		<stop  offset="0.1074" style="stop-color:#0F0F0F"/>
		<stop  offset="0.8084" style="stop-color:#2E2E2F"/>
		<stop  offset="1" style="stop-color:#4A4B4C"/>
	</radialGradient>
	<path fill="url(#SVGID_6_)" d="M113.136,71.322c1.327-5.811,4.004-10.519,6.852-12.64c-0.067-8.531-1.945-17.083-5.705-25.051
		c-3.487-0.67-7.948-3.753-11.668-8.417c-3.72-4.666-5.732-9.7-5.61-13.25C90.072,6.526,82.152,2.792,73.849,0.828
		c-2.701,2.304-7.886,3.864-13.844,3.864c-5.972,0-11.167-1.567-13.864-3.88c-8.187,1.938-16.088,5.637-23.135,11.16
		c0.118,3.549-1.895,8.579-5.61,13.239c-3.724,4.668-8.188,7.752-11.677,8.419C2.02,41.502,0.093,50.06,0.013,58.674
		c2.852,2.119,5.53,6.83,6.857,12.644c1.327,5.82,0.956,11.23-0.695,14.375c1.875,3.8,4.17,7.463,6.92,10.912
		c2.748,3.446,5.806,6.496,9.091,9.169c3.434-0.911,8.792-0.069,14.169,2.521c5.376,2.59,9.373,6.251,10.804,9.502
		c8.414,1.839,17.185,1.866,25.682,0.013c1.426-3.254,5.427-6.922,10.808-9.513c5.375-2.588,10.729-3.43,14.162-2.522
		c6.951-5.641,12.314-12.521,16.025-20.069C112.18,82.561,111.807,77.145,113.136,71.322z"/>
	<circle fill="#FFFFFF" cx="60" cy="111.531" r="3.969"/>
</g>
</svg>
