<?xml version="1.0" encoding="utf-8"?>
<!-- Generator: Adobe Illustrator 16.0.0, SVG Export Plug-In . SVG Version: 6.00 Build 0)  -->
<!DOCTYPE svg PUBLIC "-//W3C//DTD SVG 1.1//EN" "http://www.w3.org/Graphics/SVG/1.1/DTD/svg11.dtd">
<svg version="1.1" id="Layer_1" xmlns="http://www.w3.org/2000/svg" xmlns:xlink="http://www.w3.org/1999/xlink" x="0px" y="0px"
	 width="100px" height="59.3px" viewBox="0 0 100 59.3" enable-background="new 0 0 100 59.3" xml:space="preserve">
<g>
	<path d="M94.3,1.3c0,12.1,0,24.1,0,36.2c0,9.1-6,16.6-15.6,16.6c-5.1,0-10.2,0-15.2,0c-13.8,0-27.6,0-41.4,0
		C13,54,5.7,47.9,5.7,38.5c0-6.3,0-12.6,0-18.8c0-6.1,0-12.2,0-18.4c0-0.9-1.4-0.9-1.4,0c0,12.1,0,24.1,0,36.2
		c0,7.2,3,13.2,9.6,16.5c4,2,8.8,1.5,13.1,1.5c14.8,0,29.7,0,44.5,0c4.4,0,8.9,0.4,13.1-0.9c7.1-2.2,11-9.3,11-16.3
		c0-12.3,0-24.6,0-36.9C95.7,0.4,94.3,0.4,94.3,1.3L94.3,1.3z"/>
	<path d="M49.3,6.6c0,17.4,0,34.7,0,52.1c0,0.9,1.4,0.9,1.4,0c0-17.4,0-34.7,0-52.1C50.7,5.7,49.3,5.7,49.3,6.6L49.3,6.6z"/>
	<g>
		<path d="M50,54.7c0-26.6-20.1-38.1-45-38.1V6.6C29.9,6.6,50,28.1,50,54.7"/>
		<path d="M50.7,54.7c-0.2-11.2-3.9-22.3-13.1-29.3c-4.4-3.4-9.3-5.6-14.6-7.2C21.1,17.7,5.7,15,5.7,16.2c0-1.9,0-3.7,0-5.6
			c0-1.1,0-2.1,0-3.2c0-1.3,0.6-0.2,2-0.2c7.7,0.4,15.1,3.3,21.5,7.6c13.1,8.8,19.9,24.4,20.1,39.8C49.3,55.6,50.7,55.6,50.7,54.7
			C50.3,29.1,31.5,6.3,5,5.9c-0.4,0-0.7,0.3-0.7,0.7c0,3.4,0,6.7,0,10.1c0,0.4,0.3,0.7,0.7,0.7c10.6,0.1,21.2,2,30.1,8
			c9.9,6.6,14,17.9,14.2,29.4C49.3,55.6,50.7,55.6,50.7,54.7L50.7,54.7z"/>
	</g>
	<g>
		<path d="M50,54.7c0-26.6,20.1-38.1,45-38.1V6.6C70.1,6.6,50,28.1,50,54.7"/>
		<path d="M50.7,54.7C50.8,43.4,54.7,33,64,26c8.7-6.6,20.3-8.5,31-8.6c0.4,0,0.7-0.3,0.7-0.7c0-3.4,0-6.7,0-10.1
			c0-0.4-0.3-0.7-0.7-0.7C68.5,6.3,49.7,29.1,49.3,54.7C49.3,55.6,50.7,55.6,50.7,54.7c0.2-15.8,7.2-30.5,20.1-39.8
			c5.9-4.2,12.9-6.7,20.1-7.5c0.9-0.1,3.3-0.3,3.3-0.4c0,0.9,0,1.8,0,2.8c0,2.2,0,4.3,0,6.5c0-1.2-14.3,1.3-16.1,1.7
			c-5.7,1.4-11.1,3.9-15.8,7.5c-9.2,7-12.9,18.1-13.1,29.3C49.3,55.6,50.7,55.6,50.7,54.7L50.7,54.7z"/>
	</g>
</g>
</svg>
