<?xml version="1.0" encoding="utf-8"?>
<!-- Generator: Adobe Illustrator 16.0.0, SVG Export Plug-In . SVG Version: 6.00 Build 0)  -->
<!DOCTYPE svg PUBLIC "-//W3C//DTD SVG 1.1//EN" "http://www.w3.org/Graphics/SVG/1.1/DTD/svg11.dtd">
<svg version="1.1" xmlns="http://www.w3.org/2000/svg" xmlns:xlink="http://www.w3.org/1999/xlink" x="0px" y="0px" width="460.5px"
	 height="127.6px" viewBox="0 0 460.5 127.6" enable-background="new 0 0 460.5 127.6" xml:space="preserve">
<g id="Layer_2">
	<rect x="-166.7" y="-169.1" display="none" fill="#191919" width="800" height="400"/>
	<g>
		<path fill="#FFFFFF" d="M95.5,33.9c-0.2,0-0.2-0.1-0.2-0.2c0-0.1,0-0.2,0.1-0.3l1.4-2.3c0.1-0.2,0.2-0.2,0.4-0.2
			c0.2,0,0.4,0.1,0.4,0.4v2.1h0.2c0.1,0,0.2,0.1,0.2,0.2s-0.1,0.2-0.2,0.2h-0.2v0.8c0,0.2-0.1,0.3-0.2,0.3s-0.2-0.1-0.2-0.3v-0.8
			H95.5z M97.1,33.5v-2h0l-1.2,2H97.1z"/>
	</g>
	<g>
		<path fill="#FFFFFF" d="M177.3,30.9c0.5,0,1,0.3,1,0.9c0,0.4-0.2,0.6-0.5,0.9c0.5,0.1,0.7,0.5,0.7,1c0,0.6-0.4,1.2-1.2,1.2
			s-1.2-0.6-1.2-1.2c0-0.5,0.3-0.9,0.7-1c-0.4-0.2-0.5-0.5-0.5-0.9C176.3,31.2,176.9,30.9,177.3,30.9z M177.3,34.5
			c0.4,0,0.7-0.3,0.7-0.8c0-0.4-0.2-0.8-0.7-0.8s-0.7,0.4-0.7,0.8C176.7,34.2,177,34.5,177.3,34.5z M177.3,32.5
			c0.3,0,0.5-0.2,0.5-0.6c0-0.3-0.2-0.6-0.5-0.6s-0.5,0.2-0.5,0.6C176.8,32.3,177,32.5,177.3,32.5z"/>
	</g>
	<g>
		<path fill="#414042" stroke="#FFFFFF" d="M176.5,26.6c-0.1-0.1-0.1-0.1-0.1-0.2c0-0.1,0.1-0.2,0.2-0.2c0.2,0,0.3,0.2,0.6,0.4
			c0-0.2-0.1-0.5-0.1-0.6c0-0.1,0.1-0.2,0.2-0.2s0.2,0.1,0.2,0.2c0,0.2-0.1,0.4-0.1,0.6c0.2-0.2,0.4-0.4,0.6-0.4
			c0.1,0,0.2,0.1,0.2,0.2c0,0.1,0,0.1-0.1,0.2l-0.5,0.2l0.5,0.2c0.1,0.1,0.1,0.1,0.1,0.2c0,0.1-0.1,0.2-0.2,0.2
			c-0.2,0-0.3-0.2-0.6-0.4c0,0.2,0.1,0.5,0.1,0.6c0,0.1-0.1,0.2-0.2,0.2s-0.2-0.1-0.2-0.2c0-0.2,0.1-0.4,0.1-0.6
			c-0.2,0.2-0.4,0.4-0.6,0.4c-0.1,0-0.2-0.1-0.2-0.2c0-0.1,0-0.1,0.1-0.2l0.5-0.2L176.5,26.6z"/>
	</g>
	<g>
		<path fill="#FFFFFF" d="M96.6,26.9c-0.5-0.2-1-0.3-1-1c0-0.4,0.4-0.9,1-1v-0.3c0-0.1,0-0.1,0.1-0.1c0.1,0,0.1,0,0.1,0.1v0.3
			c0.4,0,0.8,0.2,0.8,0.5c0,0.1-0.1,0.2-0.2,0.2c-0.2,0-0.3-0.2-0.6-0.3v1.2c0.5,0.2,1.1,0.4,1.1,1.1c0,0.6-0.4,1.1-1.1,1.2v0.3
			c0,0.1,0,0.1-0.1,0.1c-0.1,0-0.1,0-0.1-0.1v-0.3c-0.6,0-1.1-0.3-1.1-0.5c0-0.1,0.1-0.2,0.2-0.2c0.2,0,0.4,0.3,0.9,0.3V26.9z
			 M96.6,25.3c-0.3,0-0.5,0.3-0.5,0.6s0.2,0.4,0.5,0.6V25.3z M96.8,28.4c0.4-0.1,0.6-0.4,0.6-0.8c0-0.4-0.3-0.5-0.6-0.6V28.4z"/>
	</g>
</g>
<g id="Layer_1">
	<g>
		<path fill="none" stroke="#FFFFFF" stroke-width="0.25" stroke-linejoin="round" d="M2.9,118.6c0,3.1,2.5,5.7,5.7,5.7h443.2
			c3.1,0,5.7-2.5,5.7-5.7V8.9c0-3.1-2.5-5.7-5.7-5.7H8.5c-3.1,0-5.7,2.5-5.7,5.7V118.6z"/>
	</g>
	<path fill="#212121" stroke="#FFFFFF" stroke-width="0.25" stroke-linejoin="round" d="M25.5,16.5c0,1.1-0.9,2-2,2H9.8
		c-1.1,0-2-0.9-2-2V9.2c0-1.1,0.9-2,2-2h13.7c1.1,0,2,0.9,2,2V16.5z"/>
	<path fill="#212121" stroke="#FFFFFF" stroke-width="0.25" stroke-linejoin="round" d="M46.3,16.5c0,1.1-0.9,2-2,2H30.6
		c-1.1,0-2-0.9-2-2V9.2c0-1.1,0.9-2,2-2h13.7c1.1,0,2,0.9,2,2V16.5z"/>
	<path fill="#212121" stroke="#FFFFFF" stroke-width="0.25" stroke-linejoin="round" d="M67.2,16.5c0,1.1-0.9,2-2,2H51.4
		c-1.1,0-2-0.9-2-2V9.2c0-1.1,0.9-2,2-2h13.7c1.1,0,2,0.9,2,2V16.5z"/>
	<path fill="#212121" stroke="#FFFFFF" stroke-width="0.25" stroke-linejoin="round" d="M88,16.5c0,1.1-0.9,2-2,2H72.3
		c-1.1,0-2-0.9-2-2V9.2c0-1.1,0.9-2,2-2H86c1.1,0,2,0.9,2,2V16.5z"/>
	<path fill="#212121" stroke="#FFFFFF" stroke-width="0.25" stroke-linejoin="round" d="M108.8,16.5c0,1.1-0.9,2-2,2H93.1
		c-1.1,0-2-0.9-2-2V9.2c0-1.1,0.9-2,2-2h13.7c1.1,0,2,0.9,2,2V16.5z"/>
	<path fill="#212121" stroke="#FFFFFF" stroke-width="0.25" stroke-linejoin="round" d="M129.7,16.5c0,1.1-0.9,2-2,2h-13.7
		c-1.1,0-2-0.9-2-2V9.2c0-1.1,0.9-2,2-2h13.7c1.1,0,2,0.9,2,2V16.5z"/>
	<path fill="#212121" stroke="#FFFFFF" stroke-width="0.25" stroke-linejoin="round" d="M150.5,16.5c0,1.1-0.9,2-2,2h-13.7
		c-1.1,0-2-0.9-2-2V9.2c0-1.1,0.9-2,2-2h13.7c1.1,0,2,0.9,2,2V16.5z"/>
	<path fill="#212121" stroke="#FFFFFF" stroke-width="0.25" stroke-linejoin="round" d="M171.3,16.5c0,1.1-0.9,2-2,2h-13.7
		c-1.1,0-2-0.9-2-2V9.2c0-1.1,0.9-2,2-2h13.7c1.1,0,2,0.9,2,2V16.5z"/>
	<path fill="#212121" stroke="#FFFFFF" stroke-width="0.25" stroke-linejoin="round" d="M192.2,16.5c0,1.1-0.9,2-2,2h-13.7
		c-1.1,0-2-0.9-2-2V9.2c0-1.1,0.9-2,2-2h13.7c1.1,0,2,0.9,2,2V16.5z"/>
	<path fill="#212121" stroke="#FFFFFF" stroke-width="0.25" stroke-linejoin="round" d="M213,16.5c0,1.1-0.9,2-2,2h-13.7
		c-1.1,0-2-0.9-2-2V9.2c0-1.1,0.9-2,2-2H211c1.1,0,2,0.9,2,2V16.5z"/>
	<path fill="#212121" stroke="#FFFFFF" stroke-width="0.25" stroke-linejoin="round" d="M233.8,16.5c0,1.1-0.9,2-2,2h-13.7
		c-1.1,0-2-0.9-2-2V9.2c0-1.1,0.9-2,2-2h13.7c1.1,0,2,0.9,2,2V16.5z"/>
	<path fill="#212121" stroke="#FFFFFF" stroke-width="0.25" stroke-linejoin="round" d="M254.7,16.5c0,1.1-0.9,2-2,2h-13.7
		c-1.1,0-2-0.9-2-2V9.2c0-1.1,0.9-2,2-2h13.7c1.1,0,2,0.9,2,2V16.5z"/>
	<path fill="#212121" stroke="#FFFFFF" stroke-width="0.25" stroke-linejoin="round" d="M275.5,16.5c0,1.1-0.9,2-2,2h-13.7
		c-1.1,0-2-0.9-2-2V9.2c0-1.1,0.9-2,2-2h13.7c1.1,0,2,0.9,2,2V16.5z"/>
	<path fill="#212121" stroke="#FFFFFF" stroke-width="0.25" stroke-linejoin="round" d="M296.3,16.5c0,1.1-0.9,2-2,2h-13.7
		c-1.1,0-2-0.9-2-2V9.2c0-1.1,0.9-2,2-2h13.7c1.1,0,2,0.9,2,2V16.5z"/>
	<path fill="#212121" stroke="#FFFFFF" stroke-width="0.25" stroke-linejoin="round" d="M324.3,16.5c0,1.1-0.9,2-2,2h-13.7
		c-1.1,0-2-0.9-2-2V9.2c0-1.1,0.9-2,2-2h13.7c1.1,0,2,0.9,2,2V16.5z"/>
	<path fill="#212121" stroke="#FFFFFF" stroke-width="0.25" stroke-linejoin="round" d="M344.9,16.5c0,1.1-0.9,2-2,2h-13.7
		c-1.1,0-2-0.9-2-2V9.2c0-1.1,0.9-2,2-2h13.7c1.1,0,2,0.9,2,2V16.5z"/>
	<path fill="#212121" stroke="#FFFFFF" stroke-width="0.25" stroke-linejoin="round" d="M365.4,16.5c0,1.1-0.9,2-2,2h-13.7
		c-1.1,0-2-0.9-2-2V9.2c0-1.1,0.9-2,2-2h13.7c1.1,0,2,0.9,2,2V16.5z"/>
	<path fill="#212121" stroke="#FFFFFF" stroke-width="0.25" stroke-linejoin="round" d="M393.3,16.5c0,1.1-0.9,2-2,2h-13.7
		c-1.1,0-2-0.9-2-2V9.2c0-1.1,0.9-2,2-2h13.7c1.1,0,2,0.9,2,2V16.5z"/>
	<path fill="#212121" stroke="#FFFFFF" stroke-width="0.25" stroke-linejoin="round" d="M413.3,16.5c0,1.1-0.9,2-2,2h-13.7
		c-1.1,0-2-0.9-2-2V9.2c0-1.1,0.9-2,2-2h13.7c1.1,0,2,0.9,2,2V16.5z"/>
	<path fill="#212121" stroke="#FFFFFF" stroke-width="0.25" stroke-linejoin="round" d="M433.3,16.5c0,1.1-0.9,2-2,2h-13.7
		c-1.1,0-2-0.9-2-2V9.2c0-1.1,0.9-2,2-2h13.7c1.1,0,2,0.9,2,2V16.5z"/>
	<path fill="#212121" stroke="#FFFFFF" stroke-width="0.25" stroke-linejoin="round" d="M453.3,16.5c0,1.1-0.9,2-2,2h-13.7
		c-1.1,0-2-0.9-2-2V9.2c0-1.1,0.9-2,2-2h13.7c1.1,0,2,0.9,2,2V16.5z"/>
	<path fill="#212121" stroke="#FFFFFF" stroke-width="0.25" stroke-linejoin="round" d="M24.9,36.3c0,1.1-0.9,2-2,2H9.3
		c-1.1,0-2-0.9-2-2V23.7c0-1.1,0.9-2,2-2h13.6c1.1,0,2,0.9,2,2V36.3z"/>
	<path fill="#212121" stroke="#FFFFFF" stroke-width="0.25" stroke-linejoin="round" d="M45.1,36.3c0,1.1-0.9,2-2,2H29.5
		c-1.1,0-2-0.9-2-2V23.7c0-1.1,0.9-2,2-2h13.6c1.1,0,2,0.9,2,2V36.3z"/>
	<path stroke="#6D6E71" stroke-width="0.25" stroke-linejoin="round" d="M65.3,36.3c0,1.1-0.9,2-2,2H49.7c-1.1,0-2-0.9-2-2V23.7
		c0-1.1,0.9-2,2-2h13.6c1.1,0,2,0.9,2,2V36.3z"/>
	<path stroke="#6D6E71" stroke-width="0.25" stroke-linejoin="round" d="M85.5,36.3c0,1.1-0.9,2-2,2H69.8c-1.1,0-2-0.9-2-2V23.7
		c0-1.1,0.9-2,2-2h13.6c1.1,0,2,0.9,2,2V36.3z"/>
	<path fill="#212121" stroke="#FFFFFF" stroke-width="0.25" stroke-linejoin="round" d="M105.7,36.3c0,1.1-0.9,2-2,2H90
		c-1.1,0-2-0.9-2-2V23.7c0-1.1,0.9-2,2-2h13.6c1.1,0,2,0.9,2,2V36.3z"/>
	<path stroke="#6D6E71" stroke-width="0.25" stroke-linejoin="round" d="M125.9,36.3c0,1.1-0.9,2-2,2h-13.6c-1.1,0-2-0.9-2-2V23.7
		c0-1.1,0.9-2,2-2h13.6c1.1,0,2,0.9,2,2V36.3z"/>
	<path stroke="#6D6E71" stroke-width="0.25" stroke-linejoin="round" d="M146,36.3c0,1.1-0.9,2-2,2h-13.6c-1.1,0-2-0.9-2-2V23.7
		c0-1.1,0.9-2,2-2H144c1.1,0,2,0.9,2,2V36.3z"/>
	<path stroke="#6D6E71" stroke-width="0.25" stroke-linejoin="round" d="M166.2,36.3c0,1.1-0.9,2-2,2h-13.6c-1.1,0-2-0.9-2-2V23.7
		c0-1.1,0.9-2,2-2h13.6c1.1,0,2,0.9,2,2V36.3z"/>
	<path fill="#212121" stroke="#FFFFFF" stroke-width="0.25" stroke-linejoin="round" d="M186.4,36.3c0,1.1-0.9,2-2,2h-13.6
		c-1.1,0-2-0.9-2-2V23.7c0-1.1,0.9-2,2-2h13.6c1.1,0,2,0.9,2,2V36.3z"/>
	<path stroke="#6D6E71" stroke-width="0.25" stroke-linejoin="round" d="M206.6,36.3c0,1.1-0.9,2-2,2h-13.6c-1.1,0-2-0.9-2-2V23.7
		c0-1.1,0.9-2,2-2h13.6c1.1,0,2,0.9,2,2V36.3z"/>
	<path fill="#212121" stroke="#FFFFFF" stroke-width="0.25" stroke-linejoin="round" d="M226.8,36.3c0,1.1-0.9,2-2,2h-13.6
		c-1.1,0-2-0.9-2-2V23.7c0-1.1,0.9-2,2-2h13.6c1.1,0,2,0.9,2,2V36.3z"/>
	<path fill="#212121" stroke="#FFFFFF" stroke-width="0.25" stroke-linejoin="round" d="M247,36.3c0,1.1-0.9,2-2,2h-13.6
		c-1.1,0-2-0.9-2-2V23.7c0-1.1,0.9-2,2-2h13.6c1.1,0,2,0.9,2,2V36.3z"/>
	<path fill="#212121" stroke="#FFFFFF" stroke-width="0.25" stroke-linejoin="round" d="M267.1,36.3c0,1.1-0.9,2-2,2h-13.6
		c-1.1,0-2-0.9-2-2V23.7c0-1.1,0.9-2,2-2h13.6c1.1,0,2,0.9,2,2V36.3z"/>
	<path fill="#FFFFFF" stroke="#6D6E71" stroke-width="0.25" stroke-linejoin="round" d="M54.5,56c0,1.1-0.9,2-2,2H38.8
		c-1.1,0-2-0.9-2-2V43.5c0-1.1,0.9-2,2-2h13.6c1.1,0,2,0.9,2,2V56z"/>
	<path fill="#FFFFFF" stroke="#6D6E71" stroke-width="0.25" stroke-linejoin="round" d="M74.7,56c0,1.1-0.9,2-2,2H59
		c-1.1,0-2-0.9-2-2V43.5c0-1.1,0.9-2,2-2h13.6c1.1,0,2,0.9,2,2V56z"/>
	<path fill="#FFFFFF" stroke="#6D6E71" stroke-width="0.25" stroke-linejoin="round" d="M94.9,56c0,1.1-0.9,2-2,2H79.2
		c-1.1,0-2-0.9-2-2V43.5c0-1.1,0.9-2,2-2h13.6c1.1,0,2,0.9,2,2V56z"/>
	<path fill="#FFFFFF" stroke="#6D6E71" stroke-width="0.25" stroke-linejoin="round" d="M115,56c0,1.1-0.9,2-2,2H99.4
		c-1.1,0-2-0.9-2-2V43.5c0-1.1,0.9-2,2-2H113c1.1,0,2,0.9,2,2V56z"/>
	<path fill="#FFFFFF" stroke="#6D6E71" stroke-width="0.25" stroke-linejoin="round" d="M135.2,56c0,1.1-0.9,2-2,2h-13.6
		c-1.1,0-2-0.9-2-2V43.5c0-1.1,0.9-2,2-2h13.6c1.1,0,2,0.9,2,2V56z"/>
	<path fill="#FFFFFF" stroke="#6D6E71" stroke-width="0.25" stroke-linejoin="round" d="M155.4,56c0,1.1-0.9,2-2,2h-13.6
		c-1.1,0-2-0.9-2-2V43.5c0-1.1,0.9-2,2-2h13.6c1.1,0,2,0.9,2,2V56z"/>
	<path fill="#FFFFFF" stroke="#6D6E71" stroke-width="0.25" stroke-linejoin="round" d="M175.6,56c0,1.1-0.9,2-2,2h-13.6
		c-1.1,0-2-0.9-2-2V43.5c0-1.1,0.9-2,2-2h13.6c1.1,0,2,0.9,2,2V56z"/>
	<path fill="#FFFFFF" stroke="#6D6E71" stroke-width="0.25" stroke-linejoin="round" d="M195.8,56c0,1.1-0.9,2-2,2h-13.6
		c-1.1,0-2-0.9-2-2V43.5c0-1.1,0.9-2,2-2h13.6c1.1,0,2,0.9,2,2V56z"/>
	<path fill="#FFFEFE" stroke="#6D6E71" stroke-width="0.25" stroke-linejoin="round" d="M216,56c0,1.1-0.9,2-2,2h-13.6
		c-1.1,0-2-0.9-2-2V43.5c0-1.1,0.9-2,2-2h13.6c1.1,0,2,0.9,2,2V56z"/>
	<path fill="#212121" stroke="#FFFFFF" stroke-width="0.25" stroke-linejoin="round" d="M236.1,56c0,1.1-0.9,2-2,2h-13.6
		c-1.1,0-2-0.9-2-2V43.5c0-1.1,0.9-2,2-2h13.6c1.1,0,2,0.9,2,2V56z"/>
	<path fill="#212121" stroke="#FFFFFF" stroke-width="0.25" stroke-linejoin="round" d="M256.3,56c0,1.1-0.9,2-2,2h-13.6
		c-1.1,0-2-0.9-2-2V43.5c0-1.1,0.9-2,2-2h13.6c1.1,0,2,0.9,2,2V56z"/>
	<path fill="#212121" stroke="#FFFFFF" stroke-width="0.25" stroke-linejoin="round" d="M276.5,56c0,1.1-0.9,2-2,2h-13.6
		c-1.1,0-2-0.9-2-2V43.5c0-1.1,0.9-2,2-2h13.6c1.1,0,2,0.9,2,2V56z"/>
	<path fill="#212121" stroke="#FFFFFF" stroke-width="0.25" stroke-linejoin="round" d="M59.7,75.8c0,1.1-0.9,2-2,2H44.1
		c-1.1,0-2-0.9-2-2V63.2c0-1.1,0.9-2,2-2h13.6c1.1,0,2,0.9,2,2V75.8z"/>
	<path stroke="#6D6E71" stroke-width="0.25" stroke-linejoin="round" d="M79.9,75.8c0,1.1-0.9,2-2,2H64.3c-1.1,0-2-0.9-2-2V63.2
		c0-1.1,0.9-2,2-2h13.6c1.1,0,2,0.9,2,2V75.8z"/>
	<path stroke="#6D6E71" stroke-width="0.25" stroke-linejoin="round" d="M100.1,75.8c0,1.1-0.9,2-2,2H84.4c-1.1,0-2-0.9-2-2V63.2
		c0-1.1,0.9-2,2-2h13.6c1.1,0,2,0.9,2,2V75.8z"/>
	<path fill="#212121" stroke="#FFFFFF" stroke-width="0.25" stroke-linejoin="round" d="M120.3,75.8c0,1.1-0.9,2-2,2h-13.6
		c-1.1,0-2-0.9-2-2V63.2c0-1.1,0.9-2,2-2h13.6c1.1,0,2,0.9,2,2V75.8z"/>
	<path stroke="#6D6E71" stroke-width="0.25" stroke-linejoin="round" d="M140.5,75.8c0,1.1-0.9,2-2,2h-13.6c-1.1,0-2-0.9-2-2V63.2
		c0-1.1,0.9-2,2-2h13.6c1.1,0,2,0.9,2,2V75.8z"/>
	<path stroke="#6D6E71" stroke-width="0.25" stroke-linejoin="round" d="M160.7,75.8c0,1.1-0.9,2-2,2H145c-1.1,0-2-0.9-2-2V63.2
		c0-1.1,0.9-2,2-2h13.6c1.1,0,2,0.9,2,2V75.8z"/>
	<path stroke="#6D6E71" stroke-width="0.25" stroke-linejoin="round" d="M180.8,75.8c0,1.1-0.9,2-2,2h-13.6c-1.1,0-2-0.9-2-2V63.2
		c0-1.1,0.9-2,2-2h13.6c1.1,0,2,0.9,2,2V75.8z"/>
	<path fill="#212121" stroke="#FFFFFF" stroke-width="0.25" stroke-linejoin="round" d="M201,75.8c0,1.1-0.9,2-2,2h-13.6
		c-1.1,0-2-0.9-2-2V63.2c0-1.1,0.9-2,2-2H199c1.1,0,2,0.9,2,2V75.8z"/>
	<path fill="#212121" stroke="#FFFFFF" stroke-width="0.25" stroke-linejoin="round" d="M221.2,75.8c0,1.1-0.9,2-2,2h-13.6
		c-1.1,0-2-0.9-2-2V63.2c0-1.1,0.9-2,2-2h13.6c1.1,0,2,0.9,2,2V75.8z"/>
	<path fill="#212121" stroke="#FFFFFF" stroke-width="0.25" stroke-linejoin="round" d="M241.4,75.8c0,1.1-0.9,2-2,2h-13.6
		c-1.1,0-2-0.9-2-2V63.2c0-1.1,0.9-2,2-2h13.6c1.1,0,2,0.9,2,2V75.8z"/>
	<path fill="#212121" stroke="#FFFFFF" stroke-width="0.25" stroke-linejoin="round" d="M261.6,75.8c0,1.1-0.9,2-2,2h-13.6
		c-1.1,0-2-0.9-2-2V63.2c0-1.1,0.9-2,2-2h13.6c1.1,0,2,0.9,2,2V75.8z"/>
	<path fill="#FFFFFF" stroke="#6D6E71" stroke-width="0.25" stroke-linejoin="round" d="M69.1,95.5c0,1.1-0.9,2-2,2H53.4
		c-1.1,0-2-0.9-2-2V83c0-1.1,0.9-2,2-2h13.6c1.1,0,2,0.9,2,2V95.5z"/>
	<path fill="#FFFFFF" stroke="#6D6E71" stroke-width="0.25" stroke-linejoin="round" d="M89.3,95.5c0,1.1-0.9,2-2,2H73.6
		c-1.1,0-2-0.9-2-2V83c0-1.1,0.9-2,2-2h13.6c1.1,0,2,0.9,2,2V95.5z"/>
	<path fill="#FFFFFF" stroke="#6D6E71" stroke-width="0.25" stroke-linejoin="round" d="M109.4,95.5c0,1.1-0.9,2-2,2H93.8
		c-1.1,0-2-0.9-2-2V83c0-1.1,0.9-2,2-2h13.6c1.1,0,2,0.9,2,2V95.5z"/>
	<path fill="#FFFFFF" stroke="#6D6E71" stroke-width="0.25" stroke-linejoin="round" d="M129.6,95.5c0,1.1-0.9,2-2,2H114
		c-1.1,0-2-0.9-2-2V83c0-1.1,0.9-2,2-2h13.6c1.1,0,2,0.9,2,2V95.5z"/>
	<path fill="#FFFFFF" stroke="#6D6E71" stroke-width="0.25" stroke-linejoin="round" d="M149.8,95.5c0,1.1-0.9,2-2,2h-13.6
		c-1.1,0-2-0.9-2-2V83c0-1.1,0.9-2,2-2h13.6c1.1,0,2,0.9,2,2V95.5z"/>
	<path fill="#FFFFFF" stroke="#6D6E71" stroke-width="0.25" stroke-linejoin="round" d="M170,95.5c0,1.1-0.9,2-2,2h-13.6
		c-1.1,0-2-0.9-2-2V83c0-1.1,0.9-2,2-2H168c1.1,0,2,0.9,2,2V95.5z"/>
	<path fill="#FFFFFF" stroke="#6D6E71" stroke-width="0.25" stroke-linejoin="round" d="M190.2,95.5c0,1.1-0.9,2-2,2h-13.6
		c-1.1,0-2-0.9-2-2V83c0-1.1,0.9-2,2-2h13.6c1.1,0,2,0.9,2,2V95.5z"/>
	<path fill="#212121" stroke="#FFFFFF" stroke-width="0.25" stroke-linejoin="round" d="M210.4,95.5c0,1.1-0.9,2-2,2h-13.6
		c-1.1,0-2-0.9-2-2V83c0-1.1,0.9-2,2-2h13.6c1.1,0,2,0.9,2,2V95.5z"/>
	<path fill="#212121" stroke="#FFFFFF" stroke-width="0.25" stroke-linejoin="round" d="M230.5,95.5c0,1.1-0.9,2-2,2h-13.6
		c-1.1,0-2-0.9-2-2V83c0-1.1,0.9-2,2-2h13.6c1.1,0,2,0.9,2,2V95.5z"/>
	<path fill="#212121" stroke="#FFFFFF" stroke-width="0.25" stroke-linejoin="round" d="M250.7,95.5c0,1.1-0.9,2-2,2h-13.6
		c-1.1,0-2-0.9-2-2V83c0-1.1,0.9-2,2-2h13.6c1.1,0,2,0.9,2,2V95.5z"/>
	<path fill="#212121" stroke="#FFFFFF" stroke-width="0.25" stroke-linejoin="round" d="M324.7,36.3c0,1.1-0.9,2-2,2H309
		c-1.1,0-2-0.9-2-2V23.7c0-1.1,0.9-2,2-2h13.6c1.1,0,2,0.9,2,2V36.3z"/>
	<path fill="#212121" stroke="#FFFFFF" stroke-width="0.25" stroke-linejoin="round" d="M344.8,36.3c0,1.1-0.9,2-2,2h-13.6
		c-1.1,0-2-0.9-2-2V23.7c0-1.1,0.9-2,2-2h13.6c1.1,0,2,0.9,2,2V36.3z"/>
	<path fill="#212121" stroke="#FFFFFF" stroke-width="0.25" stroke-linejoin="round" d="M365,36.3c0,1.1-0.9,2-2,2h-13.6
		c-1.1,0-2-0.9-2-2V23.7c0-1.1,0.9-2,2-2H363c1.1,0,2,0.9,2,2V36.3z"/>
	<path fill="#212121" stroke="#FFFFFF" stroke-width="0.25" stroke-linejoin="round" d="M324.7,56c0,1.1-0.9,2-2,2H309
		c-1.1,0-2-0.9-2-2V43.5c0-1.1,0.9-2,2-2h13.6c1.1,0,2,0.9,2,2V56z"/>
	<path fill="#212121" stroke="#FFFFFF" stroke-width="0.25" stroke-linejoin="round" d="M344.8,56c0,1.1-0.9,2-2,2h-13.6
		c-1.1,0-2-0.9-2-2V43.5c0-1.1,0.9-2,2-2h13.6c1.1,0,2,0.9,2,2V56z"/>
	<path fill="#212121" stroke="#FFFFFF" stroke-width="0.25" stroke-linejoin="round" d="M365,56c0,1.1-0.9,2-2,2h-13.6
		c-1.1,0-2-0.9-2-2V43.5c0-1.1,0.9-2,2-2H363c1.1,0,2,0.9,2,2V56z"/>
	<path fill="#212121" stroke="#FFFFFF" stroke-width="0.25" stroke-linejoin="round" d="M324.7,118c0,1.1-0.9,2-2,2H309
		c-1.1,0-2-0.9-2-2v-12.6c0-1.1,0.9-2,2-2h13.6c1.1,0,2,0.9,2,2V118z"/>
	<path fill="#212121" stroke="#FFFFFF" stroke-width="0.25" stroke-linejoin="round" d="M344.8,118c0,1.1-0.9,2-2,2h-13.6
		c-1.1,0-2-0.9-2-2v-12.6c0-1.1,0.9-2,2-2h13.6c1.1,0,2,0.9,2,2V118z"/>
	<path fill="#212121" stroke="#FFFFFF" stroke-width="0.25" stroke-linejoin="round" d="M365,118c0,1.1-0.9,2-2,2h-13.6
		c-1.1,0-2-0.9-2-2v-12.6c0-1.1,0.9-2,2-2H363c1.1,0,2,0.9,2,2V118z"/>
	<path fill="#212121" stroke="#FFFFFF" stroke-width="0.25" stroke-linejoin="round" d="M344.8,98.3c0,1.1-0.9,2-2,2h-13.6
		c-1.1,0-2-0.9-2-2V85.8c0-1.1,0.9-2,2-2h13.6c1.1,0,2,0.9,2,2V98.3z"/>
	<path fill="#212121" stroke="#FFFFFF" stroke-width="0.25" stroke-linejoin="round" d="M40.5,75.8c0,1.1-0.9,2-2,2H9.4
		c-1.1,0-2-0.9-2-2V63.2c0-1.1,0.9-2,2-2h29.1c1.1,0,2,0.9,2,2V75.8z"/>
	<path fill="#212121" stroke="#FFFFFF" stroke-width="0.25" stroke-linejoin="round" d="M296.3,75.8c0,1.1-0.9,2-2,2h-29.1
		c-1.1,0-2-0.9-2-2V63.2c0-1.1,0.9-2,2-2h29.1c1.1,0,2,0.9,2,2V75.8z"/>
	<path fill="#212121" stroke="#FFFFFF" stroke-width="0.25" stroke-linejoin="round" d="M35.3,56c0,1.1-0.9,2-2,2H9.6
		c-1.1,0-2-0.9-2-2V43.5c0-1.1,0.9-2,2-2h23.7c1.1,0,2,0.9,2,2V56z"/>
	<path fill="#212121" stroke="#FFFFFF" stroke-width="0.25" stroke-linejoin="round" d="M296.3,36.3c0,1.1-0.9,2-2,2h-23.7
		c-1.1,0-2-0.9-2-2V23.7c0-1.1,0.9-2,2-2h23.7c1.1,0,2,0.9,2,2V36.3z"/>
	<path fill="#212121" stroke="#FFFFFF" stroke-width="0.25" stroke-linejoin="round" d="M50.2,95.5c0,1.1-0.9,2-2,2H9.4
		c-1.1,0-2-0.9-2-2V83c0-1.1,0.9-2,2-2h38.8c1.1,0,2,0.9,2,2V95.5z"/>
	<path fill="#212121" stroke="#FFFFFF" stroke-width="0.25" stroke-linejoin="round" d="M35.1,118.4c0,1.1-0.9,2-2,2H9.4
		c-1.1,0-2-0.9-2-2v-15.9c0-1.1,0.9-2,2-2h23.7c1.1,0,2,0.9,2,2V118.4z"/>
	<path fill="#212121" stroke="#FFFFFF" stroke-width="0.25" stroke-linejoin="round" d="M90,118.4c0,1.1-0.9,2-2,2H64.3
		c-1.1,0-2-0.9-2-2v-15.9c0-1.1,0.9-2,2-2H88c1.1,0,2,0.9,2,2V118.4z"/>
	<path fill="#212121" stroke="#FFFFFF" stroke-width="0.25" stroke-linejoin="round" d="M210.8,118.4c0,1.1-0.9,2-2,2H94.4
		c-1.1,0-2-0.9-2-2v-15.9c0-1.1,0.9-2,2-2h114.5c1.1,0,2,0.9,2,2V118.4z"/>
	<path fill="#212121" stroke="#FFFFFF" stroke-width="0.25" stroke-linejoin="round" d="M60.2,118.4c0,1.1-0.9,2-2,2H39
		c-1.1,0-2-0.9-2-2v-15.9c0-1.1,0.9-2,2-2h19.2c1.1,0,2,0.9,2,2V118.4z"/>
	<g>
		<path fill="#212121" stroke="#FFFFFF" stroke-width="0.25" stroke-linejoin="round" d="M296.3,118.4c0,1.1-0.9,2-2,2h-23.7
			c-1.1,0-2-0.9-2-2v-15.9c0-1.1,0.9-2,2-2h23.7c1.1,0,2,0.9,2,2V118.4z"/>
	</g>
	<path fill="#212121" stroke="#FFFFFF" stroke-width="0.25" stroke-linejoin="round" d="M412.8,118.4c0,1.1-0.9,2-2,2h-33.6
		c-1.1,0-2-0.9-2-2v-15.9c0-1.1,0.9-2,2-2h33.6c1.1,0,2,0.9,2,2V118.4z"/>
	<path fill="#212121" stroke="#FFFFFF" stroke-width="0.25" stroke-linejoin="round" d="M432.8,118.4c0,1.1-0.9,2-2,2h-13.2
		c-1.1,0-2-0.9-2-2v-15.9c0-1.1,0.9-2,2-2h13.2c1.1,0,2,0.9,2,2V118.4z"/>
	<path fill="#212121" stroke="#FFFFFF" stroke-width="0.25" stroke-linejoin="round" d="M452.9,118.9c0,1.1-0.9,2-2,2h-13.2
		c-1.1,0-2-0.9-2-2V83c0-1.1,0.9-2,2-2h13.2c1.1,0,2,0.9,2,2V118.9z"/>
	<path fill="#212121" stroke="#FFFFFF" stroke-width="0.25" stroke-linejoin="round" d="M240.6,118.4c0,1.1-0.9,2-2,2h-23.7
		c-1.1,0-2-0.9-2-2v-15.9c0-1.1,0.9-2,2-2h23.7c1.1,0,2,0.9,2,2V118.4z"/>
	<path fill="#212121" stroke="#FFFFFF" stroke-width="0.25" stroke-linejoin="round" d="M265.9,118.4c0,1.1-0.9,2-2,2h-19.2
		c-1.1,0-2-0.9-2-2v-15.9c0-1.1,0.9-2,2-2h19.2c1.1,0,2,0.9,2,2V118.4z"/>
	<path fill="#212121" stroke="#FFFFFF" stroke-width="0.25" stroke-linejoin="round" d="M393.3,36.9c0,1.1-0.9,2-2,2h-13.6
		c-1.1,0-2-0.9-2-2V24.3c0-1.1,0.9-2,2-2h13.6c1.1,0,2,0.9,2,2V36.9z"/>
	<path fill="#212121" stroke="#FFFFFF" stroke-width="0.25" stroke-linejoin="round" d="M413.5,36.9c0,1.1-0.9,2-2,2h-13.6
		c-1.1,0-2-0.9-2-2V24.3c0-1.1,0.9-2,2-2h13.6c1.1,0,2,0.9,2,2V36.9z"/>
	<path fill="#212121" stroke="#FFFFFF" stroke-width="0.25" stroke-linejoin="round" d="M433.7,36.9c0,1.1-0.9,2-2,2H418
		c-1.1,0-2-0.9-2-2V24.3c0-1.1,0.9-2,2-2h13.6c1.1,0,2,0.9,2,2V36.9z"/>
	<path fill="#212121" stroke="#FFFFFF" stroke-width="0.25" stroke-linejoin="round" d="M453.8,36.9c0,1.1-0.9,2-2,2h-13.6
		c-1.1,0-2-0.9-2-2V24.3c0-1.1,0.9-2,2-2h13.6c1.1,0,2,0.9,2,2V36.9z"/>
	<path fill="#212121" stroke="#FFFFFF" stroke-width="0.25" stroke-linejoin="round" d="M393.3,56c0,1.1-0.9,2-2,2h-13.6
		c-1.1,0-2-0.9-2-2V43.5c0-1.1,0.9-2,2-2h13.6c1.1,0,2,0.9,2,2V56z"/>
	<path fill="#212121" stroke="#FFFFFF" stroke-width="0.25" stroke-linejoin="round" d="M413.5,56c0,1.1-0.9,2-2,2h-13.6
		c-1.1,0-2-0.9-2-2V43.5c0-1.1,0.9-2,2-2h13.6c1.1,0,2,0.9,2,2V56z"/>
	<path fill="#212121" stroke="#FFFFFF" stroke-width="0.25" stroke-linejoin="round" d="M433.7,56c0,1.1-0.9,2-2,2H418
		c-1.1,0-2-0.9-2-2V43.5c0-1.1,0.9-2,2-2h13.6c1.1,0,2,0.9,2,2V56z"/>
	<path fill="#212121" stroke="#FFFFFF" stroke-width="0.25" stroke-linejoin="round" d="M453.8,56c0,1.1-0.9,2-2,2h-13.6
		c-1.1,0-2-0.9-2-2V43.5c0-1.1,0.9-2,2-2h13.6c1.1,0,2,0.9,2,2V56z"/>
	<path fill="#212121" stroke="#FFFFFF" stroke-width="0.25" stroke-linejoin="round" d="M393.3,75.8c0,1.1-0.9,2-2,2h-13.6
		c-1.1,0-2-0.9-2-2V63.2c0-1.1,0.9-2,2-2h13.6c1.1,0,2,0.9,2,2V75.8z"/>
	<path fill="#212121" stroke="#FFFFFF" stroke-width="0.25" stroke-linejoin="round" d="M413.5,75.8c0,1.1-0.9,2-2,2h-13.6
		c-1.1,0-2-0.9-2-2V63.2c0-1.1,0.9-2,2-2h13.6c1.1,0,2,0.9,2,2V75.8z"/>
	<path fill="#212121" stroke="#FFFFFF" stroke-width="0.25" stroke-linejoin="round" d="M433.7,75.8c0,1.1-0.9,2-2,2H418
		c-1.1,0-2-0.9-2-2V63.2c0-1.1,0.9-2,2-2h13.6c1.1,0,2,0.9,2,2V75.8z"/>
	<path fill="#212121" stroke="#FFFFFF" stroke-width="0.25" stroke-linejoin="round" d="M393.3,95.5c0,1.1-0.9,2-2,2h-13.6
		c-1.1,0-2-0.9-2-2V83c0-1.1,0.9-2,2-2h13.6c1.1,0,2,0.9,2,2V95.5z"/>
	<path fill="#212121" stroke="#FFFFFF" stroke-width="0.25" stroke-linejoin="round" d="M413.5,95.5c0,1.1-0.9,2-2,2h-13.6
		c-1.1,0-2-0.9-2-2V83c0-1.1,0.9-2,2-2h13.6c1.1,0,2,0.9,2,2V95.5z"/>
	<path fill="#212121" stroke="#FFFFFF" stroke-width="0.25" stroke-linejoin="round" d="M433.7,95.5c0,1.1-0.9,2-2,2H418
		c-1.1,0-2-0.9-2-2V83c0-1.1,0.9-2,2-2h13.6c1.1,0,2,0.9,2,2V95.5z"/>
	<path fill="#212121" stroke="#FFFFFF" stroke-width="0.25" stroke-linejoin="round" d="M453.8,75.8c0,1.1-0.9,2-2,2h-13.6
		c-1.1,0-2-0.9-2-2V63.2c0-1.1,0.9-2,2-2h13.6c1.1,0,2,0.9,2,2V75.8z"/>
	<path fill-rule="evenodd" clip-rule="evenodd" fill="#FFFFFF" d="M13.8,12.9H15c0.1,0,0.2-0.1,0.2-0.2c0-0.5-0.3-1-0.8-1
		c-0.5,0-0.9,0.5-0.9,1c0,0.5,0.3,1,0.9,1c0.4,0,0.8-0.3,0.8-0.4c0-0.1-0.1-0.1-0.1-0.1c-0.1,0-0.1,0.1-0.2,0.1
		c-0.1,0.1-0.2,0.1-0.4,0.1C14,13.5,13.8,13.2,13.8,12.9 M14.8,12.6h-1.1c0-0.3,0.2-0.6,0.6-0.6C14.7,12,14.8,12.3,14.8,12.6z"/>
	<path fill="#FFFFFF" d="M16.8,13.1c0-0.2-0.1-0.3-0.2-0.4c-0.1-0.1-0.3-0.1-0.5-0.2c-0.1-0.1-0.3-0.1-0.3-0.3
		c0-0.2,0.2-0.3,0.3-0.3c0.2,0,0.3,0.1,0.3,0.1c0.1,0,0.1,0.1,0.2,0.1c0.1,0,0.1-0.1,0.1-0.1c0-0.2-0.4-0.3-0.6-0.3
		c-0.3,0-0.7,0.2-0.7,0.6c0,0.2,0.1,0.3,0.2,0.4c0.2,0.1,0.4,0.2,0.6,0.3c0.1,0.1,0.2,0.1,0.2,0.3c0,0.1-0.1,0.3-0.4,0.3
		c-0.2,0-0.3-0.1-0.4-0.1c-0.1,0-0.1-0.1-0.2-0.1c-0.1,0-0.1,0.1-0.1,0.1c0,0.2,0.3,0.4,0.7,0.4C16.5,13.8,16.8,13.6,16.8,13.1"/>
	<path fill="#FFFFFF" d="M18.5,12c0-0.1-0.2-0.2-0.5-0.2c-0.6,0-0.9,0.5-0.9,1c0,0.5,0.3,1,0.9,1c0.3,0,0.5-0.1,0.5-0.3
		c0-0.1,0-0.1-0.1-0.1c0,0-0.1,0-0.1,0.1c-0.1,0-0.1,0.1-0.2,0.1c-0.4,0-0.6-0.4-0.6-0.8c0-0.3,0.2-0.8,0.6-0.8c0.1,0,0.2,0,0.2,0.1
		c0.1,0,0.1,0,0.2,0C18.5,12.1,18.5,12,18.5,12"/>
	<path fill="#FFFFFF" d="M42.7,15h0.5c0.1,0,0.1,0,0.1-0.1c0-0.1,0-0.1-0.1-0.1h-0.6c-0.1,0-0.1,0-0.1,0.1v1.5c0,0.1,0,0.1,0.1,0.1
		c0.1,0,0.1,0,0.1-0.1v-0.7h0.5c0.1,0,0.1,0,0.1-0.1c0-0.1,0-0.1-0.1-0.1h-0.5V15"/>
	<path fill="#FFFFFF" d="M43.9,15v1.4c0,0.1,0,0.1,0.1,0.1s0.1,0,0.1-0.1v-1.5c0,0,0,0-0.1,0h-0.3c0,0-0.1,0-0.1,0.1
		c0,0.1,0,0.1,0.1,0.1H43.9"/>
	<path fill="#FFFFFF" d="M63.2,15h0.5c0.1,0,0.1,0,0.1-0.1c0-0.1,0-0.1-0.1-0.1h-0.6c-0.1,0-0.1,0-0.1,0.1v1.5c0,0.1,0,0.1,0.1,0.1
		c0.1,0,0.1,0,0.1-0.1v-0.7h0.5c0.1,0,0.1,0,0.1-0.1c0-0.1,0-0.1-0.1-0.1h-0.5V15"/>
	<path fill="#FFFFFF" d="M64.3,16.3l0.6-0.8c0.1-0.1,0.1-0.2,0.1-0.3c0-0.2-0.2-0.4-0.4-0.4c-0.3,0-0.5,0.3-0.5,0.5
		c0,0.1,0,0.1,0.1,0.1c0,0,0.1,0,0.1-0.1c0-0.2,0.1-0.4,0.3-0.4c0.2,0,0.3,0.1,0.3,0.3c0,0.1-0.1,0.2-0.1,0.3l-0.6,0.8
		c0,0,0,0.1,0,0.1c0,0,0,0.1,0.1,0.1H65c0,0,0.1,0,0.1-0.1c0,0,0-0.1-0.1-0.1H64.3"/>
	<path fill="#FFFFFF" d="M83.9,15h0.5c0.1,0,0.1,0,0.1-0.1c0-0.1,0-0.1-0.1-0.1h-0.6c-0.1,0-0.1,0-0.1,0.1v1.5c0,0.1,0,0.1,0.1,0.1
		c0.1,0,0.1,0,0.1-0.1v-0.7h0.5c0.1,0,0.1,0,0.1-0.1c0-0.1,0-0.1-0.1-0.1h-0.5V15"/>
	<path fill="#FFFFFF" d="M85.4,15.6c0.1-0.1,0.2-0.2,0.2-0.4c0-0.2-0.2-0.4-0.4-0.4c-0.3,0-0.4,0.2-0.4,0.4c0,0.1,0,0.1,0.1,0.1
		c0,0,0.1,0,0.1-0.1c0-0.1,0.1-0.2,0.2-0.2c0.1,0,0.2,0.1,0.2,0.3c0,0.2-0.1,0.2-0.2,0.3c0,0-0.1,0-0.1,0c0,0-0.1,0-0.1,0.1
		c0,0.1,0,0.1,0.1,0.1c0.2,0,0.3,0.1,0.3,0.3c0,0.2-0.1,0.3-0.3,0.3c-0.2,0-0.2-0.1-0.3-0.2c0-0.1-0.1-0.1-0.1-0.1
		c0,0-0.1,0-0.1,0.1c0,0.1,0.1,0.4,0.5,0.4c0.3,0,0.5-0.2,0.5-0.5C85.7,15.8,85.6,15.7,85.4,15.6"/>
	<path fill="#FFFFFF" d="M104.8,15h0.5c0.1,0,0.1,0,0.1-0.1c0-0.1,0-0.1-0.1-0.1h-0.6c-0.1,0-0.1,0-0.1,0.1v1.5c0,0.1,0,0.1,0.1,0.1
		c0.1,0,0.1,0,0.1-0.1v-0.7h0.5c0.1,0,0.1,0,0.1-0.1c0-0.1,0-0.1-0.1-0.1h-0.5V15"/>
	<path fill-rule="evenodd" clip-rule="evenodd" fill="#FFFFFF" d="M106.5,16h0.1c0,0,0.1,0,0.1-0.1c0,0,0-0.1-0.1-0.1h-0.1V15
		c0-0.1,0-0.2-0.1-0.2c-0.1,0-0.1,0-0.2,0.1l-0.6,0.9c0,0-0.1,0.1-0.1,0.1c0,0,0,0.1,0.1,0.1h0.6c0,0.4,0,0.4,0,0.4
		c0,0.1,0,0.1,0.1,0.1c0.1,0,0.1,0,0.1-0.1V16 M106.3,15.8h-0.5l0.5-0.8V15.8z"/>
	<path fill="#FFFFFF" d="M125.9,15h0.6c0.1,0,0.1,0,0.1-0.1c0-0.1,0-0.1-0.1-0.1h-0.6c-0.1,0-0.1,0-0.1,0.1v1.5c0,0.1,0,0.1,0.1,0.1
		c0.1,0,0.1,0,0.1-0.1v-0.7h0.5c0.1,0,0.1,0,0.1-0.1c0-0.1,0-0.1-0.1-0.1h-0.5V15"/>
	<path fill="#FFFFFF" d="M127.2,15h0.5c0,0,0.1,0,0.1-0.1c0,0,0-0.1-0.1-0.1h-0.6c0,0-0.1,0-0.1,0l-0.1,0.6c0,0,0,0.1,0,0.1
		c0,0,0,0.1,0.1,0.1c0,0,0.1,0,0.2,0c0,0,0.1,0,0.1,0c0.2,0,0.3,0.2,0.3,0.4c0,0.2-0.1,0.4-0.3,0.4c-0.1,0-0.2,0-0.3-0.1
		c0,0-0.1-0.1-0.1-0.1c0,0-0.1,0-0.1,0.1c0,0.1,0.2,0.3,0.5,0.3c0.3,0,0.5-0.2,0.5-0.6c0-0.3-0.2-0.5-0.4-0.5c-0.1,0-0.1,0-0.2,0
		L127.2,15"/>
	<path fill="#FFFFFF" d="M146.9,15h0.5c0.1,0,0.1,0,0.1-0.1c0-0.1,0-0.1-0.1-0.1h-0.6c-0.1,0-0.1,0-0.1,0.1v1.5c0,0.1,0,0.1,0.1,0.1
		c0.1,0,0.1,0,0.1-0.1v-0.7h0.5c0.1,0,0.1,0,0.1-0.1c0-0.1,0-0.1-0.1-0.1h-0.5V15"/>
	<path fill-rule="evenodd" clip-rule="evenodd" fill="#FFFFFF" d="M148.1,15.4c0.1-0.3,0.2-0.4,0.3-0.5c0.1-0.1,0.1-0.1,0.1-0.1
		c0-0.1,0-0.1-0.1-0.1c0,0-0.1,0-0.1,0c-0.3,0.2-0.6,0.6-0.6,1.1c0,0.3,0.2,0.6,0.5,0.6c0.3,0,0.5-0.2,0.5-0.5
		c0-0.3-0.1-0.5-0.4-0.5C148.2,15.4,148.2,15.4,148.1,15.4 M148.3,15.6c0.2,0,0.3,0.1,0.3,0.4c0,0.2-0.1,0.4-0.3,0.4
		c-0.2,0-0.3-0.2-0.3-0.4C148,15.7,148.1,15.6,148.3,15.6z"/>
	<path fill="#FFFFFF" d="M167.8,15h0.5c0.1,0,0.1,0,0.1-0.1c0-0.1,0-0.1-0.1-0.1h-0.6c-0.1,0-0.1,0-0.1,0.1v1.5c0,0.1,0,0.1,0.1,0.1
		c0.1,0,0.1,0,0.1-0.1v-0.7h0.5c0.1,0,0.1,0,0.1-0.1c0-0.1,0-0.1-0.1-0.1h-0.5V15"/>
	<path fill="#FFFFFF" d="M169.4,15l-0.6,1.3c0,0.1,0,0.1,0,0.1c0,0,0,0.1,0.1,0.1c0,0,0.1,0,0.1-0.1l0.6-1.4c0-0.1,0-0.1,0-0.1
		c0,0,0-0.1-0.1-0.1h-0.8c0,0-0.1,0-0.1,0.1c0,0.1,0,0.1,0.1,0.1H169.4"/>
	<path fill="#FFFFFF" d="M188.6,15h0.6c0.1,0,0.1,0,0.1-0.1c0-0.1,0-0.1-0.1-0.1h-0.6c-0.1,0-0.1,0-0.1,0.1v1.5c0,0.1,0,0.1,0.1,0.1
		c0.1,0,0.1,0,0.1-0.1v-0.7h0.5c0.1,0,0.1,0,0.1-0.1c0-0.1,0-0.1-0.1-0.1h-0.5V15"/>
	<path fill-rule="evenodd" clip-rule="evenodd" fill="#FFFFFF" d="M190.2,15.5c0.2-0.1,0.2-0.2,0.2-0.4c0-0.3-0.2-0.4-0.4-0.4
		c-0.2,0-0.4,0.1-0.4,0.4c0,0.2,0,0.3,0.2,0.4c-0.2,0.1-0.3,0.2-0.3,0.4c0,0.3,0.2,0.5,0.5,0.5c0.3,0,0.5-0.3,0.5-0.5
		C190.4,15.8,190.4,15.6,190.2,15.5 M190,15c0.1,0,0.2,0.1,0.2,0.2c0,0.2-0.1,0.3-0.2,0.3c-0.1,0-0.2-0.1-0.2-0.3
		C189.7,15.1,189.8,15,190,15z M190,15.6c0.2,0,0.3,0.2,0.3,0.3c0,0.2-0.1,0.3-0.3,0.3c-0.1,0-0.3-0.1-0.3-0.3
		C189.7,15.8,189.8,15.6,190,15.6z"/>
	<path fill="#FFFFFF" d="M208.9,15h0.5c0.1,0,0.1,0,0.1-0.1c0-0.1,0-0.1-0.1-0.1h-0.6c-0.1,0-0.1,0-0.1,0.1v1.5c0,0.1,0,0.1,0.1,0.1
		c0.1,0,0.1,0,0.1-0.1v-0.7h0.5c0,0,0.1,0,0.1-0.1c0-0.1,0-0.1-0.1-0.1h-0.5V15"/>
	<path fill-rule="evenodd" clip-rule="evenodd" fill="#FFFFFF" d="M210.5,15.8c-0.1,0.3-0.2,0.4-0.3,0.5c-0.1,0-0.1,0.1-0.1,0.1
		c0,0.1,0,0.1,0.1,0.1c0,0,0,0,0.1,0c0.3-0.2,0.6-0.6,0.6-1.1c0-0.3-0.2-0.6-0.5-0.6c-0.3,0-0.5,0.2-0.5,0.5c0,0.3,0.1,0.5,0.4,0.5
		C210.3,15.9,210.4,15.9,210.5,15.8 M210.3,15.7c-0.2,0-0.3-0.1-0.3-0.4c0-0.2,0.1-0.4,0.3-0.4c0.2,0,0.3,0.2,0.3,0.4
		C210.6,15.5,210.5,15.7,210.3,15.7z"/>
	<path fill="#FFFFFF" d="M228.7,15h0.6c0.1,0,0.1,0,0.1-0.1c0-0.1,0-0.1-0.1-0.1h-0.6c-0.1,0-0.1,0-0.1,0.1v1.5c0,0.1,0,0.1,0.1,0.1
		c0.1,0,0.1,0,0.1-0.1v-0.7h0.5c0.1,0,0.1,0,0.1-0.1c0-0.1,0-0.1-0.1-0.1h-0.5V15"/>
	<path fill="#FFFFFF" d="M229.9,15v1.4c0,0.1,0,0.1,0.1,0.1c0.1,0,0.1,0,0.1-0.1v-1.5c0,0,0,0-0.1,0h-0.4c0,0-0.1,0-0.1,0.1
		c0,0.1,0,0.1,0.1,0.1H229.9"/>
	<path fill-rule="evenodd" clip-rule="evenodd" fill="#FFFFFF" d="M231.5,15.6c0-0.5-0.2-0.9-0.5-0.9c-0.3,0-0.5,0.3-0.5,0.9
		c0,0.5,0.2,0.8,0.5,0.8C231.2,16.5,231.5,16.2,231.5,15.6 M231.3,15.6c0,0.5-0.1,0.7-0.3,0.7c-0.2,0-0.3-0.2-0.3-0.7
		s0.1-0.7,0.3-0.7C231.1,15,231.3,15.2,231.3,15.6z"/>
	<path fill="#FFFFFF" d="M250.3,15h0.6c0.1,0,0.1,0,0.1-0.1c0-0.1,0-0.1-0.1-0.1h-0.6c-0.1,0-0.1,0-0.1,0.1v1.5c0,0.1,0,0.1,0.1,0.1
		c0.1,0,0.1,0,0.1-0.1v-0.7h0.5c0.1,0,0.1,0,0.1-0.1c0-0.1,0-0.1-0.1-0.1h-0.5V15"/>
	<path fill="#FFFFFF" d="M251.5,15v1.4c0,0.1,0,0.1,0.1,0.1s0.1,0,0.1-0.1v-1.5c0,0,0,0-0.1,0h-0.3c0,0-0.1,0-0.1,0.1
		c0,0.1,0,0.1,0.1,0.1H251.5"/>
	<path fill="#FFFFFF" d="M252.3,15v1.4c0,0.1,0,0.1,0.1,0.1c0.1,0,0.1,0,0.1-0.1v-1.5c0,0,0,0-0.1,0h-0.3c0,0-0.1,0-0.1,0.1
		c0,0.1,0,0.1,0.1,0.1H252.3"/>
	<path fill="#FFFFFF" d="M270.7,15h0.6c0.1,0,0.1,0,0.1-0.1c0-0.1,0-0.1-0.1-0.1h-0.6c-0.1,0-0.1,0-0.1,0.1v1.5c0,0.1,0,0.1,0.1,0.1
		c0.1,0,0.1,0,0.1-0.1v-0.7h0.5c0.1,0,0.1,0,0.1-0.1c0-0.1,0-0.1-0.1-0.1h-0.5V15"/>
	<path fill="#FFFFFF" d="M271.9,14.9v1.4c0,0.1,0,0.1,0.1,0.1c0.1,0,0.1,0,0.1-0.1v-1.5c0,0,0,0-0.1,0h-0.3c0,0-0.1,0-0.1,0.1
		c0,0.1,0,0.1,0.1,0.1H271.9"/>
	<path fill="#FFFFFF" d="M272.8,16.3l0.6-0.8c0.1-0.1,0.1-0.2,0.1-0.3c0-0.2-0.2-0.4-0.4-0.4c-0.3,0-0.5,0.3-0.5,0.5
		c0,0.1,0,0.1,0.1,0.1c0,0,0.1,0,0.1-0.1c0-0.2,0.1-0.4,0.3-0.4c0.1,0,0.3,0.1,0.3,0.3c0,0.1-0.1,0.2-0.1,0.3l-0.6,0.8
		c0,0,0,0.1,0,0.1c0,0,0,0.1,0.1,0.1h0.8c0,0,0.1,0,0.1-0.1c0,0,0-0.1-0.1-0.1H272.8"/>
	<path fill-rule="evenodd" clip-rule="evenodd" fill="#FFFFFF" d="M288.9,13.6C288.9,13.6,288.9,13.6,288.9,13.6l-1.5-1.5
		c0,0,0,0,0,0c0,0,0,0,0,0l-1.5,1.5c0,0,0,0,0,0c0,0,0,0,0,0L288.9,13.6C288.9,13.7,288.9,13.6,288.9,13.6 M289,14.7v-0.4
		c0,0,0,0,0,0h-3c0,0,0,0,0,0v0.4c0,0,0,0,0,0L289,14.7C289,14.8,289,14.8,289,14.7z"/>
	<g>
		<path fill="#FFFFFF" d="M18.1,27.1l0,0.4c-0.2,0.2-0.5,0.3-0.7,0.3c-0.2,0-0.5-0.1-0.8-0.2c-0.3-0.1-0.5-0.2-0.6-0.2
			c-0.3,0-0.5,0.1-0.8,0.4v-0.4c0.2-0.1,0.3-0.2,0.4-0.3c0.1,0,0.2-0.1,0.4-0.1c0.2,0,0.4,0.1,0.7,0.2l0.3,0.1
			c0.1,0.1,0.2,0.1,0.4,0.1C17.6,27.5,17.8,27.4,18.1,27.1z"/>
	</g>
	<g>
		<path fill="#FFFFFF" d="M217.7,28.9c0,0.1-0.1,0.2-0.2,0.2c-0.1,0-0.2-0.1-0.2-0.1s0-0.2,0.1-0.3c0.1-0.4,0.2-0.9,0.2-1.7
			s-0.1-1.3-0.2-1.7c0-0.1-0.1-0.2-0.1-0.3c0-0.1,0.1-0.1,0.2-0.1c0.1,0,0.2,0.1,0.2,0.2c0.2,0.5,0.3,1.2,0.3,1.9
			S217.9,28.5,217.7,28.9z"/>
	</g>
	<g>
		<path fill="#FFFFFF" d="M380.9,29.6c0.4,0,0.6,0.1,0.6,0.3c0,0.1-0.1,0.1-0.1,0.1c-0.1,0-0.2-0.1-0.4-0.1c-0.4,0-0.6,0.4-0.6,0.8
			c0,0.4,0.2,0.8,0.6,0.8c0.2,0,0.3-0.1,0.4-0.1c0.1,0,0.1,0.1,0.1,0.1c0,0.1-0.2,0.3-0.6,0.3c-0.6,0-1-0.5-1-1.1
			S380.2,29.6,380.9,29.6z"/>
		<path fill="#FFFFFF" d="M382.1,31.6c0,0.1-0.1,0.2-0.2,0.2c-0.1,0-0.2-0.1-0.2-0.2v-2.7c0-0.1,0.1-0.2,0.2-0.2
			c0.1,0,0.2,0.1,0.2,0.2V31.6z"/>
		<path fill="#FFFFFF" d="M382.8,30.8c0,0.4,0.2,0.6,0.6,0.6c0.5,0,0.6-0.3,0.7-0.3c0.1,0,0.1,0.1,0.1,0.2c0,0.2-0.4,0.4-0.9,0.4
			c-0.7,0-1-0.5-1-1.1c0-0.6,0.4-1.1,1-1.1c0.6,0,0.9,0.5,0.9,1c0,0.1,0,0.2-0.2,0.2H382.8z M384,30.6c0-0.3-0.2-0.7-0.6-0.7
			c-0.4,0-0.6,0.3-0.6,0.7H384z"/>
		<path fill="#FFFFFF" d="M386.4,31.6c0,0.1-0.1,0.2-0.2,0.2c-0.1,0-0.2,0-0.2-0.2v-0.1h0c-0.2,0.2-0.4,0.3-0.6,0.3
			c-0.6,0-0.9-0.5-0.9-1.1s0.3-1.1,0.9-1.1c0.2,0,0.4,0.1,0.6,0.3h0v-0.1c0-0.1,0.1-0.2,0.2-0.2c0.1,0,0.2,0,0.2,0.2V31.6z
			 M385.5,31.5c0.4,0,0.6-0.4,0.6-0.8c0-0.4-0.2-0.8-0.6-0.8c-0.4,0-0.6,0.4-0.6,0.8C384.9,31.1,385.1,31.5,385.5,31.5z"/>
		<path fill="#FFFFFF" d="M386.9,29.8c0-0.1,0.1-0.2,0.2-0.2c0.1,0,0.2,0.1,0.2,0.2V30h0c0.1-0.2,0.3-0.4,0.5-0.4
			c0.1,0,0.2,0.1,0.2,0.2s-0.1,0.2-0.2,0.2c-0.2,0-0.5,0.2-0.5,0.6v1c0,0.1-0.1,0.2-0.2,0.2c-0.1,0-0.2-0.1-0.2-0.2V29.8z"/>
	</g>
	<g>
		<path fill="#FFFFFF" d="M442.8,115.3c0,0.3,0.2,0.6,0.5,0.6c0.4,0,0.5-0.3,0.6-0.3c0.1,0,0.1,0,0.1,0.1c0,0.1-0.4,0.4-0.7,0.4
			c-0.6,0-0.9-0.5-0.9-1c0-0.5,0.3-1,0.8-1c0.5,0,0.8,0.5,0.8,0.9c0,0.1,0,0.2-0.2,0.2H442.8z M443.8,115.1c0-0.3-0.2-0.6-0.5-0.6
			c-0.4,0-0.5,0.3-0.5,0.6H443.8z"/>
		<path fill="#FFFFFF" d="M444.4,114.4c0-0.1,0.1-0.2,0.2-0.2s0.2,0.1,0.2,0.2v0.1l0,0c0.1-0.2,0.3-0.2,0.5-0.2
			c0.3,0,0.6,0.2,0.6,0.7v1c0,0.1-0.1,0.2-0.2,0.2s-0.2-0.1-0.2-0.2v-1c0-0.3-0.2-0.5-0.4-0.5c-0.2,0-0.4,0.1-0.4,0.5v1
			c0,0.1-0.1,0.2-0.2,0.2s-0.2-0.1-0.2-0.2V114.4z"/>
		<path fill="#FFFFFF" d="M446.4,113.9c0-0.1,0.1-0.2,0.2-0.2c0.1,0,0.2,0.1,0.2,0.2v0.4h0.1c0.1,0,0.2,0,0.2,0.1s-0.1,0.1-0.2,0.1
			h-0.1v1.4c0,0.1-0.1,0.2-0.2,0.2c-0.1,0-0.2-0.1-0.2-0.2v-1.4h-0.1c-0.1,0-0.2,0-0.2-0.1s0.1-0.1,0.2-0.1h0.1V113.9z"/>
		<path fill="#FFFFFF" d="M447.4,115.3c0,0.3,0.2,0.6,0.5,0.6c0.4,0,0.5-0.3,0.6-0.3c0.1,0,0.1,0,0.1,0.1c0,0.1-0.4,0.4-0.7,0.4
			c-0.6,0-0.9-0.5-0.9-1c0-0.5,0.3-1,0.8-1c0.5,0,0.8,0.5,0.8,0.9c0,0.1,0,0.2-0.2,0.2H447.4z M448.4,115.1c0-0.3-0.2-0.6-0.5-0.6
			c-0.4,0-0.5,0.3-0.5,0.6H448.4z"/>
		<path fill="#FFFFFF" d="M449,114.4c0-0.1,0.1-0.2,0.2-0.2c0.1,0,0.2,0.1,0.2,0.2v0.2h0c0.1-0.1,0.2-0.3,0.4-0.3
			c0.1,0,0.2,0.1,0.2,0.2c0,0.1-0.1,0.1-0.2,0.2c-0.2,0-0.4,0.2-0.4,0.5v0.9c0,0.1-0.1,0.2-0.2,0.2c-0.1,0-0.2-0.1-0.2-0.2V114.4z"
			/>
	</g>
	<g>
		<path fill="#FFFFFF" d="M388.3,16.1c0,0.1,0,0.1-0.1,0.1s-0.1,0-0.1-0.1v-1.5c0-0.1,0-0.1,0.1-0.1h0.6c0.1,0,0.1,0,0.1,0.1
			s0,0.1-0.1,0.1h-0.5v0.6h0.4c0.1,0,0.1,0,0.1,0.1c0,0.1,0,0.1-0.1,0.1h-0.4V16.1z"/>
		<path fill="#FFFFFF" d="M389.5,14.7h-0.2c-0.1,0-0.1,0-0.1-0.1s0-0.1,0.1-0.1h0.4c0,0,0.1,0,0.1,0.1v1.6c0,0.1,0,0.1-0.1,0.1
			c-0.1,0-0.1,0-0.1-0.1V14.7z"/>
		<path fill="#FFFFFF" d="M390.2,15.6c0-0.5,0.3-0.9,0.6-1.1c0,0,0.1,0,0.1,0c0,0,0.1,0,0.1,0.1c0,0,0,0.1-0.1,0.1
			c-0.1,0.1-0.2,0.2-0.4,0.5h0c0.1,0,0.2-0.1,0.3-0.1c0.3,0,0.4,0.3,0.4,0.6c0,0.3-0.2,0.6-0.5,0.6
			C390.4,16.2,390.2,15.9,390.2,15.6z M390.7,16c0.2,0,0.3-0.2,0.3-0.4c0-0.2-0.1-0.4-0.3-0.4s-0.3,0.2-0.3,0.4
			C390.4,15.8,390.5,16,390.7,16z"/>
	</g>
	<g>
		<path fill="#FFFFFF" d="M408.8,16.1c0,0.1,0,0.1-0.1,0.1s-0.1,0-0.1-0.1v-1.5c0-0.1,0-0.1,0.1-0.1h0.6c0.1,0,0.1,0,0.1,0.1
			s0,0.1-0.1,0.1h-0.5v0.6h0.4c0.1,0,0.1,0,0.1,0.1c0,0.1,0,0.1-0.1,0.1h-0.4V16.1z"/>
		<path fill="#FFFFFF" d="M409.9,14.7h-0.2c-0.1,0-0.1,0-0.1-0.1s0-0.1,0.1-0.1h0.4c0,0,0.1,0,0.1,0.1v1.6c0,0.1,0,0.1-0.1,0.1
			c-0.1,0-0.1,0-0.1-0.1V14.7z"/>
		<path fill="#FFFFFF" d="M410.7,14.7C410.6,14.7,410.6,14.6,410.7,14.7c-0.1-0.1,0-0.2,0-0.2h0.9c0.1,0,0.1,0,0.1,0.1
			c0,0,0,0.1,0,0.1l-0.6,1.4c0,0.1-0.1,0.1-0.1,0.1c0,0-0.1,0-0.1-0.1c0,0,0-0.1,0-0.1l0.6-1.3v0H410.7z"/>
	</g>
	<g>
		<path fill="#FFFFFF" d="M428.7,16.1c0,0.1,0,0.1-0.1,0.1s-0.1,0-0.1-0.1v-1.5c0-0.1,0-0.1,0.1-0.1h0.6c0.1,0,0.1,0,0.1,0.1
			s0,0.1-0.1,0.1h-0.5v0.6h0.4c0.1,0,0.1,0,0.1,0.1c0,0.1,0,0.1-0.1,0.1h-0.4V16.1z"/>
		<path fill="#FFFFFF" d="M429.8,14.7h-0.2c0,0-0.1,0-0.1-0.1s0-0.1,0.1-0.1h0.4c0,0,0.1,0,0.1,0.1v1.6c0,0.1,0,0.1-0.1,0.1
			c-0.1,0-0.1,0-0.1-0.1V14.7z"/>
		<path fill="#FFFFFF" d="M431,14.5c0.2,0,0.4,0.1,0.4,0.4c0,0.2-0.1,0.3-0.2,0.4c0.2,0,0.3,0.2,0.3,0.4c0,0.3-0.2,0.5-0.5,0.5
			s-0.5-0.3-0.5-0.5c0-0.2,0.1-0.4,0.3-0.4c-0.2-0.1-0.2-0.2-0.2-0.4C430.6,14.6,430.8,14.5,431,14.5z M431,16
			c0.2,0,0.3-0.1,0.3-0.3c0-0.2-0.1-0.3-0.3-0.3s-0.3,0.2-0.3,0.3C430.7,15.9,430.9,16,431,16z M431,15.1c0.2,0,0.2-0.1,0.2-0.3
			c0-0.1-0.1-0.2-0.2-0.2s-0.2,0.1-0.2,0.2C430.8,15,430.9,15.1,431,15.1z"/>
	</g>
	<g>
		<path fill="#FFFFFF" d="M449,16.1c0,0.1,0,0.1-0.1,0.1s-0.1,0-0.1-0.1v-1.5c0-0.1,0-0.1,0.1-0.1h0.6c0.1,0,0.1,0,0.1,0.1
			s0,0.1-0.1,0.1H449v0.6h0.4c0.1,0,0.1,0,0.1,0.1c0,0.1,0,0.1-0.1,0.1H449V16.1z"/>
		<path fill="#FFFFFF" d="M450.2,14.7h-0.2c0,0-0.1,0-0.1-0.1s0-0.1,0.1-0.1h0.4c0,0,0.1,0,0.1,0.1v1.6c0,0.1,0,0.1-0.1,0.1
			c-0.1,0-0.1,0-0.1-0.1V14.7z"/>
		<path fill="#FFFFFF" d="M451.9,15c0,0.5-0.3,0.9-0.6,1.1c0,0-0.1,0-0.1,0c0,0-0.1,0-0.1-0.1c0,0,0-0.1,0.1-0.1
			c0.1-0.1,0.2-0.2,0.4-0.5h0c-0.1,0-0.2,0.1-0.3,0.1c-0.3,0-0.4-0.3-0.4-0.6c0-0.3,0.2-0.6,0.5-0.6C451.7,14.5,451.9,14.7,451.9,15
			z M451.4,14.7c-0.2,0-0.3,0.2-0.3,0.4c0,0.2,0.1,0.4,0.3,0.4c0.2,0,0.3-0.2,0.3-0.4C451.7,14.8,451.6,14.7,451.4,14.7z"/>
	</g>
	<g>
		<path fill="#FFFFFF" d="M285.4,35.1L285.4,35.1c-0.1,0.2-0.3,0.3-0.6,0.3c-0.6,0-0.9-0.5-0.9-1.1c0-0.6,0.3-1.1,0.9-1.1
			c0.3,0,0.5,0.2,0.6,0.3h0v-1c0-0.1,0.1-0.2,0.2-0.2s0.2,0.1,0.2,0.2v2.7c0,0.1-0.1,0.2-0.2,0.2s-0.2-0.1-0.2-0.2V35.1z
			 M284.9,33.5c-0.4,0-0.6,0.4-0.6,0.8c0,0.4,0.2,0.8,0.6,0.8c0.4,0,0.6-0.4,0.6-0.8C285.5,34,285.3,33.5,284.9,33.5z"/>
		<path fill="#FFFFFF" d="M286.5,34.5c0,0.4,0.2,0.6,0.6,0.6c0.5,0,0.6-0.3,0.7-0.3c0.1,0,0.1,0.1,0.1,0.2c0,0.2-0.4,0.4-0.9,0.4
			c-0.7,0-1-0.5-1-1.1c0-0.6,0.4-1.1,1-1.1c0.6,0,0.9,0.5,0.9,1c0,0.1,0,0.2-0.2,0.2H286.5z M287.7,34.2c0-0.3-0.2-0.7-0.6-0.7
			c-0.4,0-0.6,0.3-0.6,0.7H287.7z"/>
		<path fill="#FFFFFF" d="M288.7,35.2c0,0.1-0.1,0.2-0.2,0.2s-0.2-0.1-0.2-0.2v-2.7c0-0.1,0.1-0.2,0.2-0.2s0.2,0.1,0.2,0.2V35.2z"/>
		<path fill="#FFFFFF" d="M289.4,34.5c0,0.4,0.2,0.6,0.6,0.6c0.5,0,0.6-0.3,0.7-0.3c0.1,0,0.1,0.1,0.1,0.2c0,0.2-0.4,0.4-0.9,0.4
			c-0.7,0-1-0.5-1-1.1c0-0.6,0.4-1.1,1-1.1c0.6,0,0.9,0.5,0.9,1c0,0.1,0,0.2-0.2,0.2H289.4z M290.5,34.2c0-0.3-0.2-0.7-0.6-0.7
			c-0.4,0-0.6,0.3-0.6,0.7H290.5z"/>
		<path fill="#FFFFFF" d="M291.4,32.8c0-0.1,0.1-0.2,0.2-0.2s0.2,0.1,0.2,0.2v0.5h0.1c0.1,0,0.2,0.1,0.2,0.2s-0.1,0.2-0.2,0.2h-0.1
			v1.7c0,0.1-0.1,0.2-0.2,0.2s-0.2-0.1-0.2-0.2v-1.7h-0.1c-0.1,0-0.2-0.1-0.2-0.2s0.1-0.2,0.2-0.2h0.1V32.8z"/>
		<path fill="#FFFFFF" d="M292.5,34.5c0,0.4,0.2,0.6,0.6,0.6c0.5,0,0.6-0.3,0.7-0.3c0.1,0,0.1,0.1,0.1,0.2c0,0.2-0.4,0.4-0.9,0.4
			c-0.7,0-1-0.5-1-1.1c0-0.6,0.4-1.1,1-1.1c0.6,0,0.9,0.5,0.9,1c0,0.1,0,0.2-0.2,0.2H292.5z M293.7,34.2c0-0.3-0.2-0.7-0.6-0.7
			c-0.4,0-0.6,0.3-0.6,0.7H293.7z"/>
	</g>
	<g>
		<path fill="#FFFFFF" d="M284.4,72.4c0-0.1,0.1-0.2,0.2-0.2s0.2,0.1,0.2,0.2v0.2h0c0.1-0.2,0.3-0.4,0.5-0.4c0.1,0,0.2,0.1,0.2,0.2
			c0,0.1-0.1,0.2-0.2,0.2c-0.2,0-0.5,0.2-0.5,0.6v1c0,0.1-0.1,0.2-0.2,0.2s-0.2-0.1-0.2-0.2V72.4z"/>
		<path fill="#FFFFFF" d="M285.9,73.4c0,0.4,0.2,0.6,0.6,0.6c0.5,0,0.6-0.3,0.7-0.3c0.1,0,0.1,0.1,0.1,0.2c0,0.2-0.4,0.4-0.9,0.4
			c-0.7,0-1-0.5-1-1.1c0-0.6,0.4-1.1,1-1.1c0.6,0,0.9,0.5,0.9,1c0,0.1,0,0.2-0.2,0.2H285.9z M287.1,73.2c0-0.3-0.2-0.7-0.6-0.7
			c-0.4,0-0.6,0.3-0.6,0.7H287.1z"/>
		<path fill="#FFFFFF" d="M287.9,71.8c0-0.1,0.1-0.2,0.2-0.2c0.1,0,0.2,0.1,0.2,0.2v0.5h0.1c0.1,0,0.2,0.1,0.2,0.2
			c0,0.1-0.1,0.2-0.2,0.2h-0.1v1.7c0,0.1-0.1,0.2-0.2,0.2c-0.1,0-0.2-0.1-0.2-0.2v-1.7h-0.1c-0.1,0-0.2-0.1-0.2-0.2
			c0-0.1,0.1-0.2,0.2-0.2h0.1V71.8z"/>
		<path fill="#FFFFFF" d="M288.8,72.4c0-0.1,0.1-0.2,0.2-0.2s0.2,0.1,0.2,0.2v1.1c0,0.4,0.2,0.6,0.5,0.6s0.5-0.2,0.5-0.6v-1.1
			c0-0.1,0.1-0.2,0.2-0.2c0.1,0,0.2,0.1,0.2,0.2v1.1c0,0.6-0.4,0.8-0.8,0.8s-0.8-0.2-0.8-0.8V72.4z"/>
		<path fill="#FFFFFF" d="M290.9,72.4c0-0.1,0.1-0.2,0.2-0.2c0.1,0,0.2,0.1,0.2,0.2v0.2h0c0.1-0.2,0.3-0.4,0.5-0.4
			c0.1,0,0.2,0.1,0.2,0.2c0,0.1-0.1,0.2-0.2,0.2c-0.2,0-0.5,0.2-0.5,0.6v1c0,0.1-0.1,0.2-0.2,0.2c-0.1,0-0.2-0.1-0.2-0.2V72.4z"/>
		<path fill="#FFFFFF" d="M292.2,72.4c0-0.1,0.1-0.2,0.2-0.2c0.1,0,0.2,0.1,0.2,0.2v0.1l0,0c0.2-0.2,0.4-0.3,0.6-0.3
			c0.3,0,0.7,0.2,0.7,0.8v1.2c0,0.1-0.1,0.2-0.2,0.2s-0.2-0.1-0.2-0.2V73c0-0.4-0.3-0.5-0.5-0.5s-0.5,0.2-0.5,0.5v1.2
			c0,0.1-0.1,0.2-0.2,0.2c-0.1,0-0.2-0.1-0.2-0.2V72.4z"/>
	</g>
	<g>
		<path fill="#FFFFFF" d="M287.9,91.7c0.3,0,0.7,0.2,0.7,0.4c0,0.1-0.1,0.1-0.2,0.1c-0.2,0-0.2-0.2-0.5-0.2c-0.2,0-0.4,0.1-0.4,0.3
			c0,0.4,1.1,0.3,1.1,0.9c0,0.4-0.4,0.7-0.8,0.7c-0.4,0-0.8-0.2-0.8-0.4c0-0.1,0.1-0.2,0.1-0.2c0.2,0,0.3,0.3,0.7,0.3
			c0.3,0,0.4-0.1,0.4-0.3c0-0.4-1.1-0.4-1.1-1C287.2,91.9,287.6,91.7,287.9,91.7z"/>
		<path fill="#FFFFFF" d="M290.4,92.5c0-0.4-0.3-0.5-0.5-0.5c-0.2,0-0.5,0.2-0.5,0.5v1.2c0,0.1-0.1,0.2-0.2,0.2s-0.2-0.1-0.2-0.2
			v-2.7c0-0.1,0.1-0.2,0.2-0.2s0.2,0.1,0.2,0.2v1l0,0c0.2-0.2,0.4-0.3,0.6-0.3c0.3,0,0.7,0.2,0.7,0.8v1.2c0,0.1-0.1,0.2-0.2,0.2
			c-0.1,0-0.2-0.1-0.2-0.2V92.5z"/>
		<path fill="#FFFFFF" d="M291.4,91c0.1,0,0.2,0.1,0.2,0.2c0,0.1-0.1,0.2-0.2,0.2c-0.1,0-0.2-0.1-0.2-0.2
			C291.1,91.1,291.2,91,291.4,91z M291.5,93.7c0,0.1-0.1,0.2-0.2,0.2c-0.1,0-0.2-0.1-0.2-0.2v-1.8c0-0.1,0.1-0.2,0.2-0.2
			c0.1,0,0.2,0.1,0.2,0.2V93.7z"/>
		<path fill="#FFFFFF" d="M292.5,93.7c0,0.1-0.1,0.2-0.2,0.2c-0.1,0-0.2-0.1-0.2-0.2V92H292c-0.1,0-0.2-0.1-0.2-0.2s0.1-0.2,0.2-0.2
			h0.1v-0.5c0-0.3,0.2-0.5,0.5-0.5h0.1c0.1,0,0.2,0.1,0.2,0.2c0,0.1-0.1,0.2-0.2,0.2h-0.1c-0.1,0-0.1,0.1-0.1,0.1v0.5h0.2
			c0.1,0,0.2,0.1,0.2,0.2s-0.1,0.2-0.2,0.2h-0.2V93.7z"/>
		<path fill="#FFFFFF" d="M293.1,91.3c0-0.1,0.1-0.2,0.2-0.2c0.1,0,0.2,0.1,0.2,0.2v0.5h0.1c0.1,0,0.2,0.1,0.2,0.2s-0.1,0.2-0.2,0.2
			h-0.1v1.7c0,0.1-0.1,0.2-0.2,0.2c-0.1,0-0.2-0.1-0.2-0.2V92H293c-0.1,0-0.2-0.1-0.2-0.2s0.1-0.2,0.2-0.2h0.1V91.3z"/>
	</g>
	<g>
		<g>
			<path fill="#FFFFFF" d="M36,31.4h-0.5c-0.1,0-0.2-0.1-0.2-0.2s0.1-0.2,0.2-0.2h0.8c0.1,0,0.1,0,0.1,0.1v3.6
				c0,0.2-0.1,0.3-0.2,0.3S36,34.8,36,34.7V31.4z"/>
		</g>
		<g>
			<path fill="#FFFFFF" d="M36.2,27.9c0.2,0,0.3,0.1,0.3,0.3s-0.1,0.3-0.3,0.3s-0.3-0.1-0.3-0.3S36.1,27.9,36.2,27.9z M36,24.8
				c0-0.2,0.1-0.3,0.2-0.3s0.2,0.1,0.2,0.3v2.4c0,0.2-0.1,0.3-0.2,0.3S36,27.3,36,27.1V24.8z"/>
		</g>
	</g>
	<g>
		<path fill="#FFFFFF" d="M217.7,30.9c0.7,0,1.3,0.7,1.3,2c0,1.3-0.6,2-1.3,2s-1.3-0.7-1.3-2C216.4,31.7,217,30.9,217.7,30.9z
			 M217.7,34.5c0.4,0,0.8-0.5,0.8-1.6c0-1.1-0.3-1.6-0.8-1.6s-0.8,0.5-0.8,1.6C216.9,34,217.3,34.5,217.7,34.5z"/>
	</g>
	<g>
		<path fill="#FFFFFF" d="M383.3,48c-0.1,0-0.2-0.1-0.2-0.2c0-0.1,0.1-0.2,0.2-0.2h2.2c0.2,0,0.3,0,0.3,0.2c0,0.1,0,0.2-0.1,0.3
			l-1.6,3.6c-0.1,0.2-0.2,0.2-0.3,0.2c-0.1,0-0.2-0.1-0.2-0.2c0,0,0-0.1,0.1-0.3l1.5-3.4v0H383.3z"/>
	</g>
	<g>
		<path fill="#FFFFFF" d="M404.7,47.5c0.5,0,1.1,0.3,1.1,1c0,0.5-0.2,0.7-0.6,0.9c0.5,0.1,0.8,0.6,0.8,1.1c0,0.7-0.5,1.3-1.3,1.3
			s-1.3-0.7-1.3-1.3c0-0.5,0.3-1,0.8-1.1c-0.4-0.2-0.6-0.5-0.6-0.9C403.6,47.8,404.1,47.5,404.7,47.5z M404.7,51.4
			c0.4,0,0.7-0.3,0.7-0.9c0-0.4-0.3-0.9-0.7-0.9s-0.7,0.4-0.7,0.9C403.9,51,404.3,51.4,404.7,51.4z M404.7,49.2
			c0.4,0,0.6-0.3,0.6-0.6c0-0.4-0.2-0.6-0.6-0.6c-0.4,0-0.6,0.3-0.6,0.6C404.1,48.9,404.3,49.2,404.7,49.2z"/>
	</g>
	<g>
		<path fill="#FFFFFF" d="M426.5,48.9c0,1.2-0.8,2.2-1.5,2.8c-0.1,0.1-0.2,0.1-0.2,0.1c-0.1,0-0.2-0.1-0.2-0.2
			c0-0.1,0.1-0.2,0.2-0.3c0.3-0.3,0.6-0.6,0.9-1.2h0c-0.2,0.1-0.4,0.2-0.7,0.2c-0.7,0-1.1-0.7-1.1-1.4c0-0.8,0.6-1.4,1.3-1.4
			C426,47.5,426.5,48.1,426.5,48.9z M425.2,48c-0.5,0-0.7,0.4-0.7,0.9c0,0.6,0.2,0.9,0.7,0.9c0.5,0,0.8-0.4,0.8-0.9
			C426,48.4,425.8,48,425.2,48z"/>
	</g>
	<g>
		<path fill="#FFFFFF" d="M423.2,70.1c0-1.2,0.8-2.2,1.5-2.8c0.1-0.1,0.2-0.1,0.2-0.1c0.1,0,0.2,0.1,0.2,0.2c0,0.1-0.1,0.2-0.2,0.3
			c-0.3,0.3-0.6,0.6-0.9,1.2h0c0.2-0.1,0.4-0.2,0.7-0.2c0.7,0,1.1,0.7,1.1,1.4c0,0.8-0.6,1.4-1.3,1.4
			C423.7,71.6,423.2,70.9,423.2,70.1z M424.4,71.1c0.5,0,0.8-0.4,0.8-0.9c0-0.6-0.2-0.9-0.8-0.9s-0.8,0.4-0.8,0.9
			C423.7,70.6,423.9,71.1,424.4,71.1z"/>
	</g>
	<g>
		<path fill="#FFFFFF" d="M444.8,67.9c0-0.1,0.1-0.3,0.2-0.3s0.2,0.1,0.2,0.3v1h1c0.1,0,0.3,0.1,0.3,0.2c0,0.2-0.1,0.2-0.3,0.2h-1v1
			c0,0.2-0.1,0.3-0.2,0.3s-0.2-0.1-0.2-0.3v-1h-1c-0.2,0-0.3-0.1-0.3-0.2c0-0.2,0.1-0.2,0.3-0.2h1V67.9z"/>
	</g>
	<g>
		<path fill="#FFFFFF" d="M404.2,68.9c0.2-0.1,0.4-0.1,0.6-0.1c0.7,0,1.1,0.6,1.1,1.3c0,0.9-0.5,1.5-1.4,1.5c-0.7,0-1.2-0.4-1.2-0.7
			c0-0.1,0.1-0.2,0.2-0.2c0.2,0,0.4,0.4,1,0.4c0.5,0,0.8-0.4,0.8-0.9c0-0.5-0.2-0.9-0.7-0.9c-0.4,0-0.6,0.2-0.7,0.2
			c-0.1,0-0.2-0.1-0.2-0.2c0-0.1,0-0.2,0-0.4l0.2-1.5c0-0.1,0.1-0.1,0.2-0.1h1.5c0.1,0,0.2,0.1,0.2,0.2c0,0.1-0.1,0.2-0.2,0.2h-1.2
			L404.2,68.9z"/>
	</g>
	<g>
		<path fill="#FFFFFF" d="M383.2,70.4c-0.2,0-0.2-0.1-0.2-0.2c0-0.1,0.1-0.2,0.1-0.3l1.5-2.5c0.1-0.2,0.2-0.2,0.4-0.2
			c0.2,0,0.4,0.1,0.4,0.4V70h0.3c0.1,0,0.2,0.1,0.2,0.2s-0.1,0.2-0.2,0.2h-0.3v0.9c0,0.2-0.1,0.3-0.3,0.3s-0.3-0.1-0.3-0.3v-0.9
			H383.2z M384.9,70v-2.2h0l-1.3,2.2H384.9z"/>
	</g>
	<g>
		<path fill="#FFFFFF" d="M424.4,90.9c-0.9,0-1.2-0.7-1.2-1c0-0.2,0.1-0.3,0.2-0.3c0.2,0,0.2,0.1,0.3,0.3c0.1,0.3,0.3,0.5,0.7,0.5
			c0.5,0,0.8-0.4,0.8-0.8c0-0.6-0.3-0.8-0.7-0.8c-0.2,0-0.3-0.1-0.3-0.2c0-0.1,0.1-0.2,0.3-0.2c0.4-0.1,0.6-0.3,0.6-0.7
			c0-0.4-0.2-0.7-0.6-0.7c-0.4,0-0.6,0.3-0.6,0.6c0,0.2-0.2,0.2-0.3,0.2c-0.2,0-0.2-0.1-0.2-0.2c0-0.6,0.4-1.1,1.1-1.1
			c0.7,0,1.1,0.5,1.1,1.1c0,0.4-0.2,0.7-0.5,0.9c0.5,0.1,0.7,0.6,0.7,1C425.7,90.5,425.1,90.9,424.4,90.9z"/>
	</g>
	<g>
		<path fill="#FFFFFF" d="M405.8,90.7c0.1,0,0.2,0.1,0.2,0.2c0,0.1-0.1,0.2-0.2,0.2h-2.1c-0.2,0-0.3-0.1-0.3-0.2
			c0-0.1,0-0.1,0.1-0.2l1.5-2c0.2-0.2,0.3-0.5,0.3-0.8c0-0.4-0.3-0.7-0.7-0.7c-0.5,0-0.8,0.4-0.8,1c0,0.2-0.1,0.2-0.2,0.2
			c-0.2,0-0.3-0.1-0.3-0.3c0-0.7,0.5-1.3,1.4-1.3c0.7,0,1.2,0.5,1.2,1.1c0,0.2,0,0.5-0.3,0.9l-1.4,1.9H405.8z"/>
	</g>
	<g>
		<path fill="#FFFFFF" d="M384.2,87.4h-0.6c-0.1,0-0.2-0.1-0.2-0.2c0-0.1,0.1-0.2,0.2-0.2h0.9c0.1,0,0.2,0,0.2,0.1v3.9
			c0,0.2-0.1,0.3-0.3,0.3s-0.3-0.1-0.3-0.3V87.4z"/>
	</g>
	<g>
		<path fill="#FFFFFF" d="M394.5,108.3c0.8,0,1.4,0.8,1.4,2.2s-0.6,2.2-1.4,2.2c-0.8,0-1.4-0.8-1.4-2.2S393.7,108.3,394.5,108.3z
			 M394.5,112.1c0.5,0,0.8-0.5,0.8-1.7s-0.4-1.7-0.8-1.7c-0.5,0-0.8,0.5-0.8,1.7S394.1,112.1,394.5,112.1z"/>
	</g>
	<g>
		<path fill="#FFFFFF" d="M424.2,111.9c0.1-0.1,0.1-0.2,0.3-0.2c0.1,0,0.2,0.1,0.2,0.2c0,0.1,0,0.1-0.1,0.2l-0.3,0.7
			c-0.1,0.1-0.1,0.2-0.3,0.2c-0.1,0-0.2-0.1-0.2-0.2c0-0.1,0-0.1,0.1-0.2L424.2,111.9z"/>
	</g>
	<g>
		<path fill="#FFFFFF" d="M247.1,47.2c0-0.4,0-0.6-0.2-0.7c-0.1,0-0.2-0.1-0.2-0.2c0-0.1,0.1-0.2,0.2-0.2c0.2-0.1,0.2-0.3,0.2-0.7
			v-0.6c0-0.3,0.2-0.5,0.5-0.5h0.2c0.1,0,0.2,0.1,0.2,0.2s-0.1,0.2-0.2,0.2h-0.1c-0.1,0-0.2,0.1-0.2,0.2v0.8c0,0.5-0.3,0.6-0.5,0.7
			v0c0.2,0,0.5,0.1,0.5,0.7v0.8c0,0.1,0.1,0.2,0.2,0.2h0.1c0.1,0,0.2,0,0.2,0.2c0,0.1-0.1,0.1-0.2,0.1h-0.2c-0.3,0-0.5-0.2-0.5-0.5
			V47.2z"/>
	</g>
	<g>
		<path fill="#FFFFFF" d="M267.7,45.5c0,0.4,0,0.6,0.2,0.7c0.2,0,0.2,0.1,0.2,0.2c0,0.1-0.1,0.2-0.2,0.2c-0.2,0.1-0.2,0.3-0.2,0.7
			v0.6c0,0.3-0.2,0.5-0.5,0.5H267c-0.1,0-0.2,0-0.2-0.1c0-0.1,0.1-0.2,0.2-0.2h0.1c0.1,0,0.2-0.1,0.2-0.2v-0.8
			c0-0.5,0.3-0.6,0.5-0.7v0c-0.2,0-0.5-0.1-0.5-0.7v-0.8c0-0.2-0.1-0.2-0.2-0.2H267c-0.1,0-0.2-0.1-0.2-0.2s0.1-0.2,0.2-0.2h0.2
			c0.3,0,0.5,0.2,0.5,0.5V45.5z"/>
	</g>
	<g>
		<path fill="#FFFFFF" d="M267.3,51.4h-0.2c-0.1,0-0.2-0.1-0.2-0.2s0.1-0.2,0.2-0.2h0.3c0.2,0,0.2,0.1,0.2,0.2v3.5
			c0,0.1-0.1,0.2-0.2,0.2h-0.3c-0.1,0-0.2-0.1-0.2-0.2c0-0.1,0.1-0.2,0.2-0.2h0.2V51.4z"/>
	</g>
	<g>
		<path fill="#FFFFFF" d="M242,86.1c0,0.1-0.1,0.2-0.2,0.2c-0.1,0-0.2-0.1-0.2-0.2v-0.6c0-0.2,0-0.3,0.3-0.3
			c0.4-0.1,0.5-0.4,0.5-0.5c0-0.3-0.2-0.6-0.6-0.6c-0.3,0-0.5,0.1-0.6,0.4c0,0.1-0.1,0.2-0.2,0.2c-0.1,0-0.2-0.1-0.2-0.2
			c0-0.4,0.5-0.8,1-0.8c0.6,0,1.1,0.4,1.1,0.9c0,0.5-0.3,0.9-0.8,1V86.1z M241.8,86.8c0.1,0,0.3,0.1,0.3,0.3c0,0.1-0.1,0.3-0.3,0.3
			c-0.1,0-0.3-0.1-0.3-0.3C241.5,86.9,241.6,86.8,241.8,86.8z"/>
	</g>
	<g>
		<path fill="#FFFFFF" d="M241.3,93.6c0,0.1-0.1,0.2-0.2,0.2s-0.2-0.1-0.2-0.2c0,0,0-0.1,0.1-0.2l1.4-3.1c0-0.1,0.1-0.2,0.2-0.2
			s0.2,0.1,0.2,0.2c0,0,0,0.1-0.1,0.2L241.3,93.6z"/>
	</g>
	<g>
		<path fill="#FFFFFF" d="M247.5,54.7h0.2c0.1,0,0.2,0.1,0.2,0.2c0,0.1-0.1,0.2-0.2,0.2h-0.3c-0.2,0-0.2-0.1-0.2-0.2v-3.5
			c0-0.1,0.1-0.2,0.2-0.2h0.3c0.1,0,0.2,0.1,0.2,0.2s-0.1,0.2-0.2,0.2h-0.2V54.7z"/>
	</g>
	<g>
		<path fill="#FFFFFF" d="M252.5,70.7c0.1-0.1,0.1-0.2,0.3-0.2c0.1,0,0.3,0.1,0.3,0.2c0,0.1,0,0.1-0.1,0.2l-0.4,0.7
			c-0.1,0.1-0.1,0.2-0.3,0.2c-0.1,0-0.3-0.1-0.3-0.2c0-0.1,0-0.1,0.1-0.2L252.5,70.7z"/>
	</g>
	<path fill="#FFFFFF" d="M251.9,64.4c0.1-0.1,0.1-0.2,0.3-0.2c0.1,0,0.3,0.1,0.3,0.2c0,0.1,0,0.1-0.1,0.2l-0.4,0.7
		c-0.1,0.1-0.1,0.2-0.3,0.2c-0.1,0-0.3-0.1-0.3-0.2c0-0.1,0-0.1,0.1-0.2L251.9,64.4z"/>
	<path fill="#FFFFFF" d="M252.9,64.4c0.1-0.1,0.1-0.2,0.3-0.2c0.1,0,0.3,0.1,0.3,0.2c0,0.1,0,0.1-0.1,0.2l-0.4,0.7
		c-0.1,0.1-0.1,0.2-0.3,0.2c-0.1,0-0.3-0.1-0.3-0.2c0-0.1,0-0.1,0.1-0.2L252.9,64.4z"/>
	<g>
		<path fill="#FFFFFF" d="M202.4,86.7c0.1,0,0.2,0.1,0.2,0.2s-0.1,0.2-0.2,0.2c-0.1,0-0.1,0-0.2-0.1l-2-1c-0.1-0.1-0.2-0.1-0.2-0.2
			c0-0.1,0-0.2,0.2-0.2l2-1c0.1,0,0.2-0.1,0.2-0.1c0.1,0,0.2,0.1,0.2,0.2c0,0.1-0.1,0.1-0.2,0.2l-1.9,0.9L202.4,86.7z"/>
	</g>
	<g>
		<path fill="#FFFFFF" d="M200.8,93.2c0.1-0.1,0.1-0.2,0.3-0.2c0.1,0,0.3,0.1,0.3,0.2c0,0.1,0,0.1-0.1,0.2l-0.4,0.7
			c-0.1,0.1-0.1,0.2-0.3,0.2c-0.1,0-0.3-0.1-0.3-0.2c0-0.1,0-0.1,0.1-0.2L200.8,93.2z"/>
	</g>
	<g>
		<path fill="#FFFFFF" d="M232.1,73.8c0.1-0.1,0.1-0.2,0.3-0.2c0.1,0,0.3,0.1,0.3,0.2c0,0.1,0,0.1-0.1,0.2l-0.4,0.7
			c-0.1,0.1-0.1,0.2-0.3,0.2c-0.1,0-0.3-0.1-0.3-0.2c0-0.1,0-0.1,0.1-0.2L232.1,73.8z M232.3,71.3c0.2,0,0.3,0.1,0.3,0.3
			c0,0.2-0.1,0.3-0.3,0.3c-0.2,0-0.3-0.1-0.3-0.3C232,71.5,232.1,71.3,232.3,71.3z"/>
	</g>
	<g>
		<path fill="#FFFFFF" d="M232.3,64.6c0.2,0,0.3,0.1,0.3,0.3s-0.1,0.3-0.3,0.3c-0.2,0-0.3-0.1-0.3-0.3S232.1,64.6,232.3,64.6z
			 M232.3,66.8c0.2,0,0.3,0.1,0.3,0.3c0,0.2-0.1,0.3-0.3,0.3c-0.2,0-0.3-0.1-0.3-0.3C232,66.9,232.1,66.8,232.3,66.8z"/>
	</g>
	<g>
		<path fill="#FFFFFF" d="M257.1,33c-0.1,0-0.2-0.1-0.2-0.2c0-0.1,0.1-0.2,0.2-0.2h2.1c0.1,0,0.2,0.1,0.2,0.2c0,0.1-0.1,0.2-0.2,0.2
			H257.1z M257.1,34.1c-0.1,0-0.2-0.1-0.2-0.2c0-0.1,0.1-0.2,0.2-0.2h2.1c0.1,0,0.2,0.1,0.2,0.2c0,0.1-0.1,0.2-0.2,0.2H257.1z"/>
	</g>
	<g>
		<path fill="#FFFFFF" d="M257.9,25.7c0-0.1,0.1-0.2,0.2-0.2s0.2,0.1,0.2,0.2v0.8h0.8c0.1,0,0.2,0.1,0.2,0.2c0,0.1-0.1,0.2-0.2,0.2
			h-0.8v0.8c0,0.1-0.1,0.2-0.2,0.2s-0.2-0.1-0.2-0.2V27h-0.8c-0.1,0-0.2-0.1-0.2-0.2c0-0.1,0.1-0.2,0.2-0.2h0.8V25.7z"/>
	</g>
	<circle fill="#FFFFFF" cx="10.8" cy="64.6" r="0.7"/>
	<g>
		<path fill="#FFFFFF" d="M403.1,30.2c-0.1,0-0.3-0.1-0.3-0.2s0.1-0.2,0.3-0.2h2.5c0.2,0,0.3,0.1,0.3,0.2s-0.1,0.2-0.3,0.2H403.1z
			 M403.1,31.4c-0.1,0-0.3-0.1-0.3-0.2s0.1-0.2,0.3-0.2h2.5c0.2,0,0.3,0.1,0.3,0.2s-0.1,0.2-0.3,0.2H403.1z"/>
	</g>
	<g>
		<path fill="#FFFFFF" d="M425.4,27.1c0-0.1,0.1-0.2,0.2-0.2c0.1,0,0.2,0.1,0.2,0.2c0,0,0,0.1-0.1,0.3l-1.6,3.7
			c0,0.1-0.1,0.2-0.2,0.2s-0.2-0.1-0.2-0.2c0,0,0-0.1,0.1-0.3L425.4,27.1z"/>
	</g>
	<g>
		<path fill="#FFFFFF" d="M444.1,29.7c-0.1-0.1-0.2-0.1-0.2-0.2c0-0.1,0.1-0.2,0.2-0.2c0.2,0,0.4,0.3,0.7,0.5c0-0.3-0.1-0.5-0.1-0.7
			c0-0.1,0.1-0.2,0.3-0.2s0.3,0.1,0.3,0.2c0,0.2-0.1,0.5-0.1,0.7c0.3-0.2,0.5-0.5,0.7-0.5c0.1,0,0.2,0.1,0.2,0.2
			c0,0.1,0,0.2-0.2,0.2l-0.6,0.3l0.6,0.3c0.1,0.1,0.2,0.1,0.2,0.2c0,0.1-0.1,0.2-0.2,0.2c-0.2,0-0.4-0.3-0.7-0.5
			c0,0.3,0.1,0.5,0.1,0.7c0,0.1-0.1,0.2-0.3,0.2s-0.3-0.1-0.3-0.2c0-0.2,0.1-0.5,0.1-0.7c-0.3,0.2-0.5,0.5-0.7,0.5
			c-0.1,0-0.2-0.1-0.2-0.2c0-0.1,0-0.2,0.2-0.2l0.6-0.3L444.1,29.7z"/>
	</g>
	<path fill="#FFFFFF" d="M443.8,49.8c-0.1,0-0.3-0.1-0.3-0.3s0.1-0.3,0.3-0.3h2.6c0.1,0,0.3,0.1,0.3,0.3s-0.1,0.3-0.3,0.3H443.8z"/>
	<path fill-rule="evenodd" clip-rule="evenodd" fill="#FFFFFF" d="M355,110.7v2.1c0,0,0,0,0,0c0,0,0,0,0,0l1.8-1c0,0,0,0,0,0
		c0,0,0,0,0,0L355,110.7C355.1,110.6,355.1,110.6,355,110.7C355,110.6,355,110.7,355,110.7z"/>
	<path fill-rule="evenodd" clip-rule="evenodd" fill="#FFFFFF" d="M316.6,113.2V111c0,0,0,0,0,0c0,0,0,0,0,0l-1.8,1c0,0,0,0,0,0
		c0,0,0,0,0,0L316.6,113.2C316.5,113.2,316.5,113.2,316.6,113.2C316.6,113.2,316.6,113.2,316.6,113.2z"/>
	<path fill-rule="evenodd" clip-rule="evenodd" fill="#FFFFFF" d="M335.1,92.8h2.1c0,0,0,0,0,0c0,0,0,0,0,0l-1-1.8c0,0,0,0,0,0
		c0,0,0,0,0,0L335.1,92.8C335,92.8,335,92.8,335.1,92.8C335,92.8,335.1,92.8,335.1,92.8z"/>
	<path fill-rule="evenodd" clip-rule="evenodd" fill="#FFFFFF" d="M336.7,110.6h-2.1c0,0,0,0,0,0c0,0,0,0,0,0l1,1.8c0,0,0,0,0,0
		c0,0,0,0,0,0L336.7,110.6C336.7,110.7,336.7,110.7,336.7,110.6C336.7,110.7,336.7,110.6,336.7,110.6z"/>
	<path fill="#FFFFFF" d="M16.4,31.8c-0.1-0.1-0.2-0.1-0.2-0.2c-0.1-0.2,0-0.3,0.1-0.4c0.1,0,0.2-0.1,0.4,0.1l0.7,0.5
		c0.1,0.1,0.2,0.1,0.2,0.2c0.1,0.2,0,0.3-0.1,0.4c-0.1,0-0.2,0.1-0.4-0.1L16.4,31.8z"/>
	<path fill="#FFFFFF" d="M237.3,33.3V33h1.7v0.2H237.3z"/>
	<path fill="#FFFFFF" d="M236.8,27.1v-0.4h2.6v0.4H236.8z"/>
	<g>
		<path fill="#F9F9FA" d="M221.5,92.9c0.2,0,0.3,0.1,0.3,0.3c0,0.2-0.1,0.3-0.3,0.3c-0.2,0-0.3-0.1-0.3-0.3
			C221.2,93.1,221.3,92.9,221.5,92.9z"/>
	</g>
	<g>
		<path fill="#FFFFFF" d="M222.3,85.8l-1.9-0.9c-0.1,0-0.2-0.1-0.2-0.2c0-0.1,0.1-0.2,0.2-0.2c0.1,0,0.1,0,0.2,0.1l2,1
			c0.1,0.1,0.2,0.1,0.2,0.2c0,0.1,0,0.2-0.2,0.2l-2,1c-0.1,0-0.2,0.1-0.2,0.1c-0.1,0-0.2-0.1-0.2-0.2s0.1-0.1,0.2-0.2L222.3,85.8z"
			/>
	</g>
	<g>
		<path fill="#FFFFFF" d="M10.5,91.7c0.3,0,0.7,0.2,0.7,0.4c0,0.1-0.1,0.1-0.2,0.1c-0.2,0-0.2-0.2-0.5-0.2c-0.2,0-0.4,0.1-0.4,0.3
			c0,0.4,1.1,0.3,1.1,0.9c0,0.4-0.4,0.7-0.8,0.7c-0.4,0-0.8-0.2-0.8-0.4c0-0.1,0.1-0.2,0.1-0.2c0.2,0,0.3,0.3,0.7,0.3
			c0.3,0,0.4-0.1,0.4-0.3c0-0.4-1.1-0.4-1.1-1C9.8,91.9,10.1,91.7,10.5,91.7z"/>
		<path fill="#FFFFFF" d="M12.9,92.5c0-0.4-0.3-0.5-0.5-0.5c-0.2,0-0.5,0.2-0.5,0.5v1.2c0,0.1-0.1,0.2-0.2,0.2s-0.2-0.1-0.2-0.2
			v-2.7c0-0.1,0.1-0.2,0.2-0.2s0.2,0.1,0.2,0.2v1l0,0c0.2-0.2,0.4-0.3,0.6-0.3c0.3,0,0.7,0.2,0.7,0.8v1.2c0,0.1-0.1,0.2-0.2,0.2
			c-0.1,0-0.2-0.1-0.2-0.2V92.5z"/>
		<path fill="#FFFFFF" d="M13.9,91c0.1,0,0.2,0.1,0.2,0.2c0,0.1-0.1,0.2-0.2,0.2c-0.1,0-0.2-0.1-0.2-0.2C13.7,91.1,13.8,91,13.9,91z
			 M14.1,93.7c0,0.1-0.1,0.2-0.2,0.2c-0.1,0-0.2-0.1-0.2-0.2v-1.8c0-0.1,0.1-0.2,0.2-0.2c0.1,0,0.2,0.1,0.2,0.2V93.7z"/>
		<path fill="#FFFFFF" d="M15,93.7c0,0.1-0.1,0.2-0.2,0.2c-0.1,0-0.2-0.1-0.2-0.2V92h-0.1c-0.1,0-0.2-0.1-0.2-0.2s0.1-0.2,0.2-0.2
			h0.1v-0.5c0-0.3,0.2-0.5,0.5-0.5h0.1c0.1,0,0.2,0.1,0.2,0.2c0,0.1-0.1,0.2-0.2,0.2h-0.1c-0.1,0-0.1,0.1-0.1,0.1v0.5h0.2
			c0.1,0,0.2,0.1,0.2,0.2S15.4,92,15.2,92H15V93.7z"/>
		<path fill="#FFFFFF" d="M15.7,91.3c0-0.1,0.1-0.2,0.2-0.2c0.1,0,0.2,0.1,0.2,0.2v0.5h0.1c0.1,0,0.2,0.1,0.2,0.2S16.3,92,16.2,92
			h-0.1v1.7c0,0.1-0.1,0.2-0.2,0.2c-0.1,0-0.2-0.1-0.2-0.2V92h-0.1c-0.1,0-0.2-0.1-0.2-0.2s0.1-0.2,0.2-0.2h0.1V91.3z"/>
	</g>
	<g>
		<path fill="#FFFFFF" d="M10.7,72.4c0.4,0,0.6,0.1,0.6,0.3c0,0.1-0.1,0.1-0.1,0.1c-0.1,0-0.2-0.1-0.4-0.1c-0.4,0-0.6,0.4-0.6,0.8
			s0.2,0.8,0.6,0.8c0.2,0,0.3-0.1,0.4-0.1c0.1,0,0.1,0.1,0.1,0.1c0,0.1-0.2,0.3-0.6,0.3c-0.6,0-1-0.5-1-1.1
			C9.7,73,10,72.4,10.7,72.4z"/>
		<path fill="#FFFFFF" d="M13.3,74.4c0,0.1-0.1,0.2-0.2,0.2c-0.1,0-0.2,0-0.2-0.2v-0.1h0c-0.2,0.2-0.4,0.3-0.6,0.3
			c-0.6,0-0.9-0.5-0.9-1.1c0-0.6,0.3-1.1,0.9-1.1c0.2,0,0.4,0.1,0.6,0.3h0v-0.1c0-0.1,0.1-0.2,0.2-0.2c0.1,0,0.2,0,0.2,0.2V74.4z
			 M12.4,74.3c0.4,0,0.6-0.4,0.6-0.8s-0.2-0.8-0.6-0.8c-0.4,0-0.6,0.4-0.6,0.8S12,74.3,12.4,74.3z"/>
		<path fill="#FFFFFF" d="M13.8,72.6c0-0.1,0.1-0.2,0.2-0.2s0.2,0.1,0.2,0.2v0.1h0c0.1-0.2,0.3-0.3,0.6-0.3c0.6,0,0.9,0.5,0.9,1.1
			c0,0.6-0.3,1.1-0.9,1.1c-0.3,0-0.5-0.2-0.6-0.3h0v0.9c0,0.1-0.1,0.2-0.2,0.2s-0.2-0.1-0.2-0.2V72.6z M14.7,74.3
			c0.4,0,0.6-0.4,0.6-0.8s-0.2-0.8-0.6-0.8s-0.6,0.4-0.6,0.8S14.3,74.3,14.7,74.3z"/>
		<path fill="#FFFFFF" d="M16.7,72.4c0.3,0,0.7,0.2,0.7,0.4c0,0.1-0.1,0.1-0.2,0.1c-0.2,0-0.2-0.2-0.5-0.2c-0.2,0-0.4,0.1-0.4,0.3
			c0,0.4,1.1,0.3,1.1,0.9c0,0.4-0.4,0.7-0.8,0.7c-0.4,0-0.8-0.2-0.8-0.4c0-0.1,0.1-0.2,0.1-0.2c0.2,0,0.3,0.3,0.7,0.3
			c0.3,0,0.4-0.1,0.4-0.3c0-0.4-1.1-0.4-1.1-1C16,72.7,16.4,72.4,16.7,72.4z"/>
		<path fill="#FFFFFF" d="M19.2,74.4c0,0.1-0.1,0.2-0.2,0.2c-0.1,0-0.2-0.1-0.2-0.2v-2.7c0-0.1,0.1-0.2,0.2-0.2
			c0.1,0,0.2,0.1,0.2,0.2V74.4z"/>
		<path fill="#FFFFFF" d="M20.5,72.4c0.6,0,0.9,0.5,0.9,1.1c0,0.6-0.3,1.1-0.9,1.1s-0.9-0.5-0.9-1.1C19.5,73,19.9,72.4,20.5,72.4z
			 M20.5,74.3c0.4,0,0.6-0.4,0.6-0.8s-0.2-0.8-0.6-0.8s-0.6,0.4-0.6,0.8S20,74.3,20.5,74.3z"/>
		<path fill="#FFFFFF" d="M22.6,72.4c0.4,0,0.6,0.1,0.6,0.3c0,0.1-0.1,0.1-0.1,0.1c-0.1,0-0.2-0.1-0.4-0.1c-0.4,0-0.6,0.4-0.6,0.8
			s0.2,0.8,0.6,0.8c0.2,0,0.3-0.1,0.4-0.1c0.1,0,0.1,0.1,0.1,0.1c0,0.1-0.2,0.3-0.6,0.3c-0.6,0-1-0.5-1-1.1
			C21.7,73,22,72.4,22.6,72.4z"/>
		<path fill="#FFFFFF" d="M23.6,71.7c0-0.1,0.1-0.2,0.2-0.2s0.2,0.1,0.2,0.2v1.5l0.8-0.6c0.1-0.1,0.1-0.1,0.2-0.1
			c0.1,0,0.1,0.1,0.1,0.2c0,0.1,0,0.1-0.1,0.2l-0.8,0.6l0.9,0.9c0.1,0.1,0.1,0.1,0.1,0.2c0,0.1-0.1,0.1-0.1,0.1
			c-0.1,0-0.1,0-0.2-0.1l-0.9-0.9v0.8c0,0.1-0.1,0.2-0.2,0.2s-0.2-0.1-0.2-0.2V71.7z"/>
	</g>
	<g>
		<path fill="#FFFFFF" d="M9.9,52.2c0-0.1,0.1-0.2,0.2-0.2c0.1,0,0.2,0.1,0.2,0.2v0.5h0.1c0.1,0,0.2,0.1,0.2,0.2S10.5,53,10.4,53
			h-0.1v1.7c0,0.1-0.1,0.2-0.2,0.2c-0.1,0-0.2-0.1-0.2-0.2V53H9.8c-0.1,0-0.2-0.1-0.2-0.2s0.1-0.2,0.2-0.2h0.1V52.2z"/>
		<path fill="#FFFFFF" d="M12.6,54.6c0,0.1-0.1,0.2-0.2,0.2c-0.1,0-0.2,0-0.2-0.2v-0.1h0c-0.2,0.2-0.4,0.3-0.6,0.3
			c-0.6,0-0.9-0.5-0.9-1.1s0.3-1.1,0.9-1.1c0.2,0,0.4,0.1,0.6,0.3h0v-0.1c0-0.1,0.1-0.2,0.2-0.2c0.1,0,0.2,0,0.2,0.2V54.6z
			 M11.7,54.5c0.4,0,0.6-0.4,0.6-0.8S12.1,53,11.7,53s-0.6,0.4-0.6,0.8S11.3,54.5,11.7,54.5z"/>
		<path fill="#FFFFFF" d="M13.1,51.9c0-0.1,0.1-0.2,0.2-0.2s0.2,0.1,0.2,0.2v1h0c0.1-0.1,0.3-0.3,0.6-0.3c0.6,0,0.9,0.5,0.9,1.1
			s-0.3,1.1-0.9,1.1c-0.3,0-0.5-0.1-0.6-0.3h0v0.1c0,0.1-0.1,0.2-0.2,0.2s-0.2-0.1-0.2-0.2V51.9z M14,54.5c0.4,0,0.6-0.4,0.6-0.8
			S14.4,53,14,53s-0.6,0.4-0.6,0.8S13.6,54.5,14,54.5z"/>
	</g>
	<path fill="#212121" stroke="#FFFFFF" stroke-width="0.25" stroke-linejoin="round" d="M296.3,56c0,1.1-0.9,2-2,2h-13.6
		c-1.1,0-2-0.9-2-2V43.5c0-1.1,0.9-2,2-2h13.6c1.1,0,2,0.9,2,2V56z"/>
	<g>
		<path fill="#FFFFFF" d="M286.5,51.9c-0.1-0.1-0.1-0.2-0.1-0.2c0-0.1,0.1-0.2,0.2-0.2s0.2,0.1,0.2,0.2l1.4,3.1
			c0,0.1,0.1,0.2,0.1,0.2c0,0.1-0.1,0.2-0.2,0.2s-0.2-0.1-0.2-0.2L286.5,51.9z"/>
	</g>
	<g>
		<path fill="#FFFFFF" d="M287.2,45.6c0-0.1,0-0.2,0-0.2c0-0.1,0.1-0.1,0.3-0.1s0.1,0.1,0.1,0.2l0,3.4c0,0.1,0,0.2,0,0.2
			c0,0.1-0.1,0.1-0.3,0.1c-0.1,0-0.1-0.1-0.1-0.2L287.2,45.6z"/>
	</g>
	<g>
		<path fill="#FFFFFF" d="M40.3,117.3c0,0.1-0.1,0.2-0.2,0.2c-0.1,0-0.2-0.1-0.2-0.2v-0.2h0c-0.2,0.2-0.4,0.4-0.6,0.4
			c-0.7,0-1-0.6-1-1.2c0-0.6,0.4-1.2,1-1.2c0.3,0,0.5,0.1,0.6,0.3h0v-0.1c0-0.1,0.1-0.2,0.2-0.2c0.1,0,0.2,0.1,0.2,0.2V117.3z
			 M39.3,117.2c0.5,0,0.7-0.5,0.7-0.9c0-0.4-0.2-0.9-0.7-0.9c-0.5,0-0.7,0.5-0.7,0.9C38.7,116.7,38.8,117.2,39.3,117.2z"/>
		<path fill="#FFFFFF" d="M41.3,117.3c0,0.1-0.1,0.2-0.2,0.2c-0.1,0-0.2-0.1-0.2-0.2v-3.1c0-0.1,0.1-0.2,0.2-0.2
			c0.1,0,0.2,0.1,0.2,0.2V117.3z"/>
		<path fill="#FFFFFF" d="M41.9,114.6c0-0.1,0.1-0.2,0.2-0.2c0.1,0,0.2,0.1,0.2,0.2v0.5h0.2c0.1,0,0.2,0.1,0.2,0.2
			c0,0.1-0.1,0.2-0.2,0.2h-0.2v1.9c0,0.1-0.1,0.2-0.2,0.2c-0.1,0-0.2-0.1-0.2-0.2v-1.9h-0.2c-0.1,0-0.2-0.1-0.2-0.2
			c0-0.1,0.1-0.2,0.2-0.2h0.2V114.6z"/>
	</g>
	<g>
		<path fill="#FFFFFF" d="M10.2,115.3c0.4,0,0.6,0.1,0.6,0.3c0,0.1-0.1,0.1-0.1,0.1c-0.1,0-0.2-0.1-0.4-0.1c-0.4,0-0.6,0.4-0.6,0.8
			s0.2,0.8,0.6,0.8c0.2,0,0.3-0.1,0.4-0.1c0.1,0,0.1,0.1,0.1,0.1c0,0.1-0.2,0.3-0.6,0.3c-0.6,0-1-0.5-1-1.1
			C9.3,115.9,9.6,115.3,10.2,115.3z"/>
		<path fill="#FFFFFF" d="M12,115.3c0.6,0,0.9,0.5,0.9,1.1c0,0.6-0.3,1.1-0.9,1.1c-0.6,0-0.9-0.5-0.9-1.1
			C11.1,115.9,11.4,115.3,12,115.3z M12,117.2c0.4,0,0.6-0.4,0.6-0.8s-0.2-0.8-0.6-0.8c-0.4,0-0.6,0.4-0.6,0.8S11.6,117.2,12,117.2z
			"/>
		<path fill="#FFFFFF" d="M13.3,115.5c0-0.1,0.1-0.2,0.2-0.2c0.1,0,0.2,0.1,0.2,0.2v0.1l0,0c0.2-0.2,0.4-0.3,0.6-0.3
			c0.3,0,0.7,0.2,0.7,0.8v1.2c0,0.1-0.1,0.2-0.2,0.2s-0.2-0.1-0.2-0.2v-1.2c0-0.4-0.3-0.5-0.5-0.5c-0.2,0-0.5,0.2-0.5,0.5v1.2
			c0,0.1-0.1,0.2-0.2,0.2c-0.1,0-0.2-0.1-0.2-0.2V115.5z"/>
		<path fill="#FFFFFF" d="M15.6,114.9c0-0.1,0.1-0.2,0.2-0.2c0.1,0,0.2,0.1,0.2,0.2v0.5h0.1c0.1,0,0.2,0.1,0.2,0.2
			c0,0.1-0.1,0.2-0.2,0.2h-0.1v1.7c0,0.1-0.1,0.2-0.2,0.2c-0.1,0-0.2-0.1-0.2-0.2v-1.7h-0.1c-0.1,0-0.2-0.1-0.2-0.2
			c0-0.1,0.1-0.2,0.2-0.2h0.1V114.9z"/>
		<path fill="#FFFFFF" d="M16.5,115.5c0-0.1,0.1-0.2,0.2-0.2s0.2,0.1,0.2,0.2v0.2h0c0.1-0.2,0.3-0.4,0.5-0.4c0.1,0,0.2,0.1,0.2,0.2
			c0,0.1-0.1,0.2-0.2,0.2c-0.2,0-0.5,0.2-0.5,0.6v1c0,0.1-0.1,0.2-0.2,0.2s-0.2-0.1-0.2-0.2V115.5z"/>
		<path fill="#FFFFFF" d="M18.6,115.3c0.6,0,0.9,0.5,0.9,1.1c0,0.6-0.3,1.1-0.9,1.1c-0.6,0-0.9-0.5-0.9-1.1
			C17.7,115.9,18,115.3,18.6,115.3z M18.6,117.2c0.4,0,0.6-0.4,0.6-0.8s-0.2-0.8-0.6-0.8c-0.4,0-0.6,0.4-0.6,0.8
			S18.2,117.2,18.6,117.2z"/>
		<path fill="#FFFFFF" d="M20.3,117.3c0,0.1-0.1,0.2-0.2,0.2c-0.1,0-0.2-0.1-0.2-0.2v-2.7c0-0.1,0.1-0.2,0.2-0.2
			c0.1,0,0.2,0.1,0.2,0.2V117.3z"/>
	</g>
	<g>
		<path fill="#FFFFFF" d="M271.5,115.3c0.4,0,0.6,0.1,0.6,0.3c0,0.1-0.1,0.1-0.1,0.1c-0.1,0-0.2-0.1-0.4-0.1c-0.4,0-0.6,0.4-0.6,0.8
			s0.2,0.8,0.6,0.8c0.2,0,0.3-0.1,0.4-0.1c0.1,0,0.1,0.1,0.1,0.1c0,0.1-0.2,0.3-0.6,0.3c-0.6,0-1-0.5-1-1.1
			C270.5,115.9,270.8,115.3,271.5,115.3z"/>
		<path fill="#FFFFFF" d="M273.2,115.3c0.6,0,0.9,0.5,0.9,1.1c0,0.6-0.3,1.1-0.9,1.1c-0.6,0-0.9-0.5-0.9-1.1
			C272.3,115.9,272.6,115.3,273.2,115.3z M273.2,117.2c0.4,0,0.6-0.4,0.6-0.8s-0.2-0.8-0.6-0.8c-0.4,0-0.6,0.4-0.6,0.8
			S272.8,117.2,273.2,117.2z"/>
		<path fill="#FFFFFF" d="M274.6,115.5c0-0.1,0.1-0.2,0.2-0.2c0.1,0,0.2,0.1,0.2,0.2v0.1l0,0c0.2-0.2,0.4-0.3,0.6-0.3
			c0.3,0,0.7,0.2,0.7,0.8v1.2c0,0.1-0.1,0.2-0.2,0.2s-0.2-0.1-0.2-0.2v-1.2c0-0.4-0.3-0.5-0.5-0.5c-0.2,0-0.5,0.2-0.5,0.5v1.2
			c0,0.1-0.1,0.2-0.2,0.2c-0.1,0-0.2-0.1-0.2-0.2V115.5z"/>
		<path fill="#FFFFFF" d="M276.8,114.9c0-0.1,0.1-0.2,0.2-0.2c0.1,0,0.2,0.1,0.2,0.2v0.5h0.1c0.1,0,0.2,0.1,0.2,0.2
			c0,0.1-0.1,0.2-0.2,0.2h-0.1v1.7c0,0.1-0.1,0.2-0.2,0.2c-0.1,0-0.2-0.1-0.2-0.2v-1.7h-0.1c-0.1,0-0.2-0.1-0.2-0.2
			c0-0.1,0.1-0.2,0.2-0.2h0.1V114.9z"/>
		<path fill="#FFFFFF" d="M277.7,115.5c0-0.1,0.1-0.2,0.2-0.2s0.2,0.1,0.2,0.2v0.2h0c0.1-0.2,0.3-0.4,0.5-0.4c0.1,0,0.2,0.1,0.2,0.2
			c0,0.1-0.1,0.2-0.2,0.2c-0.2,0-0.5,0.2-0.5,0.6v1c0,0.1-0.1,0.2-0.2,0.2s-0.2-0.1-0.2-0.2V115.5z"/>
		<path fill="#FFFFFF" d="M279.8,115.3c0.6,0,0.9,0.5,0.9,1.1c0,0.6-0.3,1.1-0.9,1.1c-0.6,0-0.9-0.5-0.9-1.1
			C278.9,115.9,279.2,115.3,279.8,115.3z M279.8,117.2c0.4,0,0.6-0.4,0.6-0.8s-0.2-0.8-0.6-0.8c-0.4,0-0.6,0.4-0.6,0.8
			S279.4,117.2,279.8,117.2z"/>
		<path fill="#FFFFFF" d="M281.5,117.3c0,0.1-0.1,0.2-0.2,0.2c-0.1,0-0.2-0.1-0.2-0.2v-2.7c0-0.1,0.1-0.2,0.2-0.2
			c0.1,0,0.2,0.1,0.2,0.2V117.3z"/>
	</g>
	<g>
		<path fill="#FFFFFF" d="M245.9,117.3c0,0.1-0.1,0.2-0.2,0.2c-0.1,0-0.2-0.1-0.2-0.2v-0.2h0c-0.2,0.2-0.4,0.4-0.6,0.4
			c-0.7,0-1-0.6-1-1.2c0-0.6,0.4-1.2,1-1.2c0.3,0,0.5,0.1,0.6,0.3h0v-0.1c0-0.1,0.1-0.2,0.2-0.2c0.1,0,0.2,0.1,0.2,0.2V117.3z
			 M244.9,117.2c0.5,0,0.7-0.5,0.7-0.9c0-0.4-0.2-0.9-0.7-0.9c-0.5,0-0.7,0.5-0.7,0.9C244.2,116.7,244.4,117.2,244.9,117.2z"/>
		<path fill="#FFFFFF" d="M246.8,117.3c0,0.1-0.1,0.2-0.2,0.2c-0.1,0-0.2-0.1-0.2-0.2v-3.1c0-0.1,0.1-0.2,0.2-0.2
			c0.1,0,0.2,0.1,0.2,0.2V117.3z"/>
		<path fill="#FFFFFF" d="M247.5,114.6c0-0.1,0.1-0.2,0.2-0.2c0.1,0,0.2,0.1,0.2,0.2v0.5h0.2c0.1,0,0.2,0.1,0.2,0.2
			c0,0.1-0.1,0.2-0.2,0.2h-0.2v1.9c0,0.1-0.1,0.2-0.2,0.2c-0.1,0-0.2-0.1-0.2-0.2v-1.9h-0.2c-0.1,0-0.2-0.1-0.2-0.2
			c0-0.1,0.1-0.2,0.2-0.2h0.2V114.6z"/>
	</g>
	<g>
		<path fill="#212121" stroke="#FFFFFF" stroke-width="0.25" stroke-linejoin="round" d="M296.4,95.5c0,1.1-0.9,2-2,2h-38.8
			c-1.1,0-2-0.9-2-2V83c0-1.1,0.9-2,2-2h38.8c1.1,0,2,0.9,2,2V95.5z"/>
	</g>
</g>
<g id="Layer_3">
	<g>
		<path d="M63.3,93c-0.4,0.2-1.2,0.4-2.1,0.4c-2.3,0-4-1.4-4-4.1c0-2.5,1.7-4.2,4.2-4.2c1,0,1.6,0.2,1.9,0.4l-0.3,0.9
			c-0.4-0.2-1-0.3-1.6-0.3c-1.9,0-3.2,1.2-3.2,3.3c0,2,1.1,3.3,3.1,3.3c0.6,0,1.3-0.1,1.7-0.3L63.3,93z"/>
	</g>
	<g>
		<path d="M77.1,85.3c0.6-0.1,1.4-0.2,2.2-0.2c1.5,0,2.6,0.3,3.3,1c0.7,0.7,1.1,1.6,1.1,2.9c0,1.3-0.4,2.4-1.2,3.1
			c-0.8,0.8-2,1.2-3.6,1.2c-0.7,0-1.4,0-1.9-0.1V85.3z M78.1,92.5c0.3,0,0.6,0.1,1.1,0.1c2.2,0,3.4-1.2,3.4-3.4
			c0-1.9-1.1-3.1-3.3-3.1c-0.5,0-0.9,0-1.2,0.1V92.5z"/>
	</g>
	<g>
		<path d="M102.5,89.5h-3.1v2.9h3.5v0.9h-4.5v-8.1h4.4v0.9h-3.3v2.6h3.1V89.5z"/>
	</g>
	<g>
		<path d="M118.6,85.2h4.4v0.9h-3.3v2.7h3.1v0.9h-3.1v3.7h-1V85.2z"/>
	</g>
	<g>
		<path d="M144.3,92.9c-0.5,0.2-1.4,0.4-2.5,0.4c-1.2,0-2.2-0.3-3-1.1c-0.7-0.7-1.1-1.8-1.1-3c0-2.4,1.7-4.2,4.4-4.2
			c0.9,0,1.7,0.2,2,0.4l-0.3,0.9c-0.4-0.2-1-0.3-1.8-0.3c-2,0-3.3,1.2-3.3,3.3c0,2.1,1.2,3.3,3.1,3.3c0.7,0,1.2-0.1,1.4-0.2v-2.4
			h-1.6V89h2.7V92.9z"/>
	</g>
	<g>
		<path d="M159.7,90.7l-0.8,2.5h-1.1l2.7-8.1h1.3l2.8,8.1h-1.1l-0.9-2.5H159.7z M162.3,89.9l-0.8-2.3c-0.2-0.5-0.3-1-0.4-1.5h0
			c-0.1,0.5-0.3,1-0.4,1.5l-0.8,2.3H162.3z"/>
	</g>
	<g>
		<path d="M178.8,85.3c0.5-0.1,1.2-0.2,1.9-0.2c1,0,1.7,0.2,2.2,0.6c0.4,0.3,0.7,0.8,0.7,1.4c0,0.8-0.5,1.5-1.4,1.8v0
			c0.8,0.2,1.7,0.8,1.7,2c0,0.7-0.3,1.2-0.7,1.6c-0.6,0.5-1.5,0.8-2.8,0.8c-0.7,0-1.3,0-1.6-0.1V85.3z M179.8,88.6h0.9
			c1.1,0,1.8-0.6,1.8-1.4c0-0.9-0.7-1.3-1.8-1.3c-0.5,0-0.8,0-0.9,0.1V88.6z M179.8,92.5c0.2,0,0.5,0,0.9,0c1.1,0,2.1-0.4,2.1-1.6
			c0-1.1-0.9-1.6-2.1-1.6h-0.9V92.5z"/>
	</g>
	<g>
		<path fill="#FFFFFF" d="M71.2,73.3c-0.4,0.2-1.2,0.4-2.1,0.4c-2.3,0-4-1.4-4-4.1c0-2.5,1.7-4.2,4.2-4.2c1,0,1.6,0.2,1.9,0.4
			l-0.3,0.9c-0.4-0.2-1-0.3-1.6-0.3c-1.9,0-3.2,1.2-3.2,3.3c0,2,1.1,3.3,3.1,3.3c0.6,0,1.3-0.1,1.7-0.3L71.2,73.3z"/>
		<path fill="#FFFFFF" d="M72.7,73.5l0.3-2.3h-1v-0.7h1.1l0.2-1.7h-1V68h1.1l0.3-2.3h0.7L74.2,68h1.2l0.3-2.3h0.7L76.1,68h1v0.7H76
			l-0.2,1.7h1v0.7h-1.1l-0.3,2.3h-0.7l0.3-2.3h-1.2l-0.3,2.3H72.7z M75.1,70.5l0.2-1.7h-1.2l-0.2,1.7H75.1z"/>
	</g>
	<g>
		<path fill="#FFFFFF" d="M85,65.6c0.6-0.1,1.4-0.2,2.2-0.2c1.5,0,2.6,0.3,3.3,1c0.7,0.7,1.1,1.6,1.1,2.9c0,1.3-0.4,2.4-1.2,3.1
			c-0.8,0.8-2,1.2-3.6,1.2c-0.7,0-1.4,0-1.9-0.1V65.6z M86,72.7c0.3,0,0.6,0.1,1.1,0.1c2.2,0,3.4-1.2,3.4-3.4c0-1.9-1.1-3.1-3.3-3.1
			c-0.5,0-0.9,0-1.2,0.1V72.7z"/>
		<path fill="#FFFFFF" d="M93.2,73.5l0.3-2.3h-1v-0.7h1.1l0.2-1.7h-1V68h1.1l0.3-2.3h0.7L94.6,68h1.2l0.3-2.3h0.7L96.6,68h1v0.7
			h-1.1l-0.2,1.7h1v0.7h-1.1l-0.3,2.3h-0.7l0.3-2.3h-1.2l-0.3,2.3H93.2z M95.5,70.5l0.2-1.7h-1.2l-0.2,1.7H95.5z"/>
	</g>
	<g>
		<path fill="#FFFFFF" d="M126.4,65.5h4.4v0.9h-3.3V69h3.1v0.9h-3.1v3.7h-1V65.5z"/>
		<path fill="#FFFFFF" d="M132.4,73.5l0.3-2.3h-1v-0.7h1.1l0.2-1.7h-1V68h1.1l0.3-2.3h0.7l-0.3,2.3h1.2l0.3-2.3h0.7l-0.3,2.3h1v0.7
			h-1.1l-0.2,1.7h1v0.7h-1.1l-0.3,2.3h-0.7l0.3-2.3h-1.2l-0.3,2.3H132.4z M134.8,70.5l0.2-1.7h-1.2l-0.2,1.7H134.8z"/>
	</g>
	<g>
		<path fill="#FFFFFF" d="M152,73.2c-0.5,0.2-1.4,0.4-2.5,0.4c-1.2,0-2.2-0.3-3-1.1c-0.7-0.7-1.1-1.8-1.1-3c0-2.4,1.7-4.2,4.4-4.2
			c0.9,0,1.7,0.2,2,0.4l-0.3,0.9c-0.4-0.2-1-0.3-1.8-0.3c-2,0-3.3,1.2-3.3,3.3c0,2.1,1.2,3.3,3.1,3.3c0.7,0,1.2-0.1,1.4-0.2v-2.4
			h-1.6v-0.8h2.7V73.2z"/>
		<path fill="#FFFFFF" d="M153.8,73.5l0.3-2.3h-1v-0.7h1.1l0.2-1.7h-1V68h1.1l0.3-2.3h0.7l-0.3,2.3h1.2l0.3-2.3h0.7l-0.3,2.3h1v0.7
			h-1.1l-0.2,1.7h1v0.7h-1.1l-0.3,2.3h-0.7l0.3-2.3h-1.2l-0.3,2.3H153.8z M156.2,70.5l0.2-1.7h-1.2l-0.2,1.7H156.2z"/>
	</g>
	<g>
		<path fill="#FFFFFF" d="M167.6,71l-0.8,2.5h-1.1l2.7-8.1h1.3l2.8,8.1h-1.1l-0.9-2.5H167.6z M170.3,70.2l-0.8-2.3
			c-0.2-0.5-0.3-1-0.4-1.5h0c-0.1,0.5-0.3,1-0.4,1.5l-0.8,2.3H170.3z"/>
		<path fill="#FFFFFF" d="M173.9,73.5l0.3-2.3h-1v-0.7h1.1l0.2-1.7h-1V68h1.1l0.3-2.3h0.7l-0.3,2.3h1.2l0.3-2.3h0.7l-0.3,2.3h1v0.7
			h-1.1l-0.2,1.7h1v0.7h-1.1l-0.3,2.3h-0.7l0.3-2.3h-1.2l-0.3,2.3H173.9z M176.3,70.5l0.2-1.7h-1.2l-0.2,1.7H176.3z"/>
	</g>
	<g>
		<path d="M48.9,53.5c-0.4,0.2-1.2,0.4-2.1,0.4c-2.3,0-4-1.4-4-4.1c0-2.5,1.7-4.2,4.2-4.2c1,0,1.6,0.2,1.9,0.4l-0.3,0.9
			c-0.4-0.2-1-0.3-1.6-0.3c-1.9,0-3.2,1.2-3.2,3.3c0,2,1.1,3.3,3.1,3.3c0.6,0,1.3-0.1,1.7-0.3L48.9,53.5z"/>
	</g>
	<g>
		<path d="M62.7,45.8c0.6-0.1,1.4-0.2,2.2-0.2c1.5,0,2.6,0.3,3.3,1c0.7,0.7,1.1,1.6,1.1,2.9c0,1.3-0.4,2.4-1.2,3.1
			c-0.8,0.8-2,1.2-3.6,1.2c-0.7,0-1.4,0-1.9-0.1V45.8z M63.7,53c0.3,0,0.6,0.1,1.1,0.1c2.2,0,3.4-1.2,3.4-3.4c0-1.9-1.1-3.1-3.3-3.1
			c-0.5,0-0.9,0-1.2,0.1V53z"/>
	</g>
	<g>
		<path d="M88.1,50H85v2.9h3.5v0.9h-4.5v-8.1h4.4v0.9H85v2.6h3.1V50z"/>
	</g>
	<g>
		<path d="M104.2,45.7h4.4v0.9h-3.3v2.7h3.1v0.9h-3.1v3.7h-1V45.7z"/>
	</g>
	<g>
		<path d="M129.9,53.4c-0.5,0.2-1.4,0.4-2.5,0.4c-1.2,0-2.2-0.3-3-1.1c-0.7-0.7-1.1-1.8-1.1-3c0-2.4,1.7-4.2,4.4-4.2
			c0.9,0,1.7,0.2,2,0.4l-0.3,0.9c-0.4-0.2-1-0.3-1.8-0.3c-2,0-3.3,1.2-3.3,3.3c0,2.1,1.2,3.3,3.1,3.3c0.7,0,1.2-0.1,1.4-0.2v-2.4
			h-1.6v-0.8h2.7V53.4z"/>
	</g>
	<g>
		<path d="M145.3,51.2l-0.8,2.5h-1.1l2.7-8.1h1.3l2.8,8.1H149l-0.9-2.5H145.3z M147.9,50.4l-0.8-2.3c-0.2-0.5-0.3-1-0.4-1.5h0
			c-0.1,0.5-0.3,1-0.4,1.5l-0.8,2.3H147.9z"/>
	</g>
	<g>
		<path d="M164.4,45.8c0.5-0.1,1.2-0.2,1.9-0.2c1,0,1.7,0.2,2.2,0.6c0.4,0.3,0.7,0.8,0.7,1.4c0,0.8-0.5,1.5-1.4,1.8v0
			c0.8,0.2,1.7,0.8,1.7,2c0,0.7-0.3,1.2-0.7,1.6c-0.6,0.5-1.5,0.8-2.8,0.8c-0.7,0-1.3,0-1.6-0.1V45.8z M165.4,49.1h0.9
			c1.1,0,1.8-0.6,1.8-1.4c0-0.9-0.7-1.3-1.8-1.3c-0.5,0-0.8,0-0.9,0.1V49.1z M165.4,53c0.2,0,0.5,0,0.9,0c1.1,0,2.1-0.4,2.1-1.6
			c0-1.1-0.9-1.6-2.1-1.6h-0.9V53z"/>
	</g>
	<g>
		<path d="M190,53.5c-0.4,0.2-1.2,0.4-2.1,0.4c-2.3,0-4-1.4-4-4.1c0-2.5,1.7-4.2,4.2-4.2c1,0,1.6,0.2,1.9,0.4l-0.3,0.9
			c-0.4-0.2-1-0.3-1.6-0.3c-1.9,0-3.2,1.2-3.2,3.3c0,2,1.1,3.3,3.1,3.3c0.6,0,1.3-0.1,1.7-0.3L190,53.5z"/>
	</g>
	<g>
		<path d="M203.8,45.8c0.6-0.1,1.4-0.2,2.2-0.2c1.5,0,2.6,0.3,3.3,1c0.7,0.7,1.1,1.6,1.1,2.9c0,1.3-0.4,2.4-1.2,3.1
			c-0.8,0.8-2,1.2-3.6,1.2c-0.7,0-1.4,0-1.9-0.1V45.8z M204.8,53c0.3,0,0.6,0.1,1.1,0.1c2.2,0,3.4-1.2,3.4-3.4
			c0-1.9-1.1-3.1-3.3-3.1c-0.5,0-0.9,0-1.2,0.1V53z"/>
	</g>
	<g>
		<path fill="#FFFFFF" d="M57.7,33c-0.4,0.2-1.2,0.4-2.1,0.4c-2.3,0-4-1.4-4-4.1c0-2.5,1.7-4.2,4.2-4.2c1,0,1.6,0.2,1.9,0.4
			l-0.3,0.9c-0.4-0.2-1-0.3-1.6-0.3c-1.9,0-3.2,1.2-3.2,3.3c0,2,1.1,3.3,3.1,3.3c0.6,0,1.3-0.1,1.7-0.3L57.7,33z"/>
		<path fill="#FFFFFF" d="M59.2,33.2l0.3-2.3h-1v-0.7h1.1l0.2-1.7h-1v-0.7H60l0.3-2.3H61l-0.3,2.3h1.2l0.3-2.3h0.7l-0.3,2.3h1v0.7
			h-1.1l-0.2,1.7h1v0.7h-1.1l-0.3,2.3h-0.7l0.3-2.3h-1.2l-0.3,2.3H59.2z M61.6,30.2l0.2-1.7h-1.2l-0.2,1.7H61.6z"/>
	</g>
	<g>
		<path fill="#FFFFFF" d="M71.5,25.2c0.6-0.1,1.4-0.2,2.2-0.2c1.5,0,2.6,0.3,3.3,1c0.7,0.7,1.1,1.6,1.1,2.9c0,1.3-0.4,2.4-1.2,3.1
			c-0.8,0.8-2,1.2-3.6,1.2c-0.7,0-1.4,0-1.9-0.1V25.2z M72.5,32.4c0.3,0,0.6,0.1,1.1,0.1c2.2,0,3.4-1.2,3.4-3.4
			c0-1.9-1.1-3.1-3.3-3.1c-0.5,0-0.9,0-1.2,0.1V32.4z"/>
		<path fill="#FFFFFF" d="M79.7,33.2l0.3-2.3h-1v-0.7h1.1l0.2-1.7h-1v-0.7h1.1l0.3-2.3h0.7l-0.3,2.3h1.2l0.3-2.3h0.7l-0.3,2.3h1v0.7
			H83l-0.2,1.7h1v0.7h-1.1l-0.3,2.3h-0.7l0.3-2.3h-1.2l-0.3,2.3H79.7z M82,30.2l0.2-1.7H81l-0.2,1.7H82z"/>
	</g>
	<g>
		<path fill="#FFFFFF" d="M112.9,25.1h4.4V26h-3.3v2.7h3.1v0.9h-3.1v3.7h-1V25.1z"/>
		<path fill="#FFFFFF" d="M119,33.2l0.3-2.3h-1v-0.7h1.1l0.2-1.7h-1v-0.7h1.1l0.3-2.3h0.7l-0.3,2.3h1.2l0.3-2.3h0.7l-0.3,2.3h1v0.7
			h-1.1l-0.2,1.7h1v0.7H122l-0.3,2.3h-0.7l0.3-2.3H120l-0.3,2.3H119z M121.3,30.2l0.2-1.7h-1.2l-0.2,1.7H121.3z"/>
	</g>
	<g>
		<path fill="#FFFFFF" d="M138.5,32.9c-0.5,0.2-1.4,0.4-2.5,0.4c-1.2,0-2.2-0.3-3-1.1c-0.7-0.7-1.1-1.8-1.1-3c0-2.4,1.7-4.2,4.4-4.2
			c0.9,0,1.7,0.2,2,0.4l-0.3,0.9c-0.4-0.2-1-0.3-1.8-0.3c-2,0-3.3,1.2-3.3,3.3c0,2.1,1.2,3.3,3.1,3.3c0.7,0,1.2-0.1,1.4-0.2v-2.4
			h-1.6V29h2.7V32.9z"/>
		<path fill="#FFFFFF" d="M140.3,33.2l0.3-2.3h-1v-0.7h1.1l0.2-1.7h-1v-0.7h1.1l0.3-2.3h0.7l-0.3,2.3h1.2l0.3-2.3h0.7l-0.3,2.3h1
			v0.7h-1.1l-0.2,1.7h1v0.7h-1.1l-0.3,2.3h-0.7l0.3-2.3h-1.2l-0.3,2.3H140.3z M142.7,30.2l0.2-1.7h-1.2l-0.2,1.7H142.7z"/>
	</g>
	<g>
		<path fill="#FFFFFF" d="M154.1,30.7l-0.8,2.5h-1.1l2.7-8.1h1.3l2.8,8.1h-1.1l-0.9-2.5H154.1z M156.8,29.9l-0.8-2.3
			c-0.2-0.5-0.3-1-0.4-1.5h0c-0.1,0.5-0.3,1-0.4,1.5l-0.8,2.3H156.8z"/>
		<path fill="#FFFFFF" d="M160.4,33.2l0.3-2.3h-1v-0.7h1.1l0.2-1.7h-1v-0.7h1.1l0.3-2.3h0.7l-0.3,2.3h1.2l0.3-2.3h0.7l-0.3,2.3h1
			v0.7h-1.1l-0.2,1.7h1v0.7h-1.1l-0.3,2.3h-0.7l0.3-2.3h-1.2l-0.3,2.3H160.4z M162.8,30.2l0.2-1.7h-1.2l-0.2,1.7H162.8z"/>
	</g>
	<g>
		<path fill="#FFFFFF" d="M197.8,33.1c-0.4,0.2-1.2,0.4-2.1,0.4c-2.3,0-4-1.4-4-4.1c0-2.5,1.7-4.2,4.2-4.2c1,0,1.6,0.2,1.9,0.4
			l-0.3,0.9c-0.4-0.2-1-0.3-1.6-0.3c-1.9,0-3.2,1.2-3.2,3.3c0,2,1.1,3.3,3.1,3.3c0.6,0,1.3-0.1,1.7-0.3L197.8,33.1z"/>
		<path fill="#FFFFFF" d="M199.4,33.4l0.3-2.3h-1v-0.7h1.1l0.2-1.7h-1v-0.7h1.1l0.3-2.3h0.7l-0.3,2.3h1.2l0.3-2.3h0.7l-0.3,2.3h1
			v0.7h-1.1l-0.2,1.7h1V31h-1.1l-0.3,2.3h-0.7l0.3-2.3h-1.2l-0.3,2.3H199.4z M201.8,30.3l0.2-1.7h-1.2l-0.2,1.7H201.8z"/>
	</g>
	<g>
		<path fill="#FFFFFF" d="M226.3,51.6c0,0.2-0.1,0.3-0.3,0.3s-0.3-0.1-0.3-0.3v-4c0-0.2,0.1-0.3,0.3-0.3h1.1c0.9,0,1.5,0.6,1.5,1.5
			c0,0.8-0.6,1.4-1.5,1.4h-0.9V51.6z M226.3,49.6h0.8c0.6,0,0.9-0.4,0.9-0.9c0-0.5-0.3-1-1-1h-0.8V49.6z"/>
	</g>
	<g>
		<path fill="#FFFFFF" d="M49.3,71.5c0,0.1-0.1,0.2-0.3,0.2c-0.1,0-0.3-0.1-0.3-0.2c0-0.1,0.1-0.2,0.1-0.3l1.4-3.8
			c0.1-0.2,0.2-0.4,0.4-0.4c0.2,0,0.3,0.1,0.4,0.4l1.4,3.8c0,0.1,0.1,0.2,0.1,0.3c0,0.1-0.1,0.2-0.3,0.2c-0.2,0-0.2-0.1-0.3-0.2
			l-0.3-0.8h-2.1L49.3,71.5z M50.7,67.7L50.7,67.7l-0.9,2.5h1.8L50.7,67.7z"/>
	</g>
	<g>
		<path fill="#FFFFFF" d="M111.1,71.4c0,0.2-0.1,0.3-0.3,0.3s-0.3-0.1-0.3-0.3v-4c0-0.2,0.1-0.3,0.3-0.3h1.6c0.2,0,0.3,0.1,0.3,0.3
			c0,0.2-0.1,0.3-0.3,0.3h-1.4v1.5h1.2c0.2,0,0.3,0.1,0.3,0.3c0,0.2-0.1,0.3-0.3,0.3h-1.2V71.4z"/>
	</g>
	<g>
		<path fill="#FFFFFF" d="M191,71.4c0,0.2-0.1,0.3-0.3,0.3s-0.3-0.1-0.3-0.3v-4.1c0-0.2,0.1-0.3,0.3-0.3s0.3,0.1,0.3,0.3V69l2-1.8
			c0.1-0.1,0.2-0.2,0.3-0.2c0.1,0,0.2,0.1,0.2,0.2c0,0.1-0.1,0.2-0.1,0.3l-1.9,1.7l2.1,2c0.1,0.1,0.1,0.2,0.1,0.2
			c0,0.1-0.1,0.3-0.3,0.3c-0.1,0-0.2,0-0.3-0.1l-2.2-2.1V71.4z"/>
	</g>
	<g>
		<path fill="#FFFFFF" d="M211.8,71.1h1.2c0.2,0,0.3,0.1,0.3,0.3s-0.1,0.3-0.3,0.3h-1.5c-0.2,0-0.3-0.1-0.3-0.3v-4.1
			c0-0.2,0.1-0.3,0.3-0.3c0.2,0,0.3,0.1,0.3,0.3V71.1z"/>
	</g>
	<g>
		<path fill="#FFFFFF" d="M315.4,30.6c0,0.1-0.1,0.2-0.2,0.2s-0.2-0.1-0.2-0.2v-1.7h-0.1c-0.1,0-0.2-0.1-0.2-0.2s0.1-0.2,0.2-0.2
			h0.1v-0.5c0-0.3,0.2-0.5,0.5-0.5h0.1c0.1,0,0.2,0.1,0.2,0.2c0,0.1-0.1,0.2-0.2,0.2h-0.1c-0.1,0-0.1,0.1-0.1,0.1v0.5h0.2
			c0.1,0,0.2,0.1,0.2,0.2s-0.1,0.2-0.2,0.2h-0.2V30.6z"/>
		<path fill="#FFFFFF" d="M316,28.8c0-0.1,0.1-0.2,0.2-0.2c0.1,0,0.2,0.1,0.2,0.2v0.1l0,0c0.2-0.2,0.4-0.3,0.6-0.3
			c0.3,0,0.7,0.2,0.7,0.8v1.2c0,0.1-0.1,0.2-0.2,0.2s-0.2-0.1-0.2-0.2v-1.2c0-0.4-0.3-0.5-0.5-0.5c-0.2,0-0.5,0.2-0.5,0.5v1.2
			c0,0.1-0.1,0.2-0.2,0.2c-0.1,0-0.2-0.1-0.2-0.2V28.8z"/>
	</g>
	<g>
		<path fill="#FFFFFF" d="M333.1,30c0-0.3-0.2-0.5-0.4-0.5c-0.2,0-0.4,0.1-0.4,0.5v1c0,0.1-0.1,0.2-0.2,0.2S332,31.1,332,31v-2.4
			c0-0.1,0.1-0.2,0.2-0.2s0.2,0.1,0.2,0.2v0.9l0,0c0.1-0.2,0.3-0.2,0.5-0.2c0.3,0,0.6,0.2,0.6,0.7v1c0,0.1-0.1,0.2-0.2,0.2
			s-0.2-0.1-0.2-0.2V30z"/>
		<path fill="#FFFFFF" d="M334.6,29.2c0.5,0,0.8,0.5,0.8,1c0,0.5-0.3,1-0.8,1c-0.5,0-0.8-0.5-0.8-1
			C333.8,29.7,334.1,29.2,334.6,29.2z M334.6,30.9c0.4,0,0.5-0.4,0.5-0.7s-0.1-0.7-0.5-0.7c-0.4,0-0.5,0.4-0.5,0.7
			S334.2,30.9,334.6,30.9z"/>
		<path fill="#FFFFFF" d="M336.8,29.9c0-0.3-0.1-0.4-0.4-0.4c-0.2,0-0.4,0.2-0.4,0.4v1c0,0.1-0.1,0.2-0.2,0.2s-0.2-0.1-0.2-0.2v-1.6
			c0-0.1,0.1-0.2,0.2-0.2s0.2,0.1,0.2,0.2v0.1l0,0c0.1-0.1,0.2-0.2,0.5-0.2c0.2,0,0.4,0.1,0.5,0.3c0.1-0.2,0.3-0.3,0.6-0.3
			c0.3,0,0.6,0.2,0.6,0.7v1c0,0.1-0.1,0.2-0.2,0.2s-0.2-0.1-0.2-0.2v-1c0-0.3-0.1-0.4-0.4-0.4c-0.2,0-0.4,0.2-0.4,0.4v1
			c0,0.1-0.1,0.2-0.2,0.2s-0.2-0.1-0.2-0.2V29.9z"/>
		<path fill="#FFFFFF" d="M338.8,30.3c0,0.3,0.2,0.6,0.5,0.6c0.4,0,0.5-0.3,0.6-0.3c0.1,0,0.1,0,0.1,0.1c0,0.2-0.4,0.4-0.7,0.4
			c-0.6,0-0.9-0.5-0.9-1c0-0.5,0.3-1,0.8-1c0.5,0,0.8,0.5,0.8,0.9c0,0.1,0,0.2-0.2,0.2H338.8z M339.9,30.1c0-0.3-0.2-0.6-0.5-0.6
			c-0.4,0-0.5,0.3-0.5,0.6H339.9z"/>
	</g>
	<g>
		<path fill="#FFFFFF" d="M333.3,49.8c0,0.3,0.2,0.6,0.5,0.6c0.4,0,0.5-0.3,0.6-0.3c0.1,0,0.1,0,0.1,0.1c0,0.1-0.4,0.4-0.7,0.4
			c-0.6,0-0.9-0.5-0.9-1c0-0.5,0.3-1,0.8-1c0.5,0,0.8,0.5,0.8,0.9c0,0.1,0,0.2-0.2,0.2H333.3z M334.3,49.6c0-0.3-0.2-0.6-0.5-0.6
			c-0.4,0-0.5,0.3-0.5,0.6H334.3z"/>
		<path fill="#FFFFFF" d="M334.9,48.9c0-0.1,0.1-0.2,0.2-0.2c0.1,0,0.2,0.1,0.2,0.2V49l0,0c0.1-0.2,0.3-0.2,0.5-0.2
			c0.3,0,0.6,0.2,0.6,0.7v1c0,0.1-0.1,0.2-0.2,0.2c-0.1,0-0.2-0.1-0.2-0.2v-1c0-0.3-0.2-0.5-0.4-0.5s-0.4,0.1-0.4,0.5v1
			c0,0.1-0.1,0.2-0.2,0.2c-0.1,0-0.2-0.1-0.2-0.2V48.9z"/>
		<path fill="#FFFFFF" d="M338,50.4L338,50.4c-0.1,0.2-0.3,0.3-0.5,0.3c-0.5,0-0.8-0.5-0.8-1s0.3-1,0.8-1c0.2,0,0.4,0.1,0.5,0.3h0
			v-0.9c0-0.1,0.1-0.2,0.2-0.2c0.1,0,0.2,0.1,0.2,0.2v2.4c0,0.1-0.1,0.2-0.2,0.2C338.1,50.7,338,50.6,338,50.4L338,50.4z M337.5,49
			c-0.4,0-0.5,0.4-0.5,0.7s0.1,0.7,0.5,0.7s0.5-0.4,0.5-0.7S337.9,49,337.5,49z"/>
	</g>
	<g>
		<path fill="#FFFFFF" d="M352.3,27.7c0-0.1,0.1-0.2,0.2-0.2c0.1,0,0.2,0.1,0.2,0.2v0.1h0c0.1-0.2,0.3-0.3,0.5-0.3
			c0.5,0,0.8,0.5,0.8,1s-0.3,1-0.8,1c-0.2,0-0.4-0.1-0.5-0.3h0V30c0,0.1-0.1,0.2-0.2,0.2c-0.1,0-0.2-0.1-0.2-0.2V27.7z M353.1,29.2
			c0.4,0,0.5-0.4,0.5-0.7s-0.1-0.7-0.5-0.7s-0.5,0.4-0.5,0.7S352.7,29.2,353.1,29.2z"/>
		<path fill="#FFFFFF" d="M355.8,29.3c0,0.1-0.1,0.2-0.1,0.2c-0.1,0-0.1,0-0.1-0.2v-0.1h0c-0.1,0.2-0.3,0.3-0.5,0.3
			c-0.5,0-0.8-0.5-0.8-1s0.3-1,0.8-1c0.2,0,0.4,0.1,0.5,0.2h0v-0.1c0-0.1,0.1-0.2,0.1-0.2c0.1,0,0.1,0,0.1,0.2V29.3z M355,29.2
			c0.4,0,0.5-0.4,0.5-0.7s-0.1-0.7-0.5-0.7s-0.5,0.4-0.5,0.7S354.6,29.2,355,29.2z"/>
		<path fill="#FFFFFF" d="M357.7,29.3c0,0.6-0.3,0.9-0.8,0.9c-0.3,0-0.7-0.2-0.7-0.3c0-0.1,0-0.1,0.1-0.1c0.1,0,0.3,0.2,0.6,0.2
			c0.4,0,0.5-0.3,0.5-0.6v-0.2h0c-0.1,0.2-0.3,0.3-0.5,0.3c-0.5,0-0.8-0.5-0.8-1s0.3-1,0.8-1c0.2,0,0.4,0.1,0.5,0.2h0v-0.1
			c0-0.1,0.1-0.2,0.2-0.2c0.1,0,0.1,0,0.1,0.2V29.3z M356.9,29.2c0.4,0,0.5-0.4,0.5-0.7s-0.1-0.7-0.5-0.7c-0.4,0-0.5,0.4-0.5,0.7
			S356.6,29.2,356.9,29.2z"/>
		<path fill="#FFFFFF" d="M358.4,28.6c0,0.3,0.2,0.6,0.5,0.6c0.4,0,0.5-0.3,0.6-0.3c0.1,0,0.1,0,0.1,0.1c0,0.2-0.4,0.4-0.7,0.4
			c-0.6,0-0.9-0.5-0.9-1c0-0.5,0.3-1,0.8-1c0.5,0,0.8,0.5,0.8,0.9c0,0.1,0,0.2-0.2,0.2H358.4z M359.4,28.4c0-0.3-0.2-0.6-0.5-0.6
			c-0.4,0-0.5,0.3-0.5,0.6H359.4z"/>
		<path fill="#FFFFFF" d="M354.7,31.2c0-0.1,0.1-0.2,0.2-0.2c0.1,0,0.2,0.1,0.2,0.2v1c0,0.3,0.1,0.5,0.4,0.5s0.4-0.2,0.4-0.5v-1
			c0-0.1,0.1-0.2,0.2-0.2c0.1,0,0.2,0.1,0.2,0.2v1c0,0.5-0.4,0.7-0.7,0.7s-0.7-0.2-0.7-0.7V31.2z"/>
		<path fill="#FFFFFF" d="M356.6,31.2c0-0.1,0.1-0.2,0.2-0.2s0.2,0.1,0.2,0.2v0.1h0c0.1-0.2,0.3-0.3,0.5-0.3c0.5,0,0.8,0.5,0.8,1
			s-0.3,1-0.8,1c-0.2,0-0.4-0.1-0.5-0.3h0v0.8c0,0.1-0.1,0.2-0.2,0.2s-0.2-0.1-0.2-0.2V31.2z M357.4,32.7c0.4,0,0.5-0.4,0.5-0.7
			s-0.1-0.7-0.5-0.7c-0.4,0-0.5,0.4-0.5,0.7S357,32.7,357.4,32.7z"/>
	</g>
	<g>
		<path fill="#FFFFFF" d="M352.3,47.4c0-0.1,0.1-0.2,0.2-0.2c0.1,0,0.2,0.1,0.2,0.2v0.1h0c0.1-0.2,0.3-0.3,0.5-0.3
			c0.5,0,0.8,0.5,0.8,1s-0.3,1-0.8,1c-0.2,0-0.4-0.1-0.5-0.3h0v0.8c0,0.1-0.1,0.2-0.2,0.2c-0.1,0-0.2-0.1-0.2-0.2V47.4z M353.1,48.8
			c0.4,0,0.5-0.4,0.5-0.7s-0.1-0.7-0.5-0.7s-0.5,0.4-0.5,0.7S352.7,48.8,353.1,48.8z"/>
		<path fill="#FFFFFF" d="M355.8,48.9c0,0.1-0.1,0.2-0.1,0.2c-0.1,0-0.1,0-0.1-0.2v-0.1h0c-0.1,0.2-0.3,0.3-0.5,0.3
			c-0.5,0-0.8-0.5-0.8-1s0.3-1,0.8-1c0.2,0,0.4,0.1,0.5,0.2h0v-0.1c0-0.1,0.1-0.2,0.1-0.2c0.1,0,0.1,0,0.1,0.2V48.9z M355,48.8
			c0.4,0,0.5-0.4,0.5-0.7s-0.1-0.7-0.5-0.7s-0.5,0.4-0.5,0.7S354.6,48.8,355,48.8z"/>
		<path fill="#FFFFFF" d="M357.7,48.9c0,0.6-0.3,0.9-0.8,0.9c-0.3,0-0.7-0.2-0.7-0.3c0-0.1,0-0.1,0.1-0.1c0.1,0,0.3,0.2,0.6,0.2
			c0.4,0,0.5-0.3,0.5-0.6v-0.2h0c-0.1,0.2-0.3,0.3-0.5,0.3c-0.5,0-0.8-0.5-0.8-1s0.3-1,0.8-1c0.2,0,0.4,0.1,0.5,0.2h0v-0.1
			c0-0.1,0.1-0.2,0.2-0.2c0.1,0,0.1,0,0.1,0.2V48.9z M356.9,48.8c0.4,0,0.5-0.4,0.5-0.7s-0.1-0.7-0.5-0.7c-0.4,0-0.5,0.4-0.5,0.7
			S356.6,48.8,356.9,48.8z"/>
		<path fill="#FFFFFF" d="M358.4,48.3c0,0.3,0.2,0.6,0.5,0.6c0.4,0,0.5-0.3,0.6-0.3c0.1,0,0.1,0,0.1,0.1c0,0.2-0.4,0.4-0.7,0.4
			c-0.6,0-0.9-0.5-0.9-1c0-0.5,0.3-1,0.8-1c0.5,0,0.8,0.5,0.8,0.9c0,0.1,0,0.2-0.2,0.2H358.4z M359.4,48c0-0.3-0.2-0.6-0.5-0.6
			c-0.4,0-0.5,0.3-0.5,0.6H359.4z"/>
		<path fill="#FFFFFF" d="M353.6,52.3L353.6,52.3c-0.1,0.2-0.3,0.3-0.5,0.3c-0.5,0-0.8-0.5-0.8-1s0.3-1,0.8-1c0.2,0,0.4,0.1,0.5,0.3
			h0V50c0-0.1,0.1-0.2,0.2-0.2c0.1,0,0.2,0.1,0.2,0.2v2.4c0,0.1-0.1,0.2-0.2,0.2C353.7,52.6,353.6,52.5,353.6,52.3L353.6,52.3z
			 M353.2,51c-0.4,0-0.5,0.4-0.5,0.7s0.1,0.7,0.5,0.7c0.4,0,0.5-0.4,0.5-0.7S353.5,51,353.2,51z"/>
		<path fill="#FFFFFF" d="M355.1,50.7c0.5,0,0.8,0.5,0.8,1s-0.3,1-0.8,1s-0.8-0.5-0.8-1S354.6,50.7,355.1,50.7z M355.1,52.3
			c0.4,0,0.5-0.4,0.5-0.7s-0.1-0.7-0.5-0.7s-0.5,0.4-0.5,0.7S354.7,52.3,355.1,52.3z"/>
		<path fill="#FFFFFF" d="M356.1,50.9c0,0,0-0.1,0-0.1c0-0.1,0-0.1,0.1-0.1c0.1,0,0.1,0,0.2,0.2l0.4,1.3h0l0.4-1.2
			c0-0.1,0.1-0.2,0.2-0.2s0.1,0.1,0.2,0.2l0.4,1.2h0l0.4-1.3c0-0.1,0.1-0.2,0.2-0.2c0.1,0,0.1,0.1,0.1,0.1c0,0,0,0.1,0,0.1l-0.5,1.5
			c0,0.1-0.1,0.2-0.2,0.2c-0.1,0-0.1,0-0.2-0.2l-0.4-1.3h0l-0.4,1.3c0,0.1-0.1,0.2-0.2,0.2c-0.1,0-0.1,0-0.2-0.2L356.1,50.9z"/>
		<path fill="#FFFFFF" d="M358.9,50.9c0-0.1,0.1-0.2,0.2-0.2s0.2,0.1,0.2,0.2v0.1l0,0c0.1-0.2,0.3-0.2,0.5-0.2
			c0.3,0,0.6,0.2,0.6,0.7v1c0,0.1-0.1,0.2-0.2,0.2s-0.2-0.1-0.2-0.2v-1c0-0.3-0.2-0.5-0.4-0.5c-0.2,0-0.4,0.1-0.4,0.5v1
			c0,0.1-0.1,0.2-0.2,0.2s-0.2-0.1-0.2-0.2V50.9z"/>
	</g>
	<g>
		<path fill="#FFFFFF" d="M320.1,16c0,0.1,0,0.1-0.1,0.1c-0.1,0-0.1,0-0.1-0.1v-1.5c0-0.1,0-0.1,0.1-0.1h0.6c0.1,0,0.1,0,0.1,0.1
			s0,0.1-0.1,0.1h-0.5v0.6h0.4c0.1,0,0.1,0,0.1,0.1c0,0.1,0,0.1-0.1,0.1h-0.4V16z"/>
		<path fill="#FFFFFF" d="M321.3,14.6h-0.2c0,0-0.1,0-0.1-0.1c0-0.1,0-0.1,0.1-0.1h0.4c0,0,0.1,0,0.1,0.1V16c0,0.1,0,0.1-0.1,0.1
			s-0.1,0-0.1-0.1V14.6z"/>
		<path fill="#FFFFFF" d="M322.5,16.1c-0.4,0-0.5-0.3-0.5-0.4c0-0.1,0-0.1,0.1-0.1c0.1,0,0.1,0,0.1,0.1c0,0.1,0.1,0.2,0.3,0.2
			c0.2,0,0.3-0.1,0.3-0.3c0-0.3-0.1-0.3-0.3-0.3c-0.1,0-0.1,0-0.1-0.1c0,0,0-0.1,0.1-0.1c0.2,0,0.2-0.1,0.2-0.3
			c0-0.2-0.1-0.3-0.2-0.3c-0.2,0-0.2,0.1-0.2,0.2c0,0.1-0.1,0.1-0.1,0.1c-0.1,0-0.1,0-0.1-0.1c0-0.2,0.2-0.4,0.4-0.4
			c0.3,0,0.4,0.2,0.4,0.4c0,0.1-0.1,0.3-0.2,0.4c0.2,0.1,0.3,0.2,0.3,0.4C323,15.9,322.8,16.1,322.5,16.1z"/>
	</g>
	<g>
		<path fill="#FFFFFF" d="M340.1,16c0,0.1,0,0.1-0.1,0.1s-0.1,0-0.1-0.1v-1.5c0-0.1,0-0.1,0.1-0.1h0.6c0.1,0,0.1,0,0.1,0.1
			s0,0.1-0.1,0.1h-0.5v0.6h0.4c0.1,0,0.1,0,0.1,0.1c0,0.1,0,0.1-0.1,0.1h-0.4V16z"/>
		<path fill="#FFFFFF" d="M341.2,14.6H341c-0.1,0-0.1,0-0.1-0.1c0-0.1,0-0.1,0.1-0.1h0.4c0,0,0.1,0,0.1,0.1V16c0,0.1,0,0.1-0.1,0.1
			c-0.1,0-0.1,0-0.1-0.1V14.6z"/>
		<path fill="#FFFFFF" d="M341.9,15.6C341.8,15.6,341.8,15.6,341.9,15.6c-0.1-0.1-0.1-0.1,0-0.2l0.6-1c0-0.1,0.1-0.1,0.2-0.1
			c0.1,0,0.2,0,0.2,0.2v0.9h0.1c0.1,0,0.1,0,0.1,0.1s0,0.1-0.1,0.1h-0.1V16c0,0.1,0,0.1-0.1,0.1s-0.1,0-0.1-0.1v-0.3H341.9z
			 M342.6,15.5v-0.9h0l-0.5,0.9H342.6z"/>
	</g>
	<g>
		<path fill="#FFFFFF" d="M360.4,16c0,0.1,0,0.1-0.1,0.1s-0.1,0-0.1-0.1v-1.5c0-0.1,0-0.1,0.1-0.1h0.6c0.1,0,0.1,0,0.1,0.1
			s0,0.1-0.1,0.1h-0.5v0.6h0.4c0.1,0,0.1,0,0.1,0.1c0,0.1,0,0.1-0.1,0.1h-0.4V16z"/>
		<path fill="#FFFFFF" d="M361.6,14.6h-0.2c-0.1,0-0.1,0-0.1-0.1c0-0.1,0-0.1,0.1-0.1h0.4c0,0,0.1,0,0.1,0.1V16c0,0.1,0,0.1-0.1,0.1
			c-0.1,0-0.1,0-0.1-0.1V14.6z"/>
		<path fill="#FFFFFF" d="M362.6,15c0.1,0,0.1,0,0.2,0c0.3,0,0.4,0.3,0.4,0.5c0,0.4-0.2,0.6-0.6,0.6c-0.3,0-0.5-0.2-0.5-0.3
			c0,0,0-0.1,0.1-0.1c0.1,0,0.2,0.2,0.4,0.2c0.2,0,0.3-0.2,0.3-0.4c0-0.2-0.1-0.4-0.3-0.4c-0.2,0-0.2,0.1-0.3,0.1c0,0-0.1,0-0.1-0.1
			c0,0,0-0.1,0-0.1l0.1-0.6c0,0,0-0.1,0.1-0.1h0.6c0.1,0,0.1,0,0.1,0.1c0,0,0,0.1-0.1,0.1h-0.5L362.6,15z"/>
	</g>
	<g>
		<path fill="#FFFFFF" d="M313.1,50.4L313.1,50.4c-0.1,0.2-0.3,0.3-0.5,0.3c-0.5,0-0.8-0.5-0.8-1c0-0.5,0.3-1,0.8-1
			c0.2,0,0.4,0.1,0.5,0.3h0v-0.9c0-0.1,0.1-0.2,0.2-0.2c0.1,0,0.2,0.1,0.2,0.2v2.4c0,0.1-0.1,0.2-0.2,0.2
			C313.2,50.6,313.1,50.6,313.1,50.4L313.1,50.4z M312.6,49c-0.4,0-0.5,0.4-0.5,0.7s0.1,0.7,0.5,0.7s0.5-0.4,0.5-0.7
			S313,49,312.6,49z"/>
		<path fill="#FFFFFF" d="M314.1,49.8c0,0.3,0.2,0.6,0.5,0.6c0.4,0,0.5-0.3,0.6-0.3c0.1,0,0.1,0,0.1,0.1c0,0.2-0.4,0.4-0.7,0.4
			c-0.6,0-0.9-0.5-0.9-1c0-0.5,0.3-1,0.8-1c0.5,0,0.8,0.5,0.8,0.9c0,0.1,0,0.2-0.2,0.2H314.1z M315.1,49.6c0-0.3-0.2-0.6-0.5-0.6
			c-0.4,0-0.5,0.3-0.5,0.6H315.1z"/>
		<path fill="#FFFFFF" d="M316,50.5c0,0.1-0.1,0.2-0.2,0.2c-0.1,0-0.2-0.1-0.2-0.2v-2.4c0-0.1,0.1-0.2,0.2-0.2
			c0.1,0,0.2,0.1,0.2,0.2V50.5z"/>
		<path fill="#FFFFFF" d="M316.6,49.8c0,0.3,0.2,0.6,0.5,0.6c0.4,0,0.5-0.3,0.6-0.3c0.1,0,0.1,0,0.1,0.1c0,0.2-0.4,0.4-0.7,0.4
			c-0.6,0-0.9-0.5-0.9-1c0-0.5,0.3-1,0.8-1c0.5,0,0.8,0.5,0.8,0.9c0,0.1,0,0.2-0.2,0.2H316.6z M317.6,49.6c0-0.3-0.2-0.6-0.5-0.6
			c-0.4,0-0.5,0.3-0.5,0.6H317.6z"/>
		<path fill="#FFFFFF" d="M318.3,48.3c0-0.1,0.1-0.2,0.2-0.2s0.2,0.1,0.2,0.2v0.4h0.1c0.1,0,0.2,0,0.2,0.1s-0.1,0.1-0.2,0.1h-0.1
			v1.5c0,0.1-0.1,0.2-0.2,0.2s-0.2-0.1-0.2-0.2V49h-0.1c-0.1,0-0.2,0-0.2-0.1s0.1-0.1,0.2-0.1h0.1V48.3z"/>
		<path fill="#FFFFFF" d="M319.3,49.8c0,0.3,0.2,0.6,0.5,0.6c0.4,0,0.5-0.3,0.6-0.3c0.1,0,0.1,0,0.1,0.1c0,0.2-0.4,0.4-0.7,0.4
			c-0.6,0-0.9-0.5-0.9-1c0-0.5,0.3-1,0.8-1c0.5,0,0.8,0.5,0.8,0.9c0,0.1,0,0.2-0.2,0.2H319.3z M320.3,49.6c0-0.3-0.2-0.6-0.5-0.6
			c-0.4,0-0.5,0.3-0.5,0.6H320.3z"/>
	</g>
</g>
</svg>
