<?xml version="1.0" encoding="utf-8"?>
<!-- Generator: Adobe Illustrator 16.0.0, SVG Export Plug-In . SVG Version: 6.00 Build 0)  -->
<!DOCTYPE svg PUBLIC "-//W3C//DTD SVG 1.1//EN" "http://www.w3.org/Graphics/SVG/1.1/DTD/svg11.dtd">
<svg version="1.1" id="Layer_2" xmlns="http://www.w3.org/2000/svg" xmlns:xlink="http://www.w3.org/1999/xlink" x="0px" y="0px"
	 width="240px" height="240px" viewBox="0 0 240 240" enable-background="new 0 0 240 240" xml:space="preserve">
<line fill="none" stroke="#FFFFFF" stroke-width="4" stroke-miterlimit="10" x1="194.9" y1="209.2" x2="185.3" y2="197.8"/>
<line fill="none" stroke="#FFFFFF" stroke-width="4" stroke-miterlimit="10" x1="45.1" y1="209.2" x2="54.7" y2="197.9"/>
<line fill="none" stroke="#FFFFFF" stroke-width="4" stroke-miterlimit="10" x1="35.3" y1="40.1" x2="46.1" y2="50.3"/>
<line fill="none" stroke="#FFFFFF" stroke-width="4" stroke-miterlimit="10" x1="204.7" y1="40.1" x2="193.9" y2="50.3"/>
<path fill="none" stroke="#FFFFFF" stroke-width="3" stroke-miterlimit="10" d="M55,199.9c-0.4-0.3-0.8-0.7-1.3-1
	C31.3,180,17,151.7,17,120C17,63.1,63.1,17,120,17s103,46.1,103,103c0,31.7-14.3,60-36.8,78.9c-0.4,0.4-0.9,0.7-1.3,1.1"/>
<g>
	<path fill="none" stroke="#FFFFFF" stroke-width="4" stroke-miterlimit="10" d="M10,222.3c0-4.3,3.4-7.7,7.7-7.7
		c4.3,0,7.7,3.4,7.7,7.7"/>
	<path fill="none" stroke="#FFFFFF" stroke-width="4" stroke-miterlimit="10" d="M40.8,222.3c0,4.3-3.4,7.7-7.7,7.7
		c-4.2,0-7.7-3.4-7.7-7.7"/>
</g>
<g>
	<polyline fill="none" stroke="#FFFFFF" stroke-width="4" stroke-miterlimit="10" points="25.4,17.7 25.4,10 10,10 10,17.7 	"/>
	<polyline fill="none" stroke="#FFFFFF" stroke-width="4" stroke-miterlimit="10" points="25.4,17.7 25.4,25.4 40.8,25.4 40.8,17.7 
			"/>
</g>
<g>
	<polyline fill="none" stroke="#FFFFFF" stroke-width="4" stroke-miterlimit="10" points="198.1,25.4 214.2,10 214.2,25.4 	"/>
	<polyline fill="none" stroke="#FFFFFF" stroke-width="4" stroke-miterlimit="10" points="213.8,25.4 230,10 230,25.4 	"/>
</g>
<g>
	<polyline fill="none" stroke="#FFFFFF" stroke-width="4" stroke-miterlimit="10" points="197.8,221.3 205.8,212.5 213.9,221.3 	"/>
	<polyline fill="none" stroke="#FFFFFF" stroke-width="4" stroke-miterlimit="10" points="213.9,221.3 221.9,230 230,221.3 	"/>
</g>
</svg>
