<?xml version="1.0" encoding="utf-8"?>
<!-- Generator: Adobe Illustrator 16.0.0, SVG Export Plug-In . SVG Version: 6.00 Build 0)  -->
<!DOCTYPE svg PUBLIC "-//W3C//DTD SVG 1.1//EN" "http://www.w3.org/Graphics/SVG/1.1/DTD/svg11.dtd">
<svg version="1.1" id="Layer_1" xmlns="http://www.w3.org/2000/svg" xmlns:xlink="http://www.w3.org/1999/xlink" x="0px" y="0px"
	 width="920.9px" height="240px" viewBox="0 0 920.9 240" enable-background="new 0 0 920.9 240" xml:space="preserve">
<g id="Layer_1_1_">
	<g>
		<g>
			<path fill="#FFFFFF" stroke="#FFFFFF" stroke-width="1.712962e-002" stroke-miterlimit="10" d="M36,57.1c0.7-0.7,2.3-0.3,2.3,0.8
				c0,3,0,6.1,0,9.1c10.9,0.2,21.8,2.5,31.9,6.9c12.3,5.3,23.2,13.5,31.9,23.7c9.4,11,16.2,24.2,20,38.1c0.3,1,0.5,2,0.8,2.9
				c0-23.1,0-46.2,0-69.4c0-0.6-0.1-1.4,0.4-1.9c0.8-0.7,2.3-0.2,2.3,0.9c0,23.3,0,46.6,0,69.9c1.4-5.7,3.2-11.3,5.6-16.6
				c5.8-13.2,14.5-25.1,25.5-34.4c8.1-6.9,17.6-12.2,27.7-15.7c8.3-2.8,17-4.4,25.7-4.5c0-2.9,0-5.8,0-8.8c0-0.3,0-0.7,0.2-0.9
				c0.5-0.8,1.8-0.8,2.3,0c0.2,0.3,0.2,0.8,0.2,1.2c0,20,0,40.1,0,60.1c0,4.2,0,8.4,0,12.6c-0.1,6.4-1.9,12.9-5.7,18.1
				c-3.9,5.6-9.6,9.9-16.1,12c-3.5,1.2-7.2,1.6-10.8,1.6c-18.2,0-36.4,0-54.6,0c0,2,0,4,0,6.1c0,0.3,0,0.7-0.3,1
				c-0.5,0.6-1.6,0.6-2.1,0c-0.3-0.3-0.3-0.7-0.3-1c0-2,0-4,0-6.1c-18.4,0-36.7,0-55.1,0c-6.4,0-12.7-2-18-5.5c-5-3.3-9-8-11.4-13.4
				c-1.3-2.9-2.1-6-2.4-9.1c-0.3-2.9-0.2-5.9-0.2-8.8c0-22.4,0-44.8,0-67.2C35.7,58.3,35.5,57.6,36,57.1 M38.3,89.3
				c0,13.9,0,27.7,0,41.6c0,3.1,0.4,6.2,1.4,9.1c1.9,5.9,5.7,11.1,10.8,14.7c5.1,3.7,11.5,5.6,17.8,5.6c18.2,0,36.4,0,54.6,0
				c-0.1-6.5-0.8-13.1-2.4-19.4c-1.4-5.8-3.6-11.3-6.6-16.4c-3.2-5.4-7.2-10.4-11.9-14.6c-5-4.5-10.8-8.2-16.9-11
				c-6.2-2.9-12.8-5.1-19.5-6.6C56.5,90.3,47.4,89.3,38.3,89.3 M167.9,96.8c-9.7,3.9-18.7,9.6-25.8,17.3c-3.7,4.1-6.8,8.6-9.3,13.6
				c-5,10.1-7.2,21.4-7.4,32.6c16.4,0,32.9,0,49.3,0c4,0,8.1,0.2,12-0.6c6.4-1.2,12.2-4.9,16.4-9.8c3.8-4.5,6.2-10.2,6.6-16
				c0.3-4.1,0.1-8.3,0.1-12.4c0-10.7,0-21.4,0-32.1C195.7,89.4,181.2,91.4,167.9,96.8L167.9,96.8z"/>
		</g>
		<text transform="matrix(1 0 0 1 232.6709 163.2676)" fill="#FFFFFF" font-family="'Biathlon'" font-size="143.7459">ABSYNTHE</text>
		<g enable-background="new    ">
			<path fill="none" stroke="#FFFFFF" stroke-width="1.1849" stroke-miterlimit="10" d="M299.4,159.6v-20.7l-32.5,0l-9.5,16.9
				l-0.7,2.4c0,2.3,1.2,4,3.7,5.1h-20c-1.5,0-2.7-0.3-3.4-1c-0.6-0.7-0.9-1.6-1-2.9c0-1.1,0.3-2,0.9-2.9l49.1-85l0.5-1.7
				c0-1-0.2-1.7-0.6-2.3c-0.4-0.6-1.1-0.9-1.9-1h30.8c0.9,0,1.6,0.5,2.2,1.4c0.6,0.9,0.9,1.8,0.9,2.7l3.2,89c0,1,0.1,1.7,0.4,2.3
				l3,1.4h-21.4C300.5,163.3,299.4,162,299.4,159.6z M298.7,123.5l-1.1-37.9l-21.7,37.9H298.7z"/>
			<path fill="none" stroke="#FFFFFF" stroke-width="1.1849" stroke-miterlimit="10" d="M400.4,149.3c-1.2,5.1-3.6,8.7-7.2,10.8
				c-3.5,2.1-8.7,3.2-15.4,3.2h-47.3c-1.1,0-2-0.4-2.9-1.3c-0.6-0.8-0.9-1.7-1-2.9l0.4-1.9l21.3-85.4c0.3-1.4,0-2.6-1-3.4l-3.6-1.9
				h54.3c4.3,0,7.8,1.2,10.3,3.7c2.8,2.3,4.2,5.8,4.2,10.5c0,1.8-0.2,3.7-0.7,5.6l-3.4,15c-0.6,2.7-1.6,4.6-3,5.7
				c-1.4,1-4.5,2.1-9.1,3.5c3.1,0.8,5.6,2,7.6,3.7c2,1.7,3,4.1,3,7.4c0,0.9,0,1.7,0,2.6c-0.3,0.9-0.5,1.5-0.6,1.9L400.4,149.3z
				 M376.3,118.3H358l-7.5,28.9h19.5c1.2,0,2.3-0.1,3.1-0.3c0.8-0.2,1.8-0.6,3.1-1.3c2-1.1,3.2-2.3,3.5-3.6l3.4-16
				c0.3-1.8-0.3-3.6-1.7-5.2C380,119.1,378.3,118.3,376.3,118.3z M384,81.2h-16.4l-5.9,22.7h16.8c4.9,0,8.2-1.7,10-5
				c1.8-3.3,2.7-7.3,2.7-11.9c0-2.2-0.6-3.7-1.7-4.6S386.5,81.2,384,81.2z"/>
			<path fill="none" stroke="#FFFFFF" stroke-width="1.1849" stroke-miterlimit="10" d="M419.5,104.5c0-11.7,2.2-20.9,6.5-27.7
				c4.4-6.8,11.1-10.2,20.3-10.2h35.6l-2.9,12.4c-0.5,2-2.2,3-5,3h-18.3h-3.2c-3.2,0-5.5,0.6-6.9,1.7c-1,0.9-1.9,2.4-2.9,4.7
				c-0.7,2.4-1,4.3-1,5.8c0,4.2,5.7,7.7,17.1,10.6c11.4,2.8,17.1,9.8,17.1,20.8c0,10.1-2.2,18.9-6.6,26.4
				c-4.4,7.6-11.1,11.4-20,11.4h-40.8c-1.2,0-2.3-0.5-3.2-1.4c-0.9-0.9-1.4-2.1-1.4-3.7l4.9-18.1h1.7c-0.3,0.6-0.4,1.3-0.4,2.1
				c0,1.3,0.4,2.5,1.3,3.4c0.9,1,2.3,1.5,4.2,1.5h4.7h2.7h2.3h2h1.6c1.2,0,2.6,0,4.2-0.1c1.5,0,3.3-0.2,5.3-0.5
				c4.4-0.4,6.8-0.9,7.2-1.6c1.6,0,3.3-1.6,4.9-4.7c1.4-3.2,2.2-6.2,2.2-9.2c0-3.4-5.6-6.5-16.7-9.4c-11.1-2.9-16.7-8.1-16.7-15.5
				V104.5z"/>
			<path fill="none" stroke="#FFFFFF" stroke-width="1.1849" stroke-miterlimit="10" d="M508.7,124.5L494.1,71
				c-0.3-1.4-0.8-2.3-1.6-2.7l-3.6-1.7h22.6c2.6,0,4.2,1.5,4.9,4.5l7.8,34.4l20-33.6l0.4-1.7c0-1.4-1.3-2.6-3.9-3.5h22.6
				c1.9,0,2.9,0.9,2.9,2.6c0,0.9-0.3,1.9-1,3.2L530,125.5l-7.5,32.1c0,0.4,0,1,0,1.7c0,0.7,0.1,1.2,0.4,1.7c0.6,0.6,1.8,1.3,3.7,2.3
				h-23.7c-1.9,0-2.9-1.5-2.9-4.5v-1.7L508.7,124.5z"/>
			<path fill="none" stroke="#FFFFFF" stroke-width="1.1849" stroke-miterlimit="10" d="M557.2,158.7l19.7-86.8l0.1-1v-0.7
				c0-0.8-0.1-1.4-0.4-1.9l-2.7-1.7H594c1.2,0,2.3,0.2,3,0.7c1,0.3,2,1.4,3,3.3l17.1,44.4l10.1-43.4c0-1.5-0.2-2.5-0.6-3
				c-0.2-0.5-1.5-1.2-3.9-2h18.4c1.7,0,3,0.3,3.7,0.9c0.8,0.6,1.1,1.8,1.1,3.5l-20.7,92.3h-9.1c-1.4,0-2.7-0.4-3.8-1.2
				c-1.1-0.8-2.1-1.7-2.9-2.8L590,105.6l-12.1,51.5c-0.3,1.7,0.2,3.2,1.6,4.5c0.7,0.5,1.3,0.9,1.9,1.3c0.2,0.1,0.5,0.2,0.9,0.4
				l-20.7,0.4c-1.2,0-2.3-0.5-3.1-1.6C557.7,161.1,557.2,159.9,557.2,158.7z"/>
			<path fill="none" stroke="#FFFFFF" stroke-width="1.1849" stroke-miterlimit="10" d="M669.8,84.6H651c-1.3,0-2.2,0.1-2.7,0.3
				c-0.4,0.2-0.8,0.4-1.1,0.6c-0.3,0.2-0.7,0.7-1.1,1.4l3.3-15.4c0.1-1.1,0.7-1.8,1.7-2.3l2.4-0.6h59.8c4.3,0,6.6-0.7,6.8-2.2h0.9
				l-3.3,14.8c-0.3,1.2-0.7,1.9-1.3,2.4c-0.6,0.4-1.7,0.7-3.3,0.9h-21l-17.7,75.2c-0.3,1,0.1,1.8,1.3,2.6l2,0.9l-22.9,0.4
				c-0.9,0-1.7-0.4-2.4-1.2c-0.6-0.9-0.9-1.8-0.9-2.7L669.8,84.6z"/>
			<path fill="none" stroke="#FFFFFF" stroke-width="1.1849" stroke-miterlimit="10" d="M714.2,159.2l20.8-87v-0.9v-0.7
				c0-0.9-0.3-1.7-0.9-2.6c-0.4-0.9-1.2-1.3-2.4-1.4h21.8c3.7,0,5.3,1.5,4.7,4.6l-7.3,31h29.6l6.6-31c0.3-1.3,0-2.4-0.9-3.3
				c-0.9-0.9-1.9-1.3-3-1.3h22.6c2.7,0,4,1.5,4,4.6l-0.1,1.6l-20.6,85.8l-0.3,1.7c0,0.8,1.2,1.7,3.7,2.9h-22c-1.1,0-2.2-0.4-3.2-1.2
				c-1-0.8-1.4-1.7-1.3-2.9l10.3-41.3H747l-9.8,41.3c-0.3,1.3,0,2.3,1,2.9l3,1.2h-22.6c-1.7,0-2.9-0.2-3.5-0.5
				c-0.6-0.3-0.9-1-0.9-1.9C714.2,160.2,714.2,159.6,714.2,159.2z"/>
			<path fill="none" stroke="#FFFFFF" stroke-width="1.1849" stroke-miterlimit="10" d="M804.6,157.7l20-84.2l0.4-2.6
				c0-1.4-0.3-2.4-1-3l-1.9-1.3h63.1l-2.6,11.8c-0.3,1.9-1.8,2.9-4.6,2.9H844l-4.7,21.3h34.8l-2.4,12.5c-0.5,2-1.9,3-4.3,3h-26.4
				c-2.5,0-4,0.3-4.7,0.8c-0.6,0.5-1.2,1.8-1.8,3.8l-5.3,24.6h34.8c2.1,0,3.4-0.2,3.9-0.6c0.5-0.4,1.1-1.6,2-3.7h1.3l-3.7,16
				c-0.3,1.4-1.2,2.6-2.7,3.5c-1.5,0.7-3.2,1-5,1h-50.5c-3.2,0-4.7-1.2-4.7-3.5L804.6,157.7z"/>
		</g>
	</g>
</g>
<g id="Layer_2">
</g>
</svg>
