<?xml version="1.0" encoding="utf-8"?>
<!-- Generator: Adobe Illustrator 16.0.0, SVG Export Plug-In . SVG Version: 6.00 Build 0)  -->
<!DOCTYPE svg PUBLIC "-//W3C//DTD SVG 1.1//EN" "http://www.w3.org/Graphics/SVG/1.1/DTD/svg11.dtd">
<svg version="1.1" xmlns="http://www.w3.org/2000/svg" xmlns:xlink="http://www.w3.org/1999/xlink" x="0px" y="0px" width="920.9px"
	 height="240px" viewBox="0 0 920.9 240" enable-background="new 0 0 920.9 240" xml:space="preserve">
<g id="Layer_1">
	<g>
		<g>
			<path fill="#FFFFFF" stroke="#FFFFFF" stroke-width="1.712962e-002" stroke-miterlimit="10" d="M36,57.1c0.7-0.7,2.3-0.3,2.3,0.8
				c0,3,0,6.1,0,9.1c10.9,0.2,21.8,2.5,31.9,6.9c12.3,5.3,23.2,13.5,31.9,23.7c9.4,11,16.2,24.2,20,38.1c0.3,1,0.5,2,0.8,2.9
				c0-23.1,0-46.2,0-69.4c0-0.6-0.1-1.4,0.4-1.9c0.8-0.7,2.3-0.2,2.3,0.9c0,23.3,0,46.6,0,69.9c1.4-5.7,3.2-11.3,5.6-16.6
				c5.8-13.2,14.5-25.1,25.5-34.4c8.1-6.9,17.6-12.2,27.7-15.7c8.3-2.8,17-4.4,25.7-4.5c0-2.9,0-5.8,0-8.8c0-0.3,0-0.7,0.2-0.9
				c0.5-0.8,1.8-0.8,2.3,0c0.2,0.3,0.2,0.8,0.2,1.2c0,20,0,40.1,0,60.1c0,4.2,0,8.4,0,12.6c-0.1,6.4-1.9,12.9-5.7,18.1
				c-3.9,5.6-9.6,9.9-16.1,12c-3.5,1.2-7.2,1.6-10.8,1.6c-18.2,0-36.4,0-54.6,0c0,2,0,4,0,6.1c0,0.3,0,0.7-0.3,1
				c-0.5,0.6-1.6,0.6-2.1,0c-0.3-0.3-0.3-0.7-0.3-1c0-2,0-4,0-6.1c-18.4,0-36.7,0-55.1,0c-6.4,0-12.7-2-18-5.5c-5-3.3-9-8-11.4-13.4
				c-1.3-2.9-2.1-6-2.4-9.1c-0.3-2.9-0.2-5.9-0.2-8.8c0-22.4,0-44.8,0-67.2C35.7,58.3,35.5,57.6,36,57.1 M38.3,89.3
				c0,13.9,0,27.7,0,41.6c0,3.1,0.4,6.2,1.4,9.1c1.9,5.9,5.7,11.1,10.8,14.7c5.1,3.7,11.5,5.6,17.8,5.6c18.2,0,36.4,0,54.6,0
				c-0.1-6.5-0.8-13.1-2.4-19.4c-1.4-5.8-3.6-11.3-6.6-16.4c-3.2-5.4-7.2-10.4-11.9-14.6c-5-4.5-10.8-8.2-16.9-11
				c-6.2-2.9-12.8-5.1-19.5-6.6C56.5,90.3,47.4,89.3,38.3,89.3 M167.9,96.8c-9.7,3.9-18.7,9.6-25.8,17.3c-3.7,4.1-6.8,8.6-9.3,13.6
				c-5,10.1-7.2,21.4-7.4,32.6c16.4,0,32.9,0,49.3,0c4,0,8.1,0.2,12-0.6c6.4-1.2,12.2-4.9,16.4-9.8c3.8-4.5,6.2-10.2,6.6-16
				c0.3-4.1,0.1-8.3,0.1-12.4c0-10.7,0-21.4,0-32.1C195.7,89.4,181.2,91.4,167.9,96.8L167.9,96.8z"/>
		</g>
		
			<text transform="matrix(1 0 0 1 232.6709 163.2676)" fill="#FFFFFF" stroke="#FFFFFF" stroke-width="1.1849" stroke-miterlimit="10" font-family="'Biathlon'" font-size="143.7459">ABSYNTHE</text>
	</g>
</g>
<g id="Layer_2">
</g>
</svg>
